{
DisplayStrings = (
1
);
copyright = "Copyright (c) 2014 by Steven Ng with Reserved Font Name \"Aitu\". Licensed under the SIL Open Font License, Version 1.1. ";
customParameters = (
{
name = vendorID;
value = tyPL;
}
);
date = "2014-08-18 18:15:22 +0000";
designer = "Steven Ng";
designerURL = "http://www.assignittous.com";
familyName = "Aitu";
featurePrefixes = (
{
automatic = 1;
code = "languagesystem DFLT dflt;\012languagesystem latn dflt;\012languagesystem math dflt;\012";
name = Languagesystems;
}
);
features = (
{
automatic = 1;
code = "feature frac;\012";
name = aalt;
},
{
automatic = 1;
code = "sub one slash four by onequarter;\012sub one slash two by onehalf;\012sub three slash four by threequarters;\012";
name = frac;
},
{
automatic = 1;
code = "sub f f i by f_f_i;\012sub f f l by f_f_l;\012sub f i by fi;\012sub f l by fl;\012";
name = liga;
}
);
fontMaster = (
{
alignmentZones = (
"{1456, 58}",
"{1036, 17}",
"{0, -16}",
"{-329, -11}"
);
ascender = 1610;
capHeight = 1457;
customParameters = (
{
name = typoAscender;
value = 1610;
},
{
name = typoDescender;
value = "-390";
},
{
name = typoLineGap;
value = 400;
},
{
name = underlinePosition;
value = "-6";
}
);
descender = "-390";
id = "E173E66F-8B44-4FD8-81CD-C7310885C9A9";
weight = Bold;
weightValue = 900;
widthValue = 5;
xHeight = 1037;
}
);
glyphs = (
{
glyphname = A;
layers = (
{
layerId = "E173E66F-8B44-4FD8-81CD-C7310885C9A9";
name = Bold;
paths = (
{
closed = 1;
nodes = (
"1448 0 LINE",
"884 1457 LINE",
"538 1457 LINE",
"-26 0 LINE",
"238 0 LINE SMOOTH",
"266 0 OFFCURVE",
"289.5 7.5 OFFCURVE",
"308.5 22.5 CURVE SMOOTH",
"327.5 37.5 OFFCURVE",
"340.667 54.3333 OFFCURVE",
"348 73 CURVE",
"434 327 LINE",
"988 327 LINE",
"1074 73 LINE",
"1083.33 51.6667 OFFCURVE",
"1097 34.1667 OFFCURVE",
"1115 20.5 CURVE SMOOTH",
"1133 6.83333 OFFCURVE",
"1156.67 0 OFFCURVE",
"1186 0 CURVE SMOOTH"
);
},
{
closed = 1;
nodes = (
"512 557 LINE",
"646 954 LINE",
"656 979.333 OFFCURVE",
"666.5 1009.33 OFFCURVE",
"677.5 1044 CURVE SMOOTH",
"688.5 1078.67 OFFCURVE",
"699.333 1116.33 OFFCURVE",
"710 1157 CURVE",
"721.333 1117 OFFCURVE",
"732.667 1079.83 OFFCURVE",
"744 1045.5 CURVE SMOOTH",
"755.333 1011.17 OFFCURVE",
"766 981.333 OFFCURVE",
"776 956 CURVE",
"910 557 LINE"
);
}
);
width = 1422;
}
);
leftKerningGroup = A;
rightKerningGroup = A;
unicode = 0041;
},
{
glyphname = Aacute;
layers = (
{
layerId = "E173E66F-8B44-4FD8-81CD-C7310885C9A9";
name = Bold;
paths = (
{
closed = 1;
nodes = (
"0 0 LINE"
);
},
{
closed = 1;
nodes = (
"1448 0 LINE",
"884 1457 LINE",
"538 1457 LINE",
"-26 0 LINE",
"238 0 LINE SMOOTH",
"266 0 OFFCURVE",
"289.5 7.5 OFFCURVE",
"308.5 22.5 CURVE SMOOTH",
"327.5 37.5 OFFCURVE",
"340.667 54.3333 OFFCURVE",
"348 73 CURVE",
"434 327 LINE",
"988 327 LINE",
"1074 73 LINE",
"1083.33 51.6667 OFFCURVE",
"1097 34.1667 OFFCURVE",
"1115 20.5 CURVE SMOOTH",
"1133 6.83333 OFFCURVE",
"1156.67 0 OFFCURVE",
"1186 0 CURVE SMOOTH"
);
},
{
closed = 1;
nodes = (
"512 557 LINE",
"646 954 LINE",
"656 979.333 OFFCURVE",
"666.5 1009.33 OFFCURVE",
"677.5 1044 CURVE SMOOTH",
"688.5 1078.67 OFFCURVE",
"699.333 1116.33 OFFCURVE",
"710 1157 CURVE",
"721.333 1117 OFFCURVE",
"732.667 1079.83 OFFCURVE",
"744 1045.5 CURVE SMOOTH",
"755.333 1011.17 OFFCURVE",
"766 981.333 OFFCURVE",
"776 956 CURVE",
"910 557 LINE"
);
},
{
closed = 1;
nodes = (
"1169 1867 LINE",
"827 1867 LINE SMOOTH",
"811.667 1867 OFFCURVE",
"798.167 1866.67 OFFCURVE",
"786.5 1866 CURVE SMOOTH",
"774.833 1865.33 OFFCURVE",
"764.5 1863.5 OFFCURVE",
"755.5 1860.5 CURVE SMOOTH",
"746.5 1857.5 OFFCURVE",
"738.167 1852.83 OFFCURVE",
"730.5 1846.5 CURVE SMOOTH",
"722.833 1840.17 OFFCURVE",
"715 1831.67 OFFCURVE",
"707 1821 CURVE SMOOTH",
"518 1551 LINE",
"744 1551 LINE SMOOTH",
"755.333 1551 OFFCURVE",
"765.5 1551.33 OFFCURVE",
"774.5 1552 CURVE SMOOTH",
"783.5 1552.67 OFFCURVE",
"792 1554 OFFCURVE",
"800 1556 CURVE SMOOTH",
"808 1558 OFFCURVE",
"815.667 1561 OFFCURVE",
"823 1565 CURVE SMOOTH",
"830.333 1569 OFFCURVE",
"838 1574.67 OFFCURVE",
"846 1582 CURVE SMOOTH"
);
}
);
width = 1422;
}
);
leftKerningGroup = A;
rightKerningGroup = A;
unicode = 00C1;
},
{
glyphname = Acircumflex;
layers = (
{
layerId = "E173E66F-8B44-4FD8-81CD-C7310885C9A9";
name = Bold;
paths = (
{
closed = 1;
nodes = (
"0 0 LINE"
);
},
{
closed = 1;
nodes = (
"1448 0 LINE",
"884 1457 LINE",
"538 1457 LINE",
"-26 0 LINE",
"238 0 LINE SMOOTH",
"266 0 OFFCURVE",
"289.5 7.5 OFFCURVE",
"308.5 22.5 CURVE SMOOTH",
"327.5 37.5 OFFCURVE",
"340.667 54.3333 OFFCURVE",
"348 73 CURVE",
"434 327 LINE",
"988 327 LINE",
"1074 73 LINE",
"1083.33 51.6667 OFFCURVE",
"1097 34.1667 OFFCURVE",
"1115 20.5 CURVE SMOOTH",
"1133 6.83333 OFFCURVE",
"1156.67 0 OFFCURVE",
"1186 0 CURVE SMOOTH"
);
},
{
closed = 1;
nodes = (
"512 557 LINE",
"646 954 LINE",
"656 979.333 OFFCURVE",
"666.5 1009.33 OFFCURVE",
"677.5 1044 CURVE SMOOTH",
"688.5 1078.67 OFFCURVE",
"699.333 1116.33 OFFCURVE",
"710 1157 CURVE",
"721.333 1117 OFFCURVE",
"732.667 1079.83 OFFCURVE",
"744 1045.5 CURVE SMOOTH",
"755.333 1011.17 OFFCURVE",
"766 981.333 OFFCURVE",
"776 956 CURVE",
"910 557 LINE"
);
},
{
closed = 1;
nodes = (
"1100 1551 LINE",
"856 1829 LINE",
"574 1829 LINE",
"330 1551 LINE",
"544 1551 LINE SMOOTH",
"556 1551 OFFCURVE",
"570.667 1553.17 OFFCURVE",
"588 1557.5 CURVE SMOOTH",
"605.333 1561.83 OFFCURVE",
"623.333 1575 OFFCURVE",
"642 1597 CURVE",
"692 1675 LINE",
"710 1700 LINE",
"712.667 1696 OFFCURVE",
"715.5 1692 OFFCURVE",
"718.5 1688 CURVE SMOOTH",
"721.5 1684 OFFCURVE",
"724.667 1679.67 OFFCURVE",
"728 1675 CURVE",
"778 1597 LINE",
"796.667 1575 OFFCURVE",
"814.667 1561.83 OFFCURVE",
"832 1557.5 CURVE SMOOTH",
"849.333 1553.17 OFFCURVE",
"864 1551 OFFCURVE",
"876 1551 CURVE SMOOTH"
);
}
);
width = 1422;
}
);
leftKerningGroup = A;
rightKerningGroup = A;
unicode = 00C2;
},
{
glyphname = Adieresis;
layers = (
{
layerId = "E173E66F-8B44-4FD8-81CD-C7310885C9A9";
name = Bold;
paths = (
{
closed = 1;
nodes = (
"0 0 LINE"
);
},
{
closed = 1;
nodes = (
"1448 0 LINE",
"884 1457 LINE",
"538 1457 LINE",
"-26 0 LINE",
"238 0 LINE SMOOTH",
"266 0 OFFCURVE",
"289.5 7.5 OFFCURVE",
"308.5 22.5 CURVE SMOOTH",
"327.5 37.5 OFFCURVE",
"340.667 54.3333 OFFCURVE",
"348 73 CURVE",
"434 327 LINE",
"988 327 LINE",
"1074 73 LINE",
"1083.33 51.6667 OFFCURVE",
"1097 34.1667 OFFCURVE",
"1115 20.5 CURVE SMOOTH",
"1133 6.83333 OFFCURVE",
"1156.67 0 OFFCURVE",
"1186 0 CURVE SMOOTH"
);
},
{
closed = 1;
nodes = (
"512 557 LINE",
"646 954 LINE",
"656 979.333 OFFCURVE",
"666.5 1009.33 OFFCURVE",
"677.5 1044 CURVE SMOOTH",
"688.5 1078.67 OFFCURVE",
"699.333 1116.33 OFFCURVE",
"710 1157 CURVE",
"721.333 1117 OFFCURVE",
"732.667 1079.83 OFFCURVE",
"744 1045.5 CURVE SMOOTH",
"755.333 1011.17 OFFCURVE",
"766 981.333 OFFCURVE",
"776 956 CURVE",
"910 557 LINE"
);
},
{
closed = 1;
nodes = (
"636 1688.67 OFFCURVE",
"631.833 1708.33 OFFCURVE",
"623.5 1727 CURVE SMOOTH",
"615.167 1745.67 OFFCURVE",
"603.667 1762 OFFCURVE",
"589 1776 CURVE SMOOTH",
"574.333 1790 OFFCURVE",
"557.333 1801 OFFCURVE",
"538 1809 CURVE SMOOTH",
"518.667 1817 OFFCURVE",
"498 1821 OFFCURVE",
"476 1821 CURVE SMOOTH",
"456 1821 OFFCURVE",
"436.833 1817 OFFCURVE",
"418.5 1809 CURVE SMOOTH",
"400.167 1801 OFFCURVE",
"384 1790 OFFCURVE",
"370 1776 CURVE SMOOTH",
"356 1762 OFFCURVE",
"344.833 1745.67 OFFCURVE",
"336.5 1727 CURVE SMOOTH",
"328.167 1708.33 OFFCURVE",
"324 1688.67 OFFCURVE",
"324 1668 CURVE SMOOTH",
"324 1646.67 OFFCURVE",
"328.167 1627 OFFCURVE",
"336.5 1609 CURVE SMOOTH",
"344.833 1591 OFFCURVE",
"356 1575.17 OFFCURVE",
"370 1561.5 CURVE SMOOTH",
"384 1547.83 OFFCURVE",
"400.167 1537.17 OFFCURVE",
"418.5 1529.5 CURVE SMOOTH",
"436.833 1521.83 OFFCURVE",
"456 1518 OFFCURVE",
"476 1518 CURVE SMOOTH",
"498 1518 OFFCURVE",
"518.667 1521.83 OFFCURVE",
"538 1529.5 CURVE SMOOTH",
"557.333 1537.17 OFFCURVE",
"574.333 1547.83 OFFCURVE",
"589 1561.5 CURVE SMOOTH",
"603.667 1575.17 OFFCURVE",
"615.167 1591 OFFCURVE",
"623.5 1609 CURVE SMOOTH",
"631.833 1627 OFFCURVE",
"636 1646.67 OFFCURVE",
"636 1668 CURVE SMOOTH"
);
},
{
closed = 1;
nodes = (
"1096 1688.67 OFFCURVE",
"1091.83 1708.33 OFFCURVE",
"1083.5 1727 CURVE SMOOTH",
"1075.17 1745.67 OFFCURVE",
"1064 1762 OFFCURVE",
"1050 1776 CURVE SMOOTH",
"1036 1790 OFFCURVE",
"1019.5 1801 OFFCURVE",
"1000.5 1809 CURVE SMOOTH",
"981.5 1817 OFFCURVE",
"961.333 1821 OFFCURVE",
"940 1821 CURVE SMOOTH",
"918.667 1821 OFFCURVE",
"898.5 1817 OFFCURVE",
"879.5 1809 CURVE SMOOTH",
"860.5 1801 OFFCURVE",
"844 1790 OFFCURVE",
"830 1776 CURVE SMOOTH",
"816 1762 OFFCURVE",
"804.833 1745.67 OFFCURVE",
"796.5 1727 CURVE SMOOTH",
"788.167 1708.33 OFFCURVE",
"784 1688.67 OFFCURVE",
"784 1668 CURVE SMOOTH",
"784 1646.67 OFFCURVE",
"788.167 1627 OFFCURVE",
"796.5 1609 CURVE SMOOTH",
"804.833 1591 OFFCURVE",
"816 1575.17 OFFCURVE",
"830 1561.5 CURVE SMOOTH",
"844 1547.83 OFFCURVE",
"860.5 1537.17 OFFCURVE",
"879.5 1529.5 CURVE SMOOTH",
"898.5 1521.83 OFFCURVE",
"918.667 1518 OFFCURVE",
"940 1518 CURVE SMOOTH",
"961.333 1518 OFFCURVE",
"981.5 1521.83 OFFCURVE",
"1000.5 1529.5 CURVE SMOOTH",
"1019.5 1537.17 OFFCURVE",
"1036 1547.83 OFFCURVE",
"1050 1561.5 CURVE SMOOTH",
"1064 1575.17 OFFCURVE",
"1075.17 1591 OFFCURVE",
"1083.5 1609 CURVE SMOOTH",
"1091.83 1627 OFFCURVE",
"1096 1646.67 OFFCURVE",
"1096 1668 CURVE SMOOTH"
);
}
);
width = 1422;
}
);
leftKerningGroup = A;
rightKerningGroup = A;
unicode = 00C4;
},
{
glyphname = Agrave;
layers = (
{
layerId = "E173E66F-8B44-4FD8-81CD-C7310885C9A9";
name = Bold;
paths = (
{
closed = 1;
nodes = (
"0 0 LINE"
);
},
{
closed = 1;
nodes = (
"1448 0 LINE",
"884 1457 LINE",
"538 1457 LINE",
"-26 0 LINE",
"238 0 LINE SMOOTH",
"266 0 OFFCURVE",
"289.5 7.5 OFFCURVE",
"308.5 22.5 CURVE SMOOTH",
"327.5 37.5 OFFCURVE",
"340.667 54.3333 OFFCURVE",
"348 73 CURVE",
"434 327 LINE",
"988 327 LINE",
"1074 73 LINE",
"1083.33 51.6667 OFFCURVE",
"1097 34.1667 OFFCURVE",
"1115 20.5 CURVE SMOOTH",
"1133 6.83333 OFFCURVE",
"1156.67 0 OFFCURVE",
"1186 0 CURVE SMOOTH"
);
},
{
closed = 1;
nodes = (
"512 557 LINE",
"646 954 LINE",
"656 979.333 OFFCURVE",
"666.5 1009.33 OFFCURVE",
"677.5 1044 CURVE SMOOTH",
"688.5 1078.67 OFFCURVE",
"699.333 1116.33 OFFCURVE",
"710 1157 CURVE",
"721.333 1117 OFFCURVE",
"732.667 1079.83 OFFCURVE",
"744 1045.5 CURVE SMOOTH",
"755.333 1011.17 OFFCURVE",
"766 981.333 OFFCURVE",
"776 956 CURVE",
"910 557 LINE"
);
},
{
closed = 1;
nodes = (
"237 1867 LINE",
"562 1580 LINE SMOOTH",
"570 1572.67 OFFCURVE",
"577.5 1567.17 OFFCURVE",
"584.5 1563.5 CURVE SMOOTH",
"591.5 1559.83 OFFCURVE",
"598.833 1557 OFFCURVE",
"606.5 1555 CURVE SMOOTH",
"614.167 1553 OFFCURVE",
"622.333 1551.83 OFFCURVE",
"631 1551.5 CURVE SMOOTH",
"639.667 1551.17 OFFCURVE",
"650 1551 OFFCURVE",
"662 1551 CURVE SMOOTH",
"888 1551 LINE",
"679 1821 LINE SMOOTH",
"670.333 1831.67 OFFCURVE",
"662.167 1840 OFFCURVE",
"654.5 1846 CURVE SMOOTH",
"646.833 1852 OFFCURVE",
"638.5 1856.5 OFFCURVE",
"629.5 1859.5 CURVE SMOOTH",
"620.5 1862.5 OFFCURVE",
"610.333 1864.5 OFFCURVE",
"599 1865.5 CURVE SMOOTH",
"587.667 1866.5 OFFCURVE",
"574.333 1867 OFFCURVE",
"559 1867 CURVE SMOOTH"
);
}
);
width = 1422;
}
);
leftKerningGroup = A;
rightKerningGroup = A;
unicode = 00C0;
},
{
glyphname = Aring;
layers = (
{
layerId = "E173E66F-8B44-4FD8-81CD-C7310885C9A9";
name = Bold;
paths = (
{
closed = 1;
nodes = (
"0 0 LINE"
);
},
{
closed = 1;
nodes = (
"1448 0 LINE",
"884 1457 LINE",
"538 1457 LINE",
"-26 0 LINE",
"238 0 LINE SMOOTH",
"266 0 OFFCURVE",
"289.5 7.5 OFFCURVE",
"308.5 22.5 CURVE SMOOTH",
"327.5 37.5 OFFCURVE",
"340.667 54.3333 OFFCURVE",
"348 73 CURVE",
"434 327 LINE",
"988 327 LINE",
"1074 73 LINE",
"1083.33 51.6667 OFFCURVE",
"1097 34.1667 OFFCURVE",
"1115 20.5 CURVE SMOOTH",
"1133 6.83333 OFFCURVE",
"1156.67 0 OFFCURVE",
"1186 0 CURVE SMOOTH"
);
},
{
closed = 1;
nodes = (
"512 557 LINE",
"646 954 LINE",
"656 979.333 OFFCURVE",
"666.5 1009.33 OFFCURVE",
"677.5 1044 CURVE SMOOTH",
"688.5 1078.67 OFFCURVE",
"699.333 1116.33 OFFCURVE",
"710 1157 CURVE",
"721.333 1117 OFFCURVE",
"732.667 1079.83 OFFCURVE",
"744 1045.5 CURVE SMOOTH",
"755.333 1011.17 OFFCURVE",
"766 981.333 OFFCURVE",
"776 956 CURVE",
"910 557 LINE"
);
},
{
closed = 1;
nodes = (
"487 1684.67 OFFCURVE",
"493.167 1657.83 OFFCURVE",
"505.5 1633.5 CURVE SMOOTH",
"517.833 1609.17 OFFCURVE",
"534.167 1588.33 OFFCURVE",
"554.5 1571 CURVE SMOOTH",
"574.833 1553.67 OFFCURVE",
"598.333 1540.33 OFFCURVE",
"625 1531 CURVE SMOOTH",
"651.667 1521.67 OFFCURVE",
"679.667 1517 OFFCURVE",
"709 1517 CURVE SMOOTH",
"739.667 1517 OFFCURVE",
"768.667 1521.67 OFFCURVE",
"796 1531 CURVE SMOOTH",
"823.333 1540.33 OFFCURVE",
"847.5 1553.67 OFFCURVE",
"868.5 1571 CURVE SMOOTH",
"889.5 1588.33 OFFCURVE",
"906.167 1609.17 OFFCURVE",
"918.5 1633.5 CURVE SMOOTH",
"930.833 1657.83 OFFCURVE",
"937 1684.67 OFFCURVE",
"937 1714 CURVE SMOOTH",
"937 1744.67 OFFCURVE",
"930.833 1772.5 OFFCURVE",
"918.5 1797.5 CURVE SMOOTH",
"906.167 1822.5 OFFCURVE",
"889.5 1843.83 OFFCURVE",
"868.5 1861.5 CURVE SMOOTH",
"847.5 1879.17 OFFCURVE",
"823.333 1892.83 OFFCURVE",
"796 1902.5 CURVE SMOOTH",
"768.667 1912.17 OFFCURVE",
"739.667 1917 OFFCURVE",
"709 1917 CURVE SMOOTH",
"679.667 1917 OFFCURVE",
"651.667 1912.17 OFFCURVE",
"625 1902.5 CURVE SMOOTH",
"598.333 1892.83 OFFCURVE",
"574.833 1879.17 OFFCURVE",
"554.5 1861.5 CURVE SMOOTH",
"534.167 1843.83 OFFCURVE",
"517.833 1822.5 OFFCURVE",
"505.5 1797.5 CURVE SMOOTH",
"493.167 1772.5 OFFCURVE",
"487 1744.67 OFFCURVE",
"487 1714 CURVE SMOOTH"
);
},
{
closed = 1;
nodes = (
"633 1739.33 OFFCURVE",
"639.5 1759.33 OFFCURVE",
"652.5 1774 CURVE SMOOTH",
"665.5 1788.67 OFFCURVE",
"685.667 1796 OFFCURVE",
"713 1796 CURVE SMOOTH",
"737 1796 OFFCURVE",
"756 1788.67 OFFCURVE",
"770 1774 CURVE SMOOTH",
"784 1759.33 OFFCURVE",
"791 1739.33 OFFCURVE",
"791 1714 CURVE SMOOTH",
"791 1690.67 OFFCURVE",
"784 1671.5 OFFCURVE",
"770 1656.5 CURVE SMOOTH",
"756 1641.5 OFFCURVE",
"737 1634 OFFCURVE",
"713 1634 CURVE SMOOTH",
"685.667 1634 OFFCURVE",
"665.5 1641.5 OFFCURVE",
"652.5 1656.5 CURVE SMOOTH",
"639.5 1671.5 OFFCURVE",
"633 1690.67 OFFCURVE",
"633 1714 CURVE SMOOTH"
);
}
);
width = 1422;
}
);
leftKerningGroup = A;
rightKerningGroup = A;
unicode = 00C5;
},
{
glyphname = Atilde;
layers = (
{
layerId = "E173E66F-8B44-4FD8-81CD-C7310885C9A9";
name = Bold;
paths = (
{
closed = 1;
nodes = (
"0 0 LINE"
);
},
{
closed = 1;
nodes = (
"1448 0 LINE",
"884 1457 LINE",
"538 1457 LINE",
"-26 0 LINE",
"238 0 LINE SMOOTH",
"266 0 OFFCURVE",
"289.5 7.5 OFFCURVE",
"308.5 22.5 CURVE SMOOTH",
"327.5 37.5 OFFCURVE",
"340.667 54.3333 OFFCURVE",
"348 73 CURVE",
"434 327 LINE",
"988 327 LINE",
"1074 73 LINE",
"1083.33 51.6667 OFFCURVE",
"1097 34.1667 OFFCURVE",
"1115 20.5 CURVE SMOOTH",
"1133 6.83333 OFFCURVE",
"1156.67 0 OFFCURVE",
"1186 0 CURVE SMOOTH"
);
},
{
closed = 1;
nodes = (
"512 557 LINE",
"646 954 LINE",
"656 979.333 OFFCURVE",
"666.5 1009.33 OFFCURVE",
"677.5 1044 CURVE SMOOTH",
"688.5 1078.67 OFFCURVE",
"699.333 1116.33 OFFCURVE",
"710 1157 CURVE",
"721.333 1117 OFFCURVE",
"732.667 1079.83 OFFCURVE",
"744 1045.5 CURVE SMOOTH",
"755.333 1011.17 OFFCURVE",
"766 981.333 OFFCURVE",
"776 956 CURVE",
"910 557 LINE"
);
},
{
closed = 1;
nodes = (
"816.667 1729 OFFCURVE",
"799.667 1734 OFFCURVE",
"783 1744 CURVE SMOOTH",
"766.333 1754 OFFCURVE",
"748 1765.17 OFFCURVE",
"728 1777.5 CURVE SMOOTH",
"708 1789.83 OFFCURVE",
"684.667 1801 OFFCURVE",
"658 1811 CURVE SMOOTH",
"631.333 1821 OFFCURVE",
"599.333 1826 OFFCURVE",
"562 1826 CURVE SMOOTH",
"524.667 1826 OFFCURVE",
"491.833 1818 OFFCURVE",
"463.5 1802 CURVE SMOOTH",
"435.167 1786 OFFCURVE",
"411.167 1764.67 OFFCURVE",
"391.5 1738 CURVE SMOOTH",
"371.833 1711.33 OFFCURVE",
"357 1681 OFFCURVE",
"347 1647 CURVE SMOOTH",
"337 1613 OFFCURVE",
"332 1577.67 OFFCURVE",
"332 1541 CURVE",
"522 1541 LINE",
"522 1550.33 OFFCURVE",
"523.333 1560.33 OFFCURVE",
"526 1571 CURVE SMOOTH",
"528.667 1581.67 OFFCURVE",
"533 1591.5 OFFCURVE",
"539 1600.5 CURVE SMOOTH",
"545 1609.5 OFFCURVE",
"553 1617 OFFCURVE",
"563 1623 CURVE SMOOTH",
"573 1629 OFFCURVE",
"585.333 1632 OFFCURVE",
"600 1632 CURVE SMOOTH",
"617.333 1632 OFFCURVE",
"634.333 1627 OFFCURVE",
"651 1617 CURVE SMOOTH",
"667.667 1607 OFFCURVE",
"686.167 1595.83 OFFCURVE",
"706.5 1583.5 CURVE SMOOTH",
"726.833 1571.17 OFFCURVE",
"750.167 1560 OFFCURVE",
"776.5 1550 CURVE SMOOTH",
"802.833 1540 OFFCURVE",
"834.667 1535 OFFCURVE",
"872 1535 CURVE SMOOTH",
"909.333 1535 OFFCURVE",
"942.333 1542.83 OFFCURVE",
"971 1558.5 CURVE SMOOTH",
"999.667 1574.17 OFFCURVE",
"1023.67 1595.17 OFFCURVE",
"1043 1621.5 CURVE SMOOTH",
"1062.33 1647.83 OFFCURVE",
"1077 1678 OFFCURVE",
"1087 1712 CURVE SMOOTH",
"1097 1746 OFFCURVE",
"1102 1781.33 OFFCURVE",
"1102 1818 CURVE",
"914 1818 LINE",
"914 1808.67 OFFCURVE",
"912.5 1798.83 OFFCURVE",
"909.5 1788.5 CURVE SMOOTH",
"906.5 1778.17 OFFCURVE",
"901.833 1768.5 OFFCURVE",
"895.5 1759.5 CURVE SMOOTH",
"889.167 1750.5 OFFCURVE",
"881 1743.17 OFFCURVE",
"871 1737.5 CURVE SMOOTH",
"861 1731.83 OFFCURVE",
"848.667 1729 OFFCURVE",
"834 1729 CURVE SMOOTH"
);
}
);
width = 1422;
}
);
leftKerningGroup = A;
rightKerningGroup = A;
unicode = 00C3;
},
{
glyphname = AE;
layers = (
{
layerId = "E173E66F-8B44-4FD8-81CD-C7310885C9A9";
name = Bold;
paths = (
{
closed = 1;
nodes = (
"683 1457 LINE",
"-33 0 LINE",
"223 0 LINE SMOOTH",
"253 0 OFFCURVE",
"278.833 6.83333 OFFCURVE",
"300.5 20.5 CURVE SMOOTH",
"322.167 34.1667 OFFCURVE",
"338.333 51.6667 OFFCURVE",
"349 73 CURVE",
"460 327 LINE",
"943 327 LINE",
"983 0 LINE",
"1803 0 LINE",
"1803 260 LINE",
"1271 260 LINE",
"1229 607 LINE",
"1663 607 LINE",
"1663 857 LINE",
"1199 857 LINE",
"1158 1197 LINE",
"1803 1197 LINE",
"1803 1457 LINE"
);
},
{
closed = 1;
nodes = (
"561 557 LINE",
"757 1005 LINE SMOOTH",
"770.333 1033.67 OFFCURVE",
"783.667 1065 OFFCURVE",
"797 1099 CURVE SMOOTH",
"810.333 1133 OFFCURVE",
"823.667 1169.67 OFFCURVE",
"837 1209 CURVE",
"915 557 LINE"
);
}
);
width = 1870;
}
);
leftKerningGroup = AE;
rightKerningGroup = E;
unicode = 00C6;
},
{
glyphname = B;
layers = (
{
layerId = "E173E66F-8B44-4FD8-81CD-C7310885C9A9";
name = Bold;
paths = (
{
closed = 1;
nodes = (
"141 0 LINE",
"723 0 LINE SMOOTH",
"810.333 0 OFFCURVE",
"888 11.1667 OFFCURVE",
"956 33.5 CURVE SMOOTH",
"1024 55.8333 OFFCURVE",
"1081.17 86.8333 OFFCURVE",
"1127.5 126.5 CURVE SMOOTH",
"1173.83 166.167 OFFCURVE",
"1209 212.667 OFFCURVE",
"1233 266 CURVE SMOOTH",
"1257 319.333 OFFCURVE",
"1269 377 OFFCURVE",
"1269 439 CURVE SMOOTH",
"1269 521 OFFCURVE",
"1246 588.167 OFFCURVE",
"1200 640.5 CURVE SMOOTH",
"1154 692.833 OFFCURVE",
"1083 730.667 OFFCURVE",
"987 754 CURVE",
"1031 770 OFFCURVE",
"1068.67 788.833 OFFCURVE",
"1100 810.5 CURVE SMOOTH",
"1131.33 832.167 OFFCURVE",
"1157 856.333 OFFCURVE",
"1177 883 CURVE SMOOTH",
"1197 909.667 OFFCURVE",
"1211.67 938.167 OFFCURVE",
"1221 968.5 CURVE SMOOTH",
"1230.33 998.833 OFFCURVE",
"1235 1030.33 OFFCURVE",
"1235 1063 CURVE SMOOTH",
"1235 1123 OFFCURVE",
"1224.83 1177.33 OFFCURVE",
"1204.5 1226 CURVE SMOOTH",
"1184.17 1274.67 OFFCURVE",
"1151.67 1316 OFFCURVE",
"1107 1350 CURVE SMOOTH",
"1062.33 1384 OFFCURVE",
"1004.67 1410.33 OFFCURVE",
"934 1429 CURVE SMOOTH",
"863.333 1447.67 OFFCURVE",
"777.667 1457 OFFCURVE",
"677 1457 CURVE SMOOTH",
"141 1457 LINE"
);
},
{
closed = 1;
nodes = (
"479 618 LINE",
"715 618 LINE SMOOTH",
"757.667 618 OFFCURVE",
"793 614 OFFCURVE",
"821 606 CURVE SMOOTH",
"849 598 OFFCURVE",
"871.5 586.667 OFFCURVE",
"888.5 572 CURVE SMOOTH",
"905.5 557.333 OFFCURVE",
"917.5 539.333 OFFCURVE",
"924.5 518 CURVE SMOOTH",
"931.5 496.667 OFFCURVE",
"935 472.667 OFFCURVE",
"935 446 CURVE SMOOTH",
"935 422.667 OFFCURVE",
"932 399.667 OFFCURVE",
"926 377 CURVE SMOOTH",
"920 354.333 OFFCURVE",
"909 334 OFFCURVE",
"893 316 CURVE SMOOTH",
"877 298 OFFCURVE",
"854.833 283.333 OFFCURVE",
"826.5 272 CURVE SMOOTH",
"798.167 260.667 OFFCURVE",
"761.667 255 OFFCURVE",
"717 255 CURVE SMOOTH",
"479 255 LINE"
);
},
{
closed = 1;
nodes = (
"479 844 LINE",
"479 1204 LINE",
"677 1204 LINE SMOOTH",
"715 1204 OFFCURVE",
"747.833 1201 OFFCURVE",
"775.5 1195 CURVE SMOOTH",
"803.167 1189 OFFCURVE",
"826 1179 OFFCURVE",
"844 1165 CURVE SMOOTH",
"862 1151 OFFCURVE",
"875.333 1132.5 OFFCURVE",
"884 1109.5 CURVE SMOOTH",
"892.667 1086.5 OFFCURVE",
"897 1057.67 OFFCURVE",
"897 1023 CURVE SMOOTH",
"897 987.667 OFFCURVE",
"891.5 958.333 OFFCURVE",
"880.5 935 CURVE SMOOTH",
"869.5 911.667 OFFCURVE",
"853.5 893.333 OFFCURVE",
"832.5 880 CURVE SMOOTH",
"811.5 866.667 OFFCURVE",
"786 857.333 OFFCURVE",
"756 852 CURVE SMOOTH",
"726 846.667 OFFCURVE",
"692.333 844 OFFCURVE",
"655 844 CURVE SMOOTH"
);
}
);
width = 1339;
}
);
leftKerningGroup = B;
rightKerningGroup = B;
unicode = 0042;
},
{
glyphname = C;
layers = (
{
layerId = "E173E66F-8B44-4FD8-81CD-C7310885C9A9";
name = Bold;
paths = (
{
closed = 1;
nodes = (
"1113 377 OFFCURVE",
"1103.33 374.833 OFFCURVE",
"1094 370.5 CURVE SMOOTH",
"1084.67 366.167 OFFCURVE",
"1076 360.667 OFFCURVE",
"1068 354 CURVE",
"1048 336 OFFCURVE",
"1028.33 321.167 OFFCURVE",
"1009 309.5 CURVE SMOOTH",
"989.667 297.833 OFFCURVE",
"969 288.5 OFFCURVE",
"947 281.5 CURVE SMOOTH",
"925 274.5 OFFCURVE",
"901.333 269.5 OFFCURVE",
"876 266.5 CURVE SMOOTH",
"850.667 263.5 OFFCURVE",
"822.667 262 OFFCURVE",
"792 262 CURVE SMOOTH",
"738.667 262 OFFCURVE",
"688.667 272.333 OFFCURVE",
"642 293 CURVE SMOOTH",
"595.333 313.667 OFFCURVE",
"554.5 343.833 OFFCURVE",
"519.5 383.5 CURVE SMOOTH",
"484.5 423.167 OFFCURVE",
"456.833 472 OFFCURVE",
"436.5 530 CURVE SMOOTH",
"416.167 588 OFFCURVE",
"406 654.333 OFFCURVE",
"406 729 CURVE SMOOTH",
"406 803 OFFCURVE",
"415.167 868.833 OFFCURVE",
"433.5 926.5 CURVE SMOOTH",
"451.833 984.167 OFFCURVE",
"477.833 1032.83 OFFCURVE",
"511.5 1072.5 CURVE SMOOTH",
"545.167 1112.17 OFFCURVE",
"585.167 1142.33 OFFCURVE",
"631.5 1163 CURVE SMOOTH",
"677.833 1183.67 OFFCURVE",
"729 1194 OFFCURVE",
"785 1194 CURVE SMOOTH",
"820.333 1194 OFFCURVE",
"851.167 1191.33 OFFCURVE",
"877.5 1186 CURVE SMOOTH",
"903.833 1180.67 OFFCURVE",
"926.833 1174.17 OFFCURVE",
"946.5 1166.5 CURVE SMOOTH",
"966.167 1158.83 OFFCURVE",
"983.167 1150.5 OFFCURVE",
"997.5 1141.5 CURVE SMOOTH",
"1011.83 1132.5 OFFCURVE",
"1025 1124.17 OFFCURVE",
"1037 1116.5 CURVE SMOOTH",
"1049 1108.83 OFFCURVE",
"1060.33 1102.33 OFFCURVE",
"1071 1097 CURVE SMOOTH",
"1081.67 1091.67 OFFCURVE",
"1093 1089 OFFCURVE",
"1105 1089 CURVE SMOOTH",
"1123 1089 OFFCURVE",
"1137 1092.83 OFFCURVE",
"1147 1100.5 CURVE SMOOTH",
"1157 1108.17 OFFCURVE",
"1165.67 1116.67 OFFCURVE",
"1173 1126 CURVE SMOOTH",
"1287 1279 LINE",
"1259.67 1307 OFFCURVE",
"1228.33 1333 OFFCURVE",
"1193 1357 CURVE SMOOTH",
"1157.67 1381 OFFCURVE",
"1119 1401.5 OFFCURVE",
"1077 1418.5 CURVE SMOOTH",
"1035 1435.5 OFFCURVE",
"989.833 1448.83 OFFCURVE",
"941.5 1458.5 CURVE SMOOTH",
"893.167 1468.17 OFFCURVE",
"841.667 1473 OFFCURVE",
"787 1473 CURVE SMOOTH",
"679.667 1473 OFFCURVE",
"581.333 1454.67 OFFCURVE",
"492 1418 CURVE SMOOTH",
"402.667 1381.33 OFFCURVE",
"326 1330 OFFCURVE",
"262 1264 CURVE SMOOTH",
"198 1198 OFFCURVE",
"148.333 1119.5 OFFCURVE",
"113 1028.5 CURVE SMOOTH",
"77.6666 937.5 OFFCURVE",
"59.9999 837.667 OFFCURVE",
"59.9999 729 CURVE SMOOTH",
"59.9999 622.333 OFFCURVE",
"76.3333 523.5 OFFCURVE",
"109 432.5 CURVE SMOOTH",
"141.667 341.5 OFFCURVE",
"188.5 262.833 OFFCURVE",
"249.5 196.5 CURVE SMOOTH",
"310.5 130.167 OFFCURVE",
"384.833 78.1665 OFFCURVE",
"472.5 40.4999 CURVE SMOOTH",
"560.167 2.83319 OFFCURVE",
"659.333 -16 OFFCURVE",
"770 -16 CURVE SMOOTH",
"890.667 -16 OFFCURVE",
"995.167 3.49986 OFFCURVE",
"1083.5 42.4999 CURVE SMOOTH",
"1171.83 81.4999 OFFCURVE",
"1245.33 139.333 OFFCURVE",
"1304 216 CURVE",
"1170 357 LINE SMOOTH",
"1162.67 364.333 OFFCURVE",
"1155 369.5 OFFCURVE",
"1147 372.5 CURVE SMOOTH",
"1139 375.5 OFFCURVE",
"1131 377 OFFCURVE",
"1123 377 CURVE SMOOTH"
);
}
);
width = 1311;
}
);
leftKerningGroup = C;
rightKerningGroup = C;
unicode = 0043;
},
{
glyphname = Ccedilla;
layers = (
{
layerId = "E173E66F-8B44-4FD8-81CD-C7310885C9A9";
name = Bold;
paths = (
{
closed = 1;
nodes = (
"634.333 -220 OFFCURVE",
"623 -229 OFFCURVE",
"619 -247 CURVE",
"591 -340 LINE",
"616.333 -345 OFFCURVE",
"640.5 -349 OFFCURVE",
"663.5 -352 CURVE SMOOTH",
"686.5 -355 OFFCURVE",
"711.667 -356 OFFCURVE",
"739 -356 CURVE SMOOTH",
"779 -356 OFFCURVE",
"815.5 -353 OFFCURVE",
"848.5 -346 CURVE SMOOTH",
"881.5 -339 OFFCURVE",
"909.667 -328 OFFCURVE",
"933 -315 CURVE SMOOTH",
"956.333 -302 OFFCURVE",
"974.5 -286 OFFCURVE",
"987.5 -267 CURVE SMOOTH",
"1000.5 -248 OFFCURVE",
"1007 -227 OFFCURVE",
"1007 -204 CURVE SMOOTH",
"1007 -187 OFFCURVE",
"1004.33 -171 OFFCURVE",
"999 -156 CURVE SMOOTH",
"993.667 -141 OFFCURVE",
"984.667 -127 OFFCURVE",
"972 -114 CURVE SMOOTH",
"959.333 -101 OFFCURVE",
"942.5 -89 OFFCURVE",
"921.5 -78 CURVE SMOOTH",
"900.5 -67 OFFCURVE",
"874 -57 OFFCURVE",
"842 -49 CURVE",
"852 -13 LINE",
"952 -5 OFFCURVE",
"1039.33 18.3333 OFFCURVE",
"1114 57 CURVE SMOOTH",
"1188.67 95.6667 OFFCURVE",
"1252 148.667 OFFCURVE",
"1304 216 CURVE",
"1170 357 LINE SMOOTH",
"1162.67 364.333 OFFCURVE",
"1155 369.5 OFFCURVE",
"1147 372.5 CURVE SMOOTH",
"1139 375.5 OFFCURVE",
"1131 377 OFFCURVE",
"1123 377 CURVE SMOOTH",
"1113 377 OFFCURVE",
"1103.33 374.833 OFFCURVE",
"1094 370.5 CURVE SMOOTH",
"1084.67 366.167 OFFCURVE",
"1076 360.667 OFFCURVE",
"1068 354 CURVE",
"1048 336 OFFCURVE",
"1028.33 321.167 OFFCURVE",
"1009 309.5 CURVE SMOOTH",
"989.667 297.833 OFFCURVE",
"969 288.5 OFFCURVE",
"947 281.5 CURVE SMOOTH",
"925 274.5 OFFCURVE",
"901.333 269.5 OFFCURVE",
"876 266.5 CURVE SMOOTH",
"850.667 263.5 OFFCURVE",
"822.667 262 OFFCURVE",
"792 262 CURVE SMOOTH",
"738.667 262 OFFCURVE",
"688.667 272.333 OFFCURVE",
"642 293 CURVE SMOOTH",
"595.333 313.667 OFFCURVE",
"554.5 343.833 OFFCURVE",
"519.5 383.5 CURVE SMOOTH",
"484.5 423.167 OFFCURVE",
"456.833 472 OFFCURVE",
"436.5 530 CURVE SMOOTH",
"416.167 588 OFFCURVE",
"406 654.333 OFFCURVE",
"406 729 CURVE SMOOTH",
"406 803 OFFCURVE",
"415.167 868.833 OFFCURVE",
"433.5 926.5 CURVE SMOOTH",
"451.833 984.167 OFFCURVE",
"477.833 1032.83 OFFCURVE",
"511.5 1072.5 CURVE SMOOTH",
"545.167 1112.17 OFFCURVE",
"585.167 1142.33 OFFCURVE",
"631.5 1163 CURVE SMOOTH",
"677.833 1183.67 OFFCURVE",
"729 1194 OFFCURVE",
"785 1194 CURVE SMOOTH",
"820.333 1194 OFFCURVE",
"851.167 1191.33 OFFCURVE",
"877.5 1186 CURVE SMOOTH",
"903.833 1180.67 OFFCURVE",
"926.833 1174.17 OFFCURVE",
"946.5 1166.5 CURVE SMOOTH",
"966.167 1158.83 OFFCURVE",
"983.167 1150.5 OFFCURVE",
"997.5 1141.5 CURVE SMOOTH",
"1011.83 1132.5 OFFCURVE",
"1025 1124.17 OFFCURVE",
"1037 1116.5 CURVE SMOOTH",
"1049 1108.83 OFFCURVE",
"1060.33 1102.33 OFFCURVE",
"1071 1097 CURVE SMOOTH",
"1081.67 1091.67 OFFCURVE",
"1093 1089 OFFCURVE",
"1105 1089 CURVE SMOOTH",
"1123 1089 OFFCURVE",
"1137 1092.83 OFFCURVE",
"1147 1100.5 CURVE SMOOTH",
"1157 1108.17 OFFCURVE",
"1165.67 1116.67 OFFCURVE",
"1173 1126 CURVE SMOOTH",
"1287 1279 LINE",
"1259.67 1307 OFFCURVE",
"1228.33 1333 OFFCURVE",
"1193 1357 CURVE SMOOTH",
"1157.67 1381 OFFCURVE",
"1119 1401.5 OFFCURVE",
"1077 1418.5 CURVE SMOOTH",
"1035 1435.5 OFFCURVE",
"989.833 1448.83 OFFCURVE",
"941.5 1458.5 CURVE SMOOTH",
"893.167 1468.17 OFFCURVE",
"841.667 1473 OFFCURVE",
"787 1473 CURVE SMOOTH",
"679.667 1473 OFFCURVE",
"581.333 1454.67 OFFCURVE",
"492 1418 CURVE SMOOTH",
"402.667 1381.33 OFFCURVE",
"326 1330 OFFCURVE",
"262 1264 CURVE SMOOTH",
"198 1198 OFFCURVE",
"148.333 1119.5 OFFCURVE",
"113 1028.5 CURVE SMOOTH",
"77.6666 937.5 OFFCURVE",
"59.9999 837.667 OFFCURVE",
"59.9999 729 CURVE SMOOTH",
"59.9999 629.667 OFFCURVE",
"73.9999 537.333 OFFCURVE",
"102 452 CURVE SMOOTH",
"130 366.667 OFFCURVE",
"170.5 291.333 OFFCURVE",
"223.5 226 CURVE SMOOTH",
"276.5 160.667 OFFCURVE",
"341.167 107.333 OFFCURVE",
"417.5 66 CURVE SMOOTH",
"493.833 24.6666 OFFCURVE",
"580.333 -1 OFFCURVE",
"677 -11 CURVE",
"631 -145 LINE",
"679.667 -152 OFFCURVE",
"714.167 -159 OFFCURVE",
"734.5 -166 CURVE SMOOTH",
"754.833 -173 OFFCURVE",
"765 -183 OFFCURVE",
"765 -198 CURVE SMOOTH",
"765 -205 OFFCURVE",
"761.333 -212 OFFCURVE",
"754 -218 CURVE SMOOTH",
"746.667 -224 OFFCURVE",
"734.333 -227 OFFCURVE",
"717 -227 CURVE SMOOTH",
"703 -227 OFFCURVE",
"691.333 -226 OFFCURVE",
"682 -224 CURVE SMOOTH",
"672.667 -221 OFFCURVE",
"663 -220 OFFCURVE",
"653 -220 CURVE SMOOTH"
);
}
);
width = 1311;
}
);
leftKerningGroup = C;
rightKerningGroup = C;
unicode = 00C7;
},
{
glyphname = D;
layers = (
{
layerId = "E173E66F-8B44-4FD8-81CD-C7310885C9A9";
name = Bold;
paths = (
{
closed = 1;
nodes = (
"1463 833.667 OFFCURVE",
"1444.83 930.5 OFFCURVE",
"1408.5 1019.5 CURVE SMOOTH",
"1372.17 1108.5 OFFCURVE",
"1321 1185.33 OFFCURVE",
"1255 1250 CURVE SMOOTH",
"1189 1314.67 OFFCURVE",
"1109.5 1365.33 OFFCURVE",
"1016.5 1402 CURVE SMOOTH",
"923.5 1438.67 OFFCURVE",
"820.333 1457 OFFCURVE",
"707 1457 CURVE SMOOTH",
"141 1457 LINE",
"141 0 LINE",
"707 0 LINE SMOOTH",
"820.333 0 OFFCURVE",
"923.5 18.1665 OFFCURVE",
"1016.5 54.4999 CURVE SMOOTH",
"1109.5 90.8332 OFFCURVE",
"1189 141.5 OFFCURVE",
"1255 206.5 CURVE SMOOTH",
"1321 271.5 OFFCURVE",
"1372.17 348.5 OFFCURVE",
"1408.5 437.5 CURVE SMOOTH",
"1444.83 526.5 OFFCURVE",
"1463 623.667 OFFCURVE",
"1463 729 CURVE SMOOTH"
);
},
{
closed = 1;
nodes = (
"1117 656.333 OFFCURVE",
"1107.67 591 OFFCURVE",
"1089 533 CURVE SMOOTH",
"1070.33 475 OFFCURVE",
"1043.5 425.833 OFFCURVE",
"1008.5 385.5 CURVE SMOOTH",
"973.5 345.167 OFFCURVE",
"930.667 314.167 OFFCURVE",
"880 292.5 CURVE SMOOTH",
"829.333 270.833 OFFCURVE",
"771.667 260 OFFCURVE",
"707 260 CURVE SMOOTH",
"481 260 LINE",
"481 1197 LINE",
"707 1197 LINE SMOOTH",
"771.667 1197 OFFCURVE",
"829.333 1186.17 OFFCURVE",
"880 1164.5 CURVE SMOOTH",
"930.667 1142.83 OFFCURVE",
"973.5 1111.83 OFFCURVE",
"1008.5 1071.5 CURVE SMOOTH",
"1043.5 1031.17 OFFCURVE",
"1070.33 982 OFFCURVE",
"1089 924 CURVE SMOOTH",
"1107.67 866 OFFCURVE",
"1117 801 OFFCURVE",
"1117 729 CURVE SMOOTH"
);
}
);
width = 1522;
}
);
leftKerningGroup = B;
rightKerningGroup = D;
unicode = 0044;
},
{
glyphname = Eth;
layers = (
{
layerId = "E173E66F-8B44-4FD8-81CD-C7310885C9A9";
name = Bold;
paths = (
{
closed = 1;
nodes = (
"-4 823 LINE",
"-4 639 LINE",
"162 639 LINE",
"162 0 LINE",
"728 0 LINE SMOOTH",
"841.333 0 OFFCURVE",
"944.5 18.1667 OFFCURVE",
"1037.5 54.5 CURVE SMOOTH",
"1130.5 90.8333 OFFCURVE",
"1210 141.5 OFFCURVE",
"1276 206.5 CURVE SMOOTH",
"1342 271.5 OFFCURVE",
"1393.17 348.5 OFFCURVE",
"1429.5 437.5 CURVE SMOOTH",
"1465.83 526.5 OFFCURVE",
"1484 623.667 OFFCURVE",
"1484 729 CURVE SMOOTH",
"1484 833.667 OFFCURVE",
"1465.83 930.5 OFFCURVE",
"1429.5 1019.5 CURVE SMOOTH",
"1393.17 1108.5 OFFCURVE",
"1342 1185.33 OFFCURVE",
"1276 1250 CURVE SMOOTH",
"1210 1314.67 OFFCURVE",
"1130.5 1365.33 OFFCURVE",
"1037.5 1402 CURVE SMOOTH",
"944.5 1438.67 OFFCURVE",
"841.333 1457 OFFCURVE",
"728 1457 CURVE SMOOTH",
"162 1457 LINE",
"162 823 LINE"
);
},
{
closed = 1;
nodes = (
"1138 656.333 OFFCURVE",
"1128.67 591 OFFCURVE",
"1110 533 CURVE SMOOTH",
"1091.33 475 OFFCURVE",
"1064.5 425.833 OFFCURVE",
"1029.5 385.5 CURVE SMOOTH",
"994.5 345.167 OFFCURVE",
"951.667 314.167 OFFCURVE",
"901 292.5 CURVE SMOOTH",
"850.333 270.833 OFFCURVE",
"792.667 260 OFFCURVE",
"728 260 CURVE SMOOTH",
"502 260 LINE",
"502 639 LINE",
"746 639 LINE",
"746 823 LINE",
"502 823 LINE",
"502 1197 LINE",
"728 1197 LINE SMOOTH",
"792.667 1197 OFFCURVE",
"850.333 1186.17 OFFCURVE",
"901 1164.5 CURVE SMOOTH",
"951.667 1142.83 OFFCURVE",
"994.5 1111.83 OFFCURVE",
"1029.5 1071.5 CURVE SMOOTH",
"1064.5 1031.17 OFFCURVE",
"1091.33 982 OFFCURVE",
"1110 924 CURVE SMOOTH",
"1128.67 866 OFFCURVE",
"1138 801 OFFCURVE",
"1138 729 CURVE SMOOTH"
);
}
);
width = 1543;
}
);
leftKerningGroup = B;
rightKerningGroup = D;
unicode = 00D0;
},
{
glyphname = E;
layers = (
{
layerId = "E173E66F-8B44-4FD8-81CD-C7310885C9A9";
name = Bold;
paths = (
{
closed = 1;
nodes = (
"1079 1457 LINE",
"141 1457 LINE",
"141 0 LINE",
"1079 0 LINE",
"1079 260 LINE",
"481 260 LINE",
"481 607 LINE",
"939 607 LINE",
"939 857 LINE",
"481 857 LINE",
"481 1197 LINE",
"1079 1197 LINE"
);
}
);
width = 1146;
}
);
leftKerningGroup = B;
rightKerningGroup = E;
unicode = 0045;
},
{
glyphname = Eacute;
layers = (
{
layerId = "E173E66F-8B44-4FD8-81CD-C7310885C9A9";
name = Bold;
paths = (
{
closed = 1;
nodes = (
"141 0 LINE"
);
},
{
closed = 1;
nodes = (
"1079 1457 LINE",
"141 1457 LINE",
"141 0 LINE",
"1079 0 LINE",
"1079 260 LINE",
"481 260 LINE",
"481 607 LINE",
"939 607 LINE",
"939 857 LINE",
"481 857 LINE",
"481 1197 LINE",
"1079 1197 LINE"
);
},
{
closed = 1;
nodes = (
"1086 1867 LINE",
"744 1867 LINE SMOOTH",
"728.667 1867 OFFCURVE",
"715.167 1866.67 OFFCURVE",
"703.5 1866 CURVE SMOOTH",
"691.833 1865.33 OFFCURVE",
"681.5 1863.5 OFFCURVE",
"672.5 1860.5 CURVE SMOOTH",
"663.5 1857.5 OFFCURVE",
"655.167 1852.83 OFFCURVE",
"647.5 1846.5 CURVE SMOOTH",
"639.833 1840.17 OFFCURVE",
"632 1831.67 OFFCURVE",
"624 1821 CURVE SMOOTH",
"435 1551 LINE",
"661 1551 LINE SMOOTH",
"672.333 1551 OFFCURVE",
"682.5 1551.33 OFFCURVE",
"691.5 1552 CURVE SMOOTH",
"700.5 1552.67 OFFCURVE",
"709 1554 OFFCURVE",
"717 1556 CURVE SMOOTH",
"725 1558 OFFCURVE",
"732.667 1561 OFFCURVE",
"740 1565 CURVE SMOOTH",
"747.333 1569 OFFCURVE",
"755 1574.67 OFFCURVE",
"763 1582 CURVE SMOOTH"
);
}
);
width = 1146;
}
);
leftKerningGroup = B;
rightKerningGroup = E;
unicode = 00C9;
},
{
glyphname = Ecircumflex;
layers = (
{
layerId = "E173E66F-8B44-4FD8-81CD-C7310885C9A9";
name = Bold;
paths = (
{
closed = 1;
nodes = (
"141 0 LINE"
);
},
{
closed = 1;
nodes = (
"1079 1457 LINE",
"141 1457 LINE",
"141 0 LINE",
"1079 0 LINE",
"1079 260 LINE",
"481 260 LINE",
"481 607 LINE",
"939 607 LINE",
"939 857 LINE",
"481 857 LINE",
"481 1197 LINE",
"1079 1197 LINE"
);
},
{
closed = 1;
nodes = (
"1017 1551 LINE",
"773 1829 LINE",
"491 1829 LINE",
"247 1551 LINE",
"461 1551 LINE SMOOTH",
"473 1551 OFFCURVE",
"487.667 1553.17 OFFCURVE",
"505 1557.5 CURVE SMOOTH",
"522.333 1561.83 OFFCURVE",
"540.333 1575 OFFCURVE",
"559 1597 CURVE",
"609 1675 LINE",
"627 1700 LINE",
"629.667 1696 OFFCURVE",
"632.5 1692 OFFCURVE",
"635.5 1688 CURVE SMOOTH",
"638.5 1684 OFFCURVE",
"641.667 1679.67 OFFCURVE",
"645 1675 CURVE",
"695 1597 LINE",
"713.667 1575 OFFCURVE",
"731.667 1561.83 OFFCURVE",
"749 1557.5 CURVE SMOOTH",
"766.333 1553.17 OFFCURVE",
"781 1551 OFFCURVE",
"793 1551 CURVE SMOOTH"
);
}
);
width = 1146;
}
);
leftKerningGroup = B;
rightKerningGroup = E;
unicode = 00CA;
},
{
glyphname = Edieresis;
layers = (
{
layerId = "E173E66F-8B44-4FD8-81CD-C7310885C9A9";
name = Bold;
paths = (
{
closed = 1;
nodes = (
"141 0 LINE"
);
},
{
closed = 1;
nodes = (
"1079 1457 LINE",
"141 1457 LINE",
"141 0 LINE",
"1079 0 LINE",
"1079 260 LINE",
"481 260 LINE",
"481 607 LINE",
"939 607 LINE",
"939 857 LINE",
"481 857 LINE",
"481 1197 LINE",
"1079 1197 LINE"
);
},
{
closed = 1;
nodes = (
"553 1688.67 OFFCURVE",
"548.833 1708.33 OFFCURVE",
"540.5 1727 CURVE SMOOTH",
"532.167 1745.67 OFFCURVE",
"520.667 1762 OFFCURVE",
"506 1776 CURVE SMOOTH",
"491.333 1790 OFFCURVE",
"474.333 1801 OFFCURVE",
"455 1809 CURVE SMOOTH",
"435.667 1817 OFFCURVE",
"415 1821 OFFCURVE",
"393 1821 CURVE SMOOTH",
"373 1821 OFFCURVE",
"353.833 1817 OFFCURVE",
"335.5 1809 CURVE SMOOTH",
"317.167 1801 OFFCURVE",
"301 1790 OFFCURVE",
"287 1776 CURVE SMOOTH",
"273 1762 OFFCURVE",
"261.833 1745.67 OFFCURVE",
"253.5 1727 CURVE SMOOTH",
"245.167 1708.33 OFFCURVE",
"241 1688.67 OFFCURVE",
"241 1668 CURVE SMOOTH",
"241 1646.67 OFFCURVE",
"245.167 1627 OFFCURVE",
"253.5 1609 CURVE SMOOTH",
"261.833 1591 OFFCURVE",
"273 1575.17 OFFCURVE",
"287 1561.5 CURVE SMOOTH",
"301 1547.83 OFFCURVE",
"317.167 1537.17 OFFCURVE",
"335.5 1529.5 CURVE SMOOTH",
"353.833 1521.83 OFFCURVE",
"373 1518 OFFCURVE",
"393 1518 CURVE SMOOTH",
"415 1518 OFFCURVE",
"435.667 1521.83 OFFCURVE",
"455 1529.5 CURVE SMOOTH",
"474.333 1537.17 OFFCURVE",
"491.333 1547.83 OFFCURVE",
"506 1561.5 CURVE SMOOTH",
"520.667 1575.17 OFFCURVE",
"532.167 1591 OFFCURVE",
"540.5 1609 CURVE SMOOTH",
"548.833 1627 OFFCURVE",
"553 1646.67 OFFCURVE",
"553 1668 CURVE SMOOTH"
);
},
{
closed = 1;
nodes = (
"1013 1688.67 OFFCURVE",
"1008.83 1708.33 OFFCURVE",
"1000.5 1727 CURVE SMOOTH",
"992.167 1745.67 OFFCURVE",
"981 1762 OFFCURVE",
"967 1776 CURVE SMOOTH",
"953 1790 OFFCURVE",
"936.5 1801 OFFCURVE",
"917.5 1809 CURVE SMOOTH",
"898.5 1817 OFFCURVE",
"878.333 1821 OFFCURVE",
"857 1821 CURVE SMOOTH",
"835.667 1821 OFFCURVE",
"815.5 1817 OFFCURVE",
"796.5 1809 CURVE SMOOTH",
"777.5 1801 OFFCURVE",
"761 1790 OFFCURVE",
"747 1776 CURVE SMOOTH",
"733 1762 OFFCURVE",
"721.833 1745.67 OFFCURVE",
"713.5 1727 CURVE SMOOTH",
"705.167 1708.33 OFFCURVE",
"701 1688.67 OFFCURVE",
"701 1668 CURVE SMOOTH",
"701 1646.67 OFFCURVE",
"705.167 1627 OFFCURVE",
"713.5 1609 CURVE SMOOTH",
"721.833 1591 OFFCURVE",
"733 1575.17 OFFCURVE",
"747 1561.5 CURVE SMOOTH",
"761 1547.83 OFFCURVE",
"777.5 1537.17 OFFCURVE",
"796.5 1529.5 CURVE SMOOTH",
"815.5 1521.83 OFFCURVE",
"835.667 1518 OFFCURVE",
"857 1518 CURVE SMOOTH",
"878.333 1518 OFFCURVE",
"898.5 1521.83 OFFCURVE",
"917.5 1529.5 CURVE SMOOTH",
"936.5 1537.17 OFFCURVE",
"953 1547.83 OFFCURVE",
"967 1561.5 CURVE SMOOTH",
"981 1575.17 OFFCURVE",
"992.167 1591 OFFCURVE",
"1000.5 1609 CURVE SMOOTH",
"1008.83 1627 OFFCURVE",
"1013 1646.67 OFFCURVE",
"1013 1668 CURVE SMOOTH"
);
}
);
width = 1146;
}
);
leftKerningGroup = B;
rightKerningGroup = E;
unicode = 00CB;
},
{
glyphname = Egrave;
layers = (
{
layerId = "E173E66F-8B44-4FD8-81CD-C7310885C9A9";
name = Bold;
paths = (
{
closed = 1;
nodes = (
"141 0 LINE"
);
},
{
closed = 1;
nodes = (
"1079 1457 LINE",
"141 1457 LINE",
"141 0 LINE",
"1079 0 LINE",
"1079 260 LINE",
"481 260 LINE",
"481 607 LINE",
"939 607 LINE",
"939 857 LINE",
"481 857 LINE",
"481 1197 LINE",
"1079 1197 LINE"
);
},
{
closed = 1;
nodes = (
"154 1867 LINE",
"479 1580 LINE SMOOTH",
"487 1572.67 OFFCURVE",
"494.5 1567.17 OFFCURVE",
"501.5 1563.5 CURVE SMOOTH",
"508.5 1559.83 OFFCURVE",
"515.833 1557 OFFCURVE",
"523.5 1555 CURVE SMOOTH",
"531.167 1553 OFFCURVE",
"539.333 1551.83 OFFCURVE",
"548 1551.5 CURVE SMOOTH",
"556.667 1551.17 OFFCURVE",
"567 1551 OFFCURVE",
"579 1551 CURVE SMOOTH",
"805 1551 LINE",
"596 1821 LINE SMOOTH",
"587.333 1831.67 OFFCURVE",
"579.167 1840 OFFCURVE",
"571.5 1846 CURVE SMOOTH",
"563.833 1852 OFFCURVE",
"555.5 1856.5 OFFCURVE",
"546.5 1859.5 CURVE SMOOTH",
"537.5 1862.5 OFFCURVE",
"527.333 1864.5 OFFCURVE",
"516 1865.5 CURVE SMOOTH",
"504.667 1866.5 OFFCURVE",
"491.333 1867 OFFCURVE",
"476 1867 CURVE SMOOTH"
);
}
);
width = 1146;
}
);
leftKerningGroup = B;
rightKerningGroup = E;
unicode = 00C8;
},
{
glyphname = F;
layers = (
{
layerId = "E173E66F-8B44-4FD8-81CD-C7310885C9A9";
name = Bold;
paths = (
{
closed = 1;
nodes = (
"1079 1457 LINE",
"141 1457 LINE",
"141 0 LINE",
"481 0 LINE",
"481 567 LINE",
"979 567 LINE",
"979 828 LINE",
"481 828 LINE",
"481 1197 LINE",
"1079 1197 LINE"
);
}
);
width = 1133;
}
);
leftKerningGroup = B;
rightKerningGroup = F;
unicode = 0046;
},
{
glyphname = G;
layers = (
{
layerId = "E173E66F-8B44-4FD8-81CD-C7310885C9A9";
name = Bold;
paths = (
{
closed = 1;
nodes = (
"1359 140 LINE",
"1359 755 LINE",
"841 755 LINE",
"841 569 LINE SMOOTH",
"841 551.667 OFFCURVE",
"847 537.333 OFFCURVE",
"859 526 CURVE SMOOTH",
"871 514.667 OFFCURVE",
"887.667 509 OFFCURVE",
"909 509 CURVE SMOOTH",
"1053 509 LINE",
"1053 288 LINE",
"1021.67 274.667 OFFCURVE",
"989.5 264 OFFCURVE",
"956.5 256 CURVE SMOOTH",
"923.5 248 OFFCURVE",
"886.667 244 OFFCURVE",
"846 244 CURVE SMOOTH",
"780 244 OFFCURVE",
"719.833 254.833 OFFCURVE",
"665.5 276.5 CURVE SMOOTH",
"611.167 298.167 OFFCURVE",
"564.5 329.667 OFFCURVE",
"525.5 371 CURVE SMOOTH",
"486.5 412.333 OFFCURVE",
"456.333 463 OFFCURVE",
"435 523 CURVE SMOOTH",
"413.667 583 OFFCURVE",
"403 651.667 OFFCURVE",
"403 729 CURVE SMOOTH",
"403 799 OFFCURVE",
"412.667 862.5 OFFCURVE",
"432 919.5 CURVE SMOOTH",
"451.333 976.5 OFFCURVE",
"478.833 1025.33 OFFCURVE",
"514.5 1066 CURVE SMOOTH",
"550.167 1106.67 OFFCURVE",
"593.333 1138.17 OFFCURVE",
"644 1160.5 CURVE SMOOTH",
"694.667 1182.83 OFFCURVE",
"751.667 1194 OFFCURVE",
"815 1194 CURVE SMOOTH",
"849 1194 OFFCURVE",
"879.667 1192.33 OFFCURVE",
"907 1189 CURVE SMOOTH",
"934.333 1185.67 OFFCURVE",
"960.333 1180.33 OFFCURVE",
"985 1173 CURVE SMOOTH",
"1009.67 1165.67 OFFCURVE",
"1033.83 1156.17 OFFCURVE",
"1057.5 1144.5 CURVE SMOOTH",
"1081.17 1132.83 OFFCURVE",
"1106.33 1119 OFFCURVE",
"1133 1103 CURVE SMOOTH",
"1161 1085.67 OFFCURVE",
"1187.17 1079.67 OFFCURVE",
"1211.5 1085 CURVE SMOOTH",
"1235.83 1090.33 OFFCURVE",
"1255.67 1104.67 OFFCURVE",
"1271 1128 CURVE SMOOTH",
"1369 1277 LINE",
"1339.67 1305 OFFCURVE",
"1306.33 1331 OFFCURVE",
"1269 1355 CURVE SMOOTH",
"1231.67 1379 OFFCURVE",
"1190.5 1399.67 OFFCURVE",
"1145.5 1417 CURVE SMOOTH",
"1100.5 1434.33 OFFCURVE",
"1051.33 1448 OFFCURVE",
"998 1458 CURVE SMOOTH",
"944.667 1468 OFFCURVE",
"887.667 1473 OFFCURVE",
"827 1473 CURVE SMOOTH",
"709.667 1473 OFFCURVE",
"603.5 1454.67 OFFCURVE",
"508.5 1418 CURVE SMOOTH",
"413.5 1381.33 OFFCURVE",
"332.5 1330 OFFCURVE",
"265.5 1264 CURVE SMOOTH",
"198.5 1198 OFFCURVE",
"147 1119.5 OFFCURVE",
"111 1028.5 CURVE SMOOTH",
"74.9999 937.5 OFFCURVE",
"56.9999 837.667 OFFCURVE",
"56.9999 729 CURVE SMOOTH",
"56.9999 622.333 OFFCURVE",
"75.9999 523.5 OFFCURVE",
"114 432.5 CURVE SMOOTH",
"152 341.5 OFFCURVE",
"206 262.833 OFFCURVE",
"276 196.5 CURVE SMOOTH",
"346 130.167 OFFCURVE",
"430.167 78.1667 OFFCURVE",
"528.5 40.5 CURVE SMOOTH",
"626.833 2.83331 OFFCURVE",
"736 -16 OFFCURVE",
"856 -16 CURVE SMOOTH",
"948 -16 OFFCURVE",
"1036.17 -4 OFFCURVE",
"1120.5 21 CURVE SMOOTH",
"1204.83 45.6667 OFFCURVE",
"1284.33 85.3333 OFFCURVE",
"1359 140 CURVE"
);
}
);
width = 1445;
}
);
leftKerningGroup = C;
rightKerningGroup = G;
unicode = 0047;
},
{
glyphname = H;
layers = (
{
layerId = "E173E66F-8B44-4FD8-81CD-C7310885C9A9";
name = Bold;
paths = (
{
closed = 1;
nodes = (
"1413 0 LINE",
"1413 1457 LINE",
"1073 1457 LINE",
"1073 848 LINE",
"481 848 LINE",
"481 1457 LINE",
"141 1457 LINE",
"141 0 LINE",
"481 0 LINE",
"481 616 LINE",
"1073 616 LINE",
"1073 0 LINE"
);
}
);
width = 1554;
}
);
leftKerningGroup = B;
rightKerningGroup = H;
unicode = 0048;
},
{
glyphname = I;
layers = (
{
layerId = "E173E66F-8B44-4FD8-81CD-C7310885C9A9";
name = Bold;
paths = (
{
closed = 1;
nodes = (
"481 0 LINE",
"481 1457 LINE",
"141 1457 LINE",
"141 0 LINE"
);
}
);
width = 622;
}
);
leftKerningGroup = B;
rightKerningGroup = H;
unicode = 0049;
},
{
glyphname = Iacute;
layers = (
{
layerId = "E173E66F-8B44-4FD8-81CD-C7310885C9A9";
name = Bold;
paths = (
{
closed = 1;
nodes = (
"123 0 LINE"
);
},
{
closed = 1;
nodes = (
"481 0 LINE",
"481 1457 LINE",
"141 1457 LINE",
"141 0 LINE"
);
},
{
closed = 1;
nodes = (
"774 1867 LINE",
"432 1867 LINE SMOOTH",
"416.667 1867 OFFCURVE",
"403.167 1866.67 OFFCURVE",
"391.5 1866 CURVE SMOOTH",
"379.833 1865.33 OFFCURVE",
"369.5 1863.5 OFFCURVE",
"360.5 1860.5 CURVE SMOOTH",
"351.5 1857.5 OFFCURVE",
"343.167 1852.83 OFFCURVE",
"335.5 1846.5 CURVE SMOOTH",
"327.833 1840.17 OFFCURVE",
"320 1831.67 OFFCURVE",
"312 1821 CURVE SMOOTH",
"123 1551 LINE",
"349 1551 LINE SMOOTH",
"360.333 1551 OFFCURVE",
"370.5 1551.33 OFFCURVE",
"379.5 1552 CURVE SMOOTH",
"388.5 1552.67 OFFCURVE",
"397 1554 OFFCURVE",
"405 1556 CURVE SMOOTH",
"413 1558 OFFCURVE",
"420.667 1561 OFFCURVE",
"428 1565 CURVE SMOOTH",
"435.333 1569 OFFCURVE",
"443 1574.67 OFFCURVE",
"451 1582 CURVE SMOOTH"
);
}
);
width = 622;
}
);
leftKerningGroup = B;
rightKerningGroup = H;
unicode = 00CD;
},
{
glyphname = Icircumflex;
layers = (
{
layerId = "E173E66F-8B44-4FD8-81CD-C7310885C9A9";
name = Bold;
paths = (
{
closed = 1;
nodes = (
"0 0 LINE"
);
},
{
closed = 1;
nodes = (
"481 0 LINE",
"481 1457 LINE",
"141 1457 LINE",
"141 0 LINE"
);
},
{
closed = 1;
nodes = (
"705 1551 LINE",
"461 1829 LINE",
"179 1829 LINE",
"-65 1551 LINE",
"149 1551 LINE SMOOTH",
"161 1551 OFFCURVE",
"175.667 1553.17 OFFCURVE",
"193 1557.5 CURVE SMOOTH",
"210.333 1561.83 OFFCURVE",
"228.333 1575 OFFCURVE",
"247 1597 CURVE",
"297 1675 LINE",
"315 1700 LINE",
"317.667 1696 OFFCURVE",
"320.5 1692 OFFCURVE",
"323.5 1688 CURVE SMOOTH",
"326.5 1684 OFFCURVE",
"329.667 1679.67 OFFCURVE",
"333 1675 CURVE",
"383 1597 LINE",
"401.667 1575 OFFCURVE",
"419.667 1561.83 OFFCURVE",
"437 1557.5 CURVE SMOOTH",
"454.333 1553.17 OFFCURVE",
"469 1551 OFFCURVE",
"481 1551 CURVE SMOOTH"
);
}
);
width = 622;
}
);
leftKerningGroup = B;
rightKerningGroup = H;
unicode = 00CE;
},
{
glyphname = Idieresis;
layers = (
{
layerId = "E173E66F-8B44-4FD8-81CD-C7310885C9A9";
name = Bold;
paths = (
{
closed = 1;
nodes = (
"0 0 LINE"
);
},
{
closed = 1;
nodes = (
"481 0 LINE",
"481 1457 LINE",
"141 1457 LINE",
"141 0 LINE"
);
},
{
closed = 1;
nodes = (
"241 1688.67 OFFCURVE",
"236.833 1708.33 OFFCURVE",
"228.5 1727 CURVE SMOOTH",
"220.167 1745.67 OFFCURVE",
"208.667 1762 OFFCURVE",
"194 1776 CURVE SMOOTH",
"179.333 1790 OFFCURVE",
"162.333 1801 OFFCURVE",
"143 1809 CURVE SMOOTH",
"123.667 1817 OFFCURVE",
"103 1821 OFFCURVE",
"81 1821 CURVE SMOOTH",
"61 1821 OFFCURVE",
"41.8333 1817 OFFCURVE",
"23.5 1809 CURVE SMOOTH",
"5.16667 1801 OFFCURVE",
"-11 1790 OFFCURVE",
"-25 1776 CURVE SMOOTH",
"-39 1762 OFFCURVE",
"-50 1745.67 OFFCURVE",
"-59 1727 CURVE SMOOTH",
"-67 1708.33 OFFCURVE",
"-71 1688.67 OFFCURVE",
"-71 1668 CURVE SMOOTH",
"-71 1646.67 OFFCURVE",
"-67 1627 OFFCURVE",
"-59 1609 CURVE SMOOTH",
"-50 1591 OFFCURVE",
"-39 1575.17 OFFCURVE",
"-25 1561.5 CURVE SMOOTH",
"-11 1547.83 OFFCURVE",
"5.16667 1537.17 OFFCURVE",
"23.5 1529.5 CURVE SMOOTH",
"41.8333 1521.83 OFFCURVE",
"61 1518 OFFCURVE",
"81 1518 CURVE SMOOTH",
"103 1518 OFFCURVE",
"123.667 1521.83 OFFCURVE",
"143 1529.5 CURVE SMOOTH",
"162.333 1537.17 OFFCURVE",
"179.333 1547.83 OFFCURVE",
"194 1561.5 CURVE SMOOTH",
"208.667 1575.17 OFFCURVE",
"220.167 1591 OFFCURVE",
"228.5 1609 CURVE SMOOTH",
"236.833 1627 OFFCURVE",
"241 1646.67 OFFCURVE",
"241 1668 CURVE SMOOTH"
);
},
{
closed = 1;
nodes = (
"701 1688.67 OFFCURVE",
"696.833 1708.33 OFFCURVE",
"688.5 1727 CURVE SMOOTH",
"680.167 1745.67 OFFCURVE",
"669 1762 OFFCURVE",
"655 1776 CURVE SMOOTH",
"641 1790 OFFCURVE",
"624.5 1801 OFFCURVE",
"605.5 1809 CURVE SMOOTH",
"586.5 1817 OFFCURVE",
"566.333 1821 OFFCURVE",
"545 1821 CURVE SMOOTH",
"523.667 1821 OFFCURVE",
"503.5 1817 OFFCURVE",
"484.5 1809 CURVE SMOOTH",
"465.5 1801 OFFCURVE",
"449 1790 OFFCURVE",
"435 1776 CURVE SMOOTH",
"421 1762 OFFCURVE",
"409.833 1745.67 OFFCURVE",
"401.5 1727 CURVE SMOOTH",
"393.167 1708.33 OFFCURVE",
"389 1688.67 OFFCURVE",
"389 1668 CURVE SMOOTH",
"389 1646.67 OFFCURVE",
"393.167 1627 OFFCURVE",
"401.5 1609 CURVE SMOOTH",
"409.833 1591 OFFCURVE",
"421 1575.17 OFFCURVE",
"435 1561.5 CURVE SMOOTH",
"449 1547.83 OFFCURVE",
"465.5 1537.17 OFFCURVE",
"484.5 1529.5 CURVE SMOOTH",
"503.5 1521.83 OFFCURVE",
"523.667 1518 OFFCURVE",
"545 1518 CURVE SMOOTH",
"566.333 1518 OFFCURVE",
"586.5 1521.83 OFFCURVE",
"605.5 1529.5 CURVE SMOOTH",
"624.5 1537.17 OFFCURVE",
"641 1547.83 OFFCURVE",
"655 1561.5 CURVE SMOOTH",
"669 1575.17 OFFCURVE",
"680.167 1591 OFFCURVE",
"688.5 1609 CURVE SMOOTH",
"696.833 1627 OFFCURVE",
"701 1646.67 OFFCURVE",
"701 1668 CURVE SMOOTH"
);
}
);
width = 622;
}
);
leftKerningGroup = B;
rightKerningGroup = H;
unicode = 00CF;
},
{
glyphname = Igrave;
layers = (
{
layerId = "E173E66F-8B44-4FD8-81CD-C7310885C9A9";
name = Bold;
paths = (
{
closed = 1;
nodes = (
"0 0 LINE"
);
},
{
closed = 1;
nodes = (
"481 0 LINE",
"481 1457 LINE",
"141 1457 LINE",
"141 0 LINE"
);
},
{
closed = 1;
nodes = (
"-158 1867 LINE",
"167 1580 LINE SMOOTH",
"175 1572.67 OFFCURVE",
"182.5 1567.17 OFFCURVE",
"189.5 1563.5 CURVE SMOOTH",
"196.5 1559.83 OFFCURVE",
"203.833 1557 OFFCURVE",
"211.5 1555 CURVE SMOOTH",
"219.167 1553 OFFCURVE",
"227.333 1551.83 OFFCURVE",
"236 1551.5 CURVE SMOOTH",
"244.667 1551.17 OFFCURVE",
"255 1551 OFFCURVE",
"267 1551 CURVE SMOOTH",
"493 1551 LINE",
"284 1821 LINE SMOOTH",
"275.333 1831.67 OFFCURVE",
"267.167 1840 OFFCURVE",
"259.5 1846 CURVE SMOOTH",
"251.833 1852 OFFCURVE",
"243.5 1856.5 OFFCURVE",
"234.5 1859.5 CURVE SMOOTH",
"225.5 1862.5 OFFCURVE",
"215.333 1864.5 OFFCURVE",
"204 1865.5 CURVE SMOOTH",
"192.667 1866.5 OFFCURVE",
"179.333 1867 OFFCURVE",
"164 1867 CURVE SMOOTH"
);
}
);
width = 622;
}
);
leftKerningGroup = B;
rightKerningGroup = H;
unicode = 00CC;
},
{
glyphname = J;
lastChange = "2014-08-19 02:15:44 -0500";
layers = (
{
layerId = "E173E66F-8B44-4FD8-81CD-C7310885C9A9";
name = Bold;
paths = (
{
closed = 1;
nodes = (
"695 1457 LINE",
"695 521 LINE SMOOTH",
"695 471 OFFCURVE",
"691 429 OFFCURVE",
"683 395 CURVE SMOOTH",
"675 361 OFFCURVE",
"663 334 OFFCURVE",
"647 313 CURVE SMOOTH",
"631 292 OFFCURVE",
"611 277 OFFCURVE",
"587 268 CURVE SMOOTH",
"563 260 OFFCURVE",
"537 255 OFFCURVE",
"507 254 CURVE",
"479 257 OFFCURVE",
"455 262 OFFCURVE",
"432 271 CURVE SMOOTH",
"399 283 OFFCURVE",
"370 297 OFFCURVE",
"344 313 CURVE SMOOTH",
"318 328 OFFCURVE",
"295 342 OFFCURVE",
"275 355 CURVE",
"255 367 OFFCURVE",
"234 374 OFFCURVE",
"214 374 CURVE SMOOTH",
"199 374 OFFCURVE",
"185 370 OFFCURVE",
"172 362 CURVE SMOOTH",
"159 354 OFFCURVE",
"148 345 OFFCURVE",
"140 334 CURVE",
"40 176 LINE",
"69 147 OFFCURVE",
"103 121 OFFCURVE",
"141 98 CURVE SMOOTH",
"180 74 OFFCURVE",
"221 54 OFFCURVE",
"265 37 CURVE SMOOTH",
"309 20 OFFCURVE",
"355 7 OFFCURVE",
"402 -2 CURVE SMOOTH",
"445 -10 OFFCURVE",
"488 -15 OFFCURVE",
"529 -16 CURVE SMOOTH",
"537 -16 LINE SMOOTH",
"538 -16 OFFCURVE",
"538 -16 OFFCURVE",
"539 -16 CURVE SMOOTH",
"540 -16 LINE SMOOTH",
"623 -16 OFFCURVE",
"695 -3 OFFCURVE",
"756 24 CURVE SMOOTH",
"818 50 OFFCURVE",
"870 87 OFFCURVE",
"911 135 CURVE SMOOTH",
"952 182 OFFCURVE",
"982 239 OFFCURVE",
"1003 306 CURVE SMOOTH",
"1023 373 OFFCURVE",
"1033 447 OFFCURVE",
"1033 528 CURVE SMOOTH",
"1033 1457 LINE"
);
}
);
width = 1160;
}
);
leftKerningGroup = J;
rightKerningGroup = J;
unicode = 004A;
},
{
glyphname = K;
lastChange = "2014-08-18 22:52:35 -0500";
layers = (
{
layerId = "E173E66F-8B44-4FD8-81CD-C7310885C9A9";
name = Bold;
paths = (
{
closed = 1;
nodes = (
"479 867 LINE",
"479 1457 LINE",
"141 1457 LINE",
"141 0 LINE",
"479 0 LINE",
"479 620 LINE",
"561 620 LINE SMOOTH",
"592.333 620 OFFCURVE",
"617.167 616.167 OFFCURVE",
"635.5 608.5 CURVE SMOOTH",
"653.833 600.833 OFFCURVE",
"669 587.667 OFFCURVE",
"681 569 CURVE SMOOTH",
"1011 61.9999 LINE SMOOTH",
"1017.67 51.9999 OFFCURVE",
"1024.67 43.1666 OFFCURVE",
"1032 35.4999 CURVE SMOOTH",
"1039.33 27.8333 OFFCURVE",
"1048 21.3333 OFFCURVE",
"1058 15.9999 CURVE SMOOTH",
"1068 10.6666 OFFCURVE",
"1079.83 6.66661 OFFCURVE",
"1093.5 3.99994 CURVE SMOOTH",
"1107.17 1.33327 OFFCURVE",
"1087 -6 OFFCURVE",
"1128 -6 CURVE",
"1445 -6 LINE",
"1005 676 LINE SMOOTH",
"987 702.667 OFFCURVE",
"967.667 724.333 OFFCURVE",
"947 741 CURVE SMOOTH",
"926.333 757.667 OFFCURVE",
"903.333 770.667 OFFCURVE",
"878 780 CURVE",
"913.333 798 OFFCURVE",
"946.333 827.333 OFFCURVE",
"977 868 CURVE SMOOTH",
"1409 1457 LINE",
"1115 1457 LINE SMOOTH",
"1081.67 1457 OFFCURVE",
"1053.83 1452.17 OFFCURVE",
"1031.5 1442.5 CURVE SMOOTH",
"1009.17 1432.83 OFFCURVE",
"988.333 1415.33 OFFCURVE",
"969 1390 CURVE",
"641 914 LINE SMOOTH",
"619 882.667 OFFCURVE",
"583 867 OFFCURVE",
"533 867 CURVE SMOOTH"
);
}
);
width = 1413;
}
);
leftKerningGroup = B;
rightKerningGroup = K;
unicode = 004B;
},
{
glyphname = L;
layers = (
{
layerId = "E173E66F-8B44-4FD8-81CD-C7310885C9A9";
name = Bold;
paths = (
{
closed = 1;
nodes = (
"479 270 LINE",
"479 1457 LINE",
"141 1457 LINE",
"141 0 LINE",
"1019 0 LINE",
"1019 270 LINE"
);
}
);
width = 1050;
}
);
leftKerningGroup = B;
rightKerningGroup = L;
unicode = 004C;
},
{
glyphname = M;
layers = (
{
layerId = "E173E66F-8B44-4FD8-81CD-C7310885C9A9";
name = Bold;
paths = (
{
closed = 1;
nodes = (
"886 666 LINE",
"511 1405 LINE SMOOTH",
"504.333 1417.67 OFFCURVE",
"497.5 1427.5 OFFCURVE",
"490.5 1434.5 CURVE SMOOTH",
"483.5 1441.5 OFFCURVE",
"475.667 1446.67 OFFCURVE",
"467 1450 CURVE SMOOTH",
"458.333 1453.33 OFFCURVE",
"448.5 1455.33 OFFCURVE",
"437.5 1456 CURVE SMOOTH",
"426.5 1456.67 OFFCURVE",
"413.667 1457 OFFCURVE",
"399 1457 CURVE SMOOTH",
"141 1457 LINE",
"141 0 LINE",
"439 0 LINE",
"439 838 LINE SMOOTH",
"439 857.333 OFFCURVE",
"438.333 878.5 OFFCURVE",
"437 901.5 CURVE SMOOTH",
"435.667 924.5 OFFCURVE",
"433.667 947.667 OFFCURVE",
"431 971 CURVE",
"819 221 LINE SMOOTH",
"831 197.667 OFFCURVE",
"847.167 180 OFFCURVE",
"867.5 168 CURVE SMOOTH",
"887.833 156 OFFCURVE",
"911 150 OFFCURVE",
"937 150 CURVE SMOOTH",
"983 150 LINE SMOOTH",
"1009 150 OFFCURVE",
"1032.17 156 OFFCURVE",
"1052.5 168 CURVE SMOOTH",
"1072.83 180 OFFCURVE",
"1089 197.667 OFFCURVE",
"1101 221 CURVE SMOOTH",
"1487 970 LINE",
"1483 922.667 OFFCURVE",
"1481 878.667 OFFCURVE",
"1481 838 CURVE SMOOTH",
"1481 0 LINE",
"1779 0 LINE",
"1779 1457 LINE",
"1521 1457 LINE SMOOTH",
"1506.33 1457 OFFCURVE",
"1493.5 1456.67 OFFCURVE",
"1482.5 1456 CURVE SMOOTH",
"1471.5 1455.33 OFFCURVE",
"1461.67 1453.33 OFFCURVE",
"1453 1450 CURVE SMOOTH",
"1444.33 1446.67 OFFCURVE",
"1436.5 1441.5 OFFCURVE",
"1429.5 1434.5 CURVE SMOOTH",
"1422.5 1427.5 OFFCURVE",
"1415.67 1417.67 OFFCURVE",
"1409 1405 CURVE SMOOTH",
"1035 669 LINE SMOOTH",
"1021 643.667 OFFCURVE",
"1007.83 617 OFFCURVE",
"995.5 589 CURVE SMOOTH",
"983.167 561 OFFCURVE",
"971.333 532.333 OFFCURVE",
"960 503 CURVE",
"948.667 531.667 OFFCURVE",
"936.833 559.667 OFFCURVE",
"924.5 587 CURVE SMOOTH",
"912.167 614.333 OFFCURVE",
"899.333 640.667 OFFCURVE",
"886 666 CURVE"
);
}
);
width = 1920;
}
);
leftKerningGroup = B;
rightKerningGroup = H;
unicode = 004D;
},
{
glyphname = N;
lastChange = "2014-08-18 22:44:09 -0500";
layers = (
{
layerId = "E173E66F-8B44-4FD8-81CD-C7310885C9A9";
name = Bold;
paths = (
{
closed = 1;
nodes = (
"319 1457 LINE",
"141 1457 LINE",
"141 0 LINE",
"439 0 LINE",
"439 781 LINE SMOOTH",
"439 802.333 OFFCURVE",
"438.333 825.167 OFFCURVE",
"437 849.5 CURVE SMOOTH",
"435.667 873.833 OFFCURVE",
"434 898.667 OFFCURVE",
"432 924 CURVE",
"1119 55.9999 LINE SMOOTH",
"1136.33 35.3333 OFFCURVE",
"1153.83 20.8333 OFFCURVE",
"1171.5 12.4999 CURVE SMOOTH",
"1189.17 4.16661 OFFCURVE",
"1172 -5 OFFCURVE",
"1221 0 CURVE",
"1413 -6 LINE",
"1413 1457 LINE",
"1115 1457 LINE",
"1115 686 LINE SMOOTH",
"1115 662.667 OFFCURVE",
"1115.67 637.833 OFFCURVE",
"1117 611.5 CURVE SMOOTH",
"1118.33 585.167 OFFCURVE",
"1120.33 558 OFFCURVE",
"1123 530 CURVE",
"431 1405 LINE SMOOTH",
"421.667 1416.33 OFFCURVE",
"413.333 1425.33 OFFCURVE",
"406 1432 CURVE SMOOTH",
"398.667 1438.67 OFFCURVE",
"391 1443.83 OFFCURVE",
"383 1447.5 CURVE SMOOTH",
"375 1451.17 OFFCURVE",
"366 1453.67 OFFCURVE",
"356 1455 CURVE SMOOTH",
"346 1456.33 OFFCURVE",
"333.667 1457 OFFCURVE",
"319 1457 CURVE SMOOTH"
);
}
);
width = 1554;
}
);
leftKerningGroup = B;
rightKerningGroup = H;
unicode = 004E;
},
{
glyphname = Ntilde;
lastChange = "2014-08-18 22:44:34 -0500";
layers = (
{
layerId = "E173E66F-8B44-4FD8-81CD-C7310885C9A9";
name = Bold;
paths = (
{
closed = 1;
nodes = (
"885.667 1729 OFFCURVE",
"868.667 1734 OFFCURVE",
"852 1744 CURVE SMOOTH",
"835.333 1754 OFFCURVE",
"817 1765.17 OFFCURVE",
"797 1777.5 CURVE SMOOTH",
"777 1789.83 OFFCURVE",
"753.667 1801 OFFCURVE",
"727 1811 CURVE SMOOTH",
"700.333 1821 OFFCURVE",
"668.333 1826 OFFCURVE",
"631 1826 CURVE SMOOTH",
"593.667 1826 OFFCURVE",
"560.833 1818 OFFCURVE",
"532.5 1802 CURVE SMOOTH",
"504.167 1786 OFFCURVE",
"480.167 1764.67 OFFCURVE",
"460.5 1738 CURVE SMOOTH",
"440.833 1711.33 OFFCURVE",
"426 1681 OFFCURVE",
"416 1647 CURVE SMOOTH",
"406 1613 OFFCURVE",
"401 1577.67 OFFCURVE",
"401 1541 CURVE",
"591 1541 LINE",
"591 1550.33 OFFCURVE",
"592.333 1560.33 OFFCURVE",
"595 1571 CURVE SMOOTH",
"597.667 1581.67 OFFCURVE",
"602 1591.5 OFFCURVE",
"608 1600.5 CURVE SMOOTH",
"614 1609.5 OFFCURVE",
"622 1617 OFFCURVE",
"632 1623 CURVE SMOOTH",
"642 1629 OFFCURVE",
"654.333 1632 OFFCURVE",
"669 1632 CURVE SMOOTH",
"686.333 1632 OFFCURVE",
"703.333 1627 OFFCURVE",
"720 1617 CURVE SMOOTH",
"736.667 1607 OFFCURVE",
"755.167 1595.83 OFFCURVE",
"775.5 1583.5 CURVE SMOOTH",
"795.833 1571.17 OFFCURVE",
"819.167 1560 OFFCURVE",
"845.5 1550 CURVE SMOOTH",
"871.833 1540 OFFCURVE",
"903.667 1535 OFFCURVE",
"941 1535 CURVE SMOOTH",
"978.333 1535 OFFCURVE",
"1011.33 1542.83 OFFCURVE",
"1040 1558.5 CURVE SMOOTH",
"1068.67 1574.17 OFFCURVE",
"1092.67 1595.17 OFFCURVE",
"1112 1621.5 CURVE SMOOTH",
"1131.33 1647.83 OFFCURVE",
"1146 1678 OFFCURVE",
"1156 1712 CURVE SMOOTH",
"1166 1746 OFFCURVE",
"1171 1781.33 OFFCURVE",
"1171 1818 CURVE",
"983 1818 LINE",
"983 1808.67 OFFCURVE",
"981.5 1798.83 OFFCURVE",
"978.5 1788.5 CURVE SMOOTH",
"975.5 1778.17 OFFCURVE",
"970.833 1768.5 OFFCURVE",
"964.5 1759.5 CURVE SMOOTH",
"958.167 1750.5 OFFCURVE",
"950 1743.17 OFFCURVE",
"940 1737.5 CURVE SMOOTH",
"930 1731.83 OFFCURVE",
"917.667 1729 OFFCURVE",
"903 1729 CURVE SMOOTH"
);
},
{
closed = 1;
nodes = (
"319 1457 LINE",
"141 1457 LINE",
"141 0 LINE",
"439 0 LINE",
"439 781 LINE SMOOTH",
"439 802.333 OFFCURVE",
"438.333 825.167 OFFCURVE",
"437 849.5 CURVE SMOOTH",
"435.667 873.833 OFFCURVE",
"434 898.667 OFFCURVE",
"432 924 CURVE",
"1119 56 LINE SMOOTH",
"1136.33 35.333 OFFCURVE",
"1153.83 20.833 OFFCURVE",
"1171.5 12.5 CURVE SMOOTH",
"1189.17 4.167 OFFCURVE",
"1172 -5 OFFCURVE",
"1221 0 CURVE",
"1413 -6 LINE",
"1413 1457 LINE",
"1115 1457 LINE",
"1115 686 LINE SMOOTH",
"1115 662.667 OFFCURVE",
"1115.67 637.833 OFFCURVE",
"1117 611.5 CURVE SMOOTH",
"1118.33 585.167 OFFCURVE",
"1120.33 558 OFFCURVE",
"1123 530 CURVE",
"431 1405 LINE SMOOTH",
"421.667 1416.33 OFFCURVE",
"413.333 1425.33 OFFCURVE",
"406 1432 CURVE SMOOTH",
"398.667 1438.67 OFFCURVE",
"391 1443.83 OFFCURVE",
"383 1447.5 CURVE SMOOTH",
"375 1451.17 OFFCURVE",
"366 1453.67 OFFCURVE",
"356 1455 CURVE SMOOTH",
"346 1456.33 OFFCURVE",
"333.667 1457 OFFCURVE",
"319 1457 CURVE SMOOTH"
);
}
);
width = 1554;
}
);
leftKerningGroup = B;
rightKerningGroup = H;
unicode = 00D1;
},
{
glyphname = O;
layers = (
{
layerId = "E173E66F-8B44-4FD8-81CD-C7310885C9A9";
name = Bold;
paths = (
{
closed = 1;
nodes = (
"1571 833.667 OFFCURVE",
"1552.83 931.333 OFFCURVE",
"1516.5 1022 CURVE SMOOTH",
"1480.17 1112.67 OFFCURVE",
"1429 1191.33 OFFCURVE",
"1363 1258 CURVE SMOOTH",
"1297 1324.67 OFFCURVE",
"1217.5 1377.17 OFFCURVE",
"1124.5 1415.5 CURVE SMOOTH",
"1031.5 1453.83 OFFCURVE",
"928.333 1473 OFFCURVE",
"815 1473 CURVE SMOOTH",
"701.667 1473 OFFCURVE",
"598.333 1454 OFFCURVE",
"505 1416 CURVE SMOOTH",
"411.667 1378 OFFCURVE",
"331.833 1325.67 OFFCURVE",
"265.5 1259 CURVE SMOOTH",
"199.167 1192.33 OFFCURVE",
"147.833 1113.67 OFFCURVE",
"111.5 1023 CURVE SMOOTH",
"75.1667 932.333 OFFCURVE",
"57 834.333 OFFCURVE",
"57 729 CURVE SMOOTH",
"57 623.667 OFFCURVE",
"75.1667 525.667 OFFCURVE",
"111.5 435 CURVE SMOOTH",
"147.833 344.333 OFFCURVE",
"199.167 265.5 OFFCURVE",
"265.5 198.5 CURVE SMOOTH",
"331.833 131.5 OFFCURVE",
"411.667 79 OFFCURVE",
"505 41 CURVE SMOOTH",
"598.333 3 OFFCURVE",
"701.667 -16 OFFCURVE",
"815 -16 CURVE SMOOTH",
"928.333 -16 OFFCURVE",
"1031.5 3 OFFCURVE",
"1124.5 41 CURVE SMOOTH",
"1217.5 79 OFFCURVE",
"1297 131.5 OFFCURVE",
"1363 198.5 CURVE SMOOTH",
"1429 265.5 OFFCURVE",
"1480.17 344.333 OFFCURVE",
"1516.5 435 CURVE SMOOTH",
"1552.83 525.667 OFFCURVE",
"1571 623.667 OFFCURVE",
"1571 729 CURVE SMOOTH"
);
},
{
closed = 1;
nodes = (
"1225 656.333 OFFCURVE",
"1215.67 591.167 OFFCURVE",
"1197 533.5 CURVE SMOOTH",
"1178.33 475.833 OFFCURVE",
"1151.5 427 OFFCURVE",
"1116.5 387 CURVE SMOOTH",
"1081.5 347 OFFCURVE",
"1038.67 316.5 OFFCURVE",
"988 295.5 CURVE SMOOTH",
"937.333 274.5 OFFCURVE",
"879.667 264 OFFCURVE",
"815 264 CURVE SMOOTH",
"749.667 264 OFFCURVE",
"691.5 274.5 OFFCURVE",
"640.5 295.5 CURVE SMOOTH",
"589.5 316.5 OFFCURVE",
"546.5 347 OFFCURVE",
"511.5 387 CURVE SMOOTH",
"476.5 427 OFFCURVE",
"449.667 475.833 OFFCURVE",
"431 533.5 CURVE SMOOTH",
"412.333 591.167 OFFCURVE",
"403 656.333 OFFCURVE",
"403 729 CURVE SMOOTH",
"403 801 OFFCURVE",
"412.333 865.833 OFFCURVE",
"431 923.5 CURVE SMOOTH",
"449.667 981.167 OFFCURVE",
"476.5 1030 OFFCURVE",
"511.5 1070 CURVE SMOOTH",
"546.5 1110 OFFCURVE",
"589.5 1140.67 OFFCURVE",
"640.5 1162 CURVE SMOOTH",
"691.5 1183.33 OFFCURVE",
"749.667 1194 OFFCURVE",
"815 1194 CURVE SMOOTH",
"879.667 1194 OFFCURVE",
"937.333 1183.33 OFFCURVE",
"988 1162 CURVE SMOOTH",
"1038.67 1140.67 OFFCURVE",
"1081.5 1110 OFFCURVE",
"1116.5 1070 CURVE SMOOTH",
"1151.5 1030 OFFCURVE",
"1178.33 981.167 OFFCURVE",
"1197 923.5 CURVE SMOOTH",
"1215.67 865.833 OFFCURVE",
"1225 801 OFFCURVE",
"1225 729 CURVE SMOOTH"
);
}
);
width = 1629;
}
);
leftKerningGroup = C;
rightKerningGroup = O;
unicode = 004F;
},
{
glyphname = Oacute;
layers = (
{
layerId = "E173E66F-8B44-4FD8-81CD-C7310885C9A9";
name = Bold;
paths = (
{
closed = 1;
nodes = (
"57 0 LINE"
);
},
{
closed = 1;
nodes = (
"1571 833.667 OFFCURVE",
"1552.83 931.333 OFFCURVE",
"1516.5 1022 CURVE SMOOTH",
"1480.17 1112.67 OFFCURVE",
"1429 1191.33 OFFCURVE",
"1363 1258 CURVE SMOOTH",
"1297 1324.67 OFFCURVE",
"1217.5 1377.17 OFFCURVE",
"1124.5 1415.5 CURVE SMOOTH",
"1031.5 1453.83 OFFCURVE",
"928.333 1473 OFFCURVE",
"815 1473 CURVE SMOOTH",
"701.667 1473 OFFCURVE",
"598.333 1454 OFFCURVE",
"505 1416 CURVE SMOOTH",
"411.667 1378 OFFCURVE",
"331.833 1325.67 OFFCURVE",
"265.5 1259 CURVE SMOOTH",
"199.167 1192.33 OFFCURVE",
"147.833 1113.67 OFFCURVE",
"111.5 1023 CURVE SMOOTH",
"75.1667 932.333 OFFCURVE",
"57 834.333 OFFCURVE",
"57 729 CURVE SMOOTH",
"57 623.667 OFFCURVE",
"75.1667 525.667 OFFCURVE",
"111.5 435 CURVE SMOOTH",
"147.833 344.333 OFFCURVE",
"199.167 265.5 OFFCURVE",
"265.5 198.5 CURVE SMOOTH",
"331.833 131.5 OFFCURVE",
"411.667 79 OFFCURVE",
"505 41 CURVE SMOOTH",
"598.333 3 OFFCURVE",
"701.667 -16 OFFCURVE",
"815 -16 CURVE SMOOTH",
"928.333 -16 OFFCURVE",
"1031.5 3 OFFCURVE",
"1124.5 41 CURVE SMOOTH",
"1217.5 79 OFFCURVE",
"1297 131.5 OFFCURVE",
"1363 198.5 CURVE SMOOTH",
"1429 265.5 OFFCURVE",
"1480.17 344.333 OFFCURVE",
"1516.5 435 CURVE SMOOTH",
"1552.83 525.667 OFFCURVE",
"1571 623.667 OFFCURVE",
"1571 729 CURVE SMOOTH"
);
},
{
closed = 1;
nodes = (
"1225 656.333 OFFCURVE",
"1215.67 591.167 OFFCURVE",
"1197 533.5 CURVE SMOOTH",
"1178.33 475.833 OFFCURVE",
"1151.5 427 OFFCURVE",
"1116.5 387 CURVE SMOOTH",
"1081.5 347 OFFCURVE",
"1038.67 316.5 OFFCURVE",
"988 295.5 CURVE SMOOTH",
"937.333 274.5 OFFCURVE",
"879.667 264 OFFCURVE",
"815 264 CURVE SMOOTH",
"749.667 264 OFFCURVE",
"691.5 274.5 OFFCURVE",
"640.5 295.5 CURVE SMOOTH",
"589.5 316.5 OFFCURVE",
"546.5 347 OFFCURVE",
"511.5 387 CURVE SMOOTH",
"476.5 427 OFFCURVE",
"449.667 475.833 OFFCURVE",
"431 533.5 CURVE SMOOTH",
"412.333 591.167 OFFCURVE",
"403 656.333 OFFCURVE",
"403 729 CURVE SMOOTH",
"403 801 OFFCURVE",
"412.333 865.833 OFFCURVE",
"431 923.5 CURVE SMOOTH",
"449.667 981.167 OFFCURVE",
"476.5 1030 OFFCURVE",
"511.5 1070 CURVE SMOOTH",
"546.5 1110 OFFCURVE",
"589.5 1140.67 OFFCURVE",
"640.5 1162 CURVE SMOOTH",
"691.5 1183.33 OFFCURVE",
"749.667 1194 OFFCURVE",
"815 1194 CURVE SMOOTH",
"879.667 1194 OFFCURVE",
"937.333 1183.33 OFFCURVE",
"988 1162 CURVE SMOOTH",
"1038.67 1140.67 OFFCURVE",
"1081.5 1110 OFFCURVE",
"1116.5 1070 CURVE SMOOTH",
"1151.5 1030 OFFCURVE",
"1178.33 981.167 OFFCURVE",
"1197 923.5 CURVE SMOOTH",
"1215.67 865.833 OFFCURVE",
"1225 801 OFFCURVE",
"1225 729 CURVE SMOOTH"
);
},
{
closed = 1;
nodes = (
"1276 1867 LINE",
"934 1867 LINE SMOOTH",
"918.667 1867 OFFCURVE",
"905.167 1866.67 OFFCURVE",
"893.5 1866 CURVE SMOOTH",
"881.833 1865.33 OFFCURVE",
"871.5 1863.5 OFFCURVE",
"862.5 1860.5 CURVE SMOOTH",
"853.5 1857.5 OFFCURVE",
"845.167 1852.83 OFFCURVE",
"837.5 1846.5 CURVE SMOOTH",
"829.833 1840.17 OFFCURVE",
"822 1831.67 OFFCURVE",
"814 1821 CURVE SMOOTH",
"625 1551 LINE",
"851 1551 LINE SMOOTH",
"862.333 1551 OFFCURVE",
"872.5 1551.33 OFFCURVE",
"881.5 1552 CURVE SMOOTH",
"890.5 1552.67 OFFCURVE",
"899 1554 OFFCURVE",
"907 1556 CURVE SMOOTH",
"915 1558 OFFCURVE",
"922.667 1561 OFFCURVE",
"930 1565 CURVE SMOOTH",
"937.333 1569 OFFCURVE",
"945 1574.67 OFFCURVE",
"953 1582 CURVE SMOOTH"
);
}
);
width = 1629;
}
);
leftKerningGroup = C;
rightKerningGroup = O;
unicode = 00D3;
},
{
glyphname = Ocircumflex;
layers = (
{
layerId = "E173E66F-8B44-4FD8-81CD-C7310885C9A9";
name = Bold;
paths = (
{
closed = 1;
nodes = (
"57 0 LINE"
);
},
{
closed = 1;
nodes = (
"1571 833.667 OFFCURVE",
"1552.83 931.333 OFFCURVE",
"1516.5 1022 CURVE SMOOTH",
"1480.17 1112.67 OFFCURVE",
"1429 1191.33 OFFCURVE",
"1363 1258 CURVE SMOOTH",
"1297 1324.67 OFFCURVE",
"1217.5 1377.17 OFFCURVE",
"1124.5 1415.5 CURVE SMOOTH",
"1031.5 1453.83 OFFCURVE",
"928.333 1473 OFFCURVE",
"815 1473 CURVE SMOOTH",
"701.667 1473 OFFCURVE",
"598.333 1454 OFFCURVE",
"505 1416 CURVE SMOOTH",
"411.667 1378 OFFCURVE",
"331.833 1325.67 OFFCURVE",
"265.5 1259 CURVE SMOOTH",
"199.167 1192.33 OFFCURVE",
"147.833 1113.67 OFFCURVE",
"111.5 1023 CURVE SMOOTH",
"75.1667 932.333 OFFCURVE",
"57 834.333 OFFCURVE",
"57 729 CURVE SMOOTH",
"57 623.667 OFFCURVE",
"75.1667 525.667 OFFCURVE",
"111.5 435 CURVE SMOOTH",
"147.833 344.333 OFFCURVE",
"199.167 265.5 OFFCURVE",
"265.5 198.5 CURVE SMOOTH",
"331.833 131.5 OFFCURVE",
"411.667 79 OFFCURVE",
"505 41 CURVE SMOOTH",
"598.333 3 OFFCURVE",
"701.667 -16 OFFCURVE",
"815 -16 CURVE SMOOTH",
"928.333 -16 OFFCURVE",
"1031.5 3 OFFCURVE",
"1124.5 41 CURVE SMOOTH",
"1217.5 79 OFFCURVE",
"1297 131.5 OFFCURVE",
"1363 198.5 CURVE SMOOTH",
"1429 265.5 OFFCURVE",
"1480.17 344.333 OFFCURVE",
"1516.5 435 CURVE SMOOTH",
"1552.83 525.667 OFFCURVE",
"1571 623.667 OFFCURVE",
"1571 729 CURVE SMOOTH"
);
},
{
closed = 1;
nodes = (
"1225 656.333 OFFCURVE",
"1215.67 591.167 OFFCURVE",
"1197 533.5 CURVE SMOOTH",
"1178.33 475.833 OFFCURVE",
"1151.5 427 OFFCURVE",
"1116.5 387 CURVE SMOOTH",
"1081.5 347 OFFCURVE",
"1038.67 316.5 OFFCURVE",
"988 295.5 CURVE SMOOTH",
"937.333 274.5 OFFCURVE",
"879.667 264 OFFCURVE",
"815 264 CURVE SMOOTH",
"749.667 264 OFFCURVE",
"691.5 274.5 OFFCURVE",
"640.5 295.5 CURVE SMOOTH",
"589.5 316.5 OFFCURVE",
"546.5 347 OFFCURVE",
"511.5 387 CURVE SMOOTH",
"476.5 427 OFFCURVE",
"449.667 475.833 OFFCURVE",
"431 533.5 CURVE SMOOTH",
"412.333 591.167 OFFCURVE",
"403 656.333 OFFCURVE",
"403 729 CURVE SMOOTH",
"403 801 OFFCURVE",
"412.333 865.833 OFFCURVE",
"431 923.5 CURVE SMOOTH",
"449.667 981.167 OFFCURVE",
"476.5 1030 OFFCURVE",
"511.5 1070 CURVE SMOOTH",
"546.5 1110 OFFCURVE",
"589.5 1140.67 OFFCURVE",
"640.5 1162 CURVE SMOOTH",
"691.5 1183.33 OFFCURVE",
"749.667 1194 OFFCURVE",
"815 1194 CURVE SMOOTH",
"879.667 1194 OFFCURVE",
"937.333 1183.33 OFFCURVE",
"988 1162 CURVE SMOOTH",
"1038.67 1140.67 OFFCURVE",
"1081.5 1110 OFFCURVE",
"1116.5 1070 CURVE SMOOTH",
"1151.5 1030 OFFCURVE",
"1178.33 981.167 OFFCURVE",
"1197 923.5 CURVE SMOOTH",
"1215.67 865.833 OFFCURVE",
"1225 801 OFFCURVE",
"1225 729 CURVE SMOOTH"
);
},
{
closed = 1;
nodes = (
"1207 1551 LINE",
"963 1829 LINE",
"681 1829 LINE",
"437 1551 LINE",
"651 1551 LINE SMOOTH",
"663 1551 OFFCURVE",
"677.667 1553.17 OFFCURVE",
"695 1557.5 CURVE SMOOTH",
"712.333 1561.83 OFFCURVE",
"730.333 1575 OFFCURVE",
"749 1597 CURVE",
"799 1675 LINE",
"817 1700 LINE",
"819.667 1696 OFFCURVE",
"822.5 1692 OFFCURVE",
"825.5 1688 CURVE SMOOTH",
"828.5 1684 OFFCURVE",
"831.667 1679.67 OFFCURVE",
"835 1675 CURVE",
"885 1597 LINE",
"903.667 1575 OFFCURVE",
"921.667 1561.83 OFFCURVE",
"939 1557.5 CURVE SMOOTH",
"956.333 1553.17 OFFCURVE",
"971 1551 OFFCURVE",
"983 1551 CURVE SMOOTH"
);
}
);
width = 1629;
}
);
leftKerningGroup = C;
rightKerningGroup = O;
unicode = 00D4;
},
{
glyphname = Odieresis;
layers = (
{
layerId = "E173E66F-8B44-4FD8-81CD-C7310885C9A9";
name = Bold;
paths = (
{
closed = 1;
nodes = (
"57 0 LINE"
);
},
{
closed = 1;
nodes = (
"1571 833.667 OFFCURVE",
"1552.83 931.333 OFFCURVE",
"1516.5 1022 CURVE SMOOTH",
"1480.17 1112.67 OFFCURVE",
"1429 1191.33 OFFCURVE",
"1363 1258 CURVE SMOOTH",
"1297 1324.67 OFFCURVE",
"1217.5 1377.17 OFFCURVE",
"1124.5 1415.5 CURVE SMOOTH",
"1031.5 1453.83 OFFCURVE",
"928.333 1473 OFFCURVE",
"815 1473 CURVE SMOOTH",
"701.667 1473 OFFCURVE",
"598.333 1454 OFFCURVE",
"505 1416 CURVE SMOOTH",
"411.667 1378 OFFCURVE",
"331.833 1325.67 OFFCURVE",
"265.5 1259 CURVE SMOOTH",
"199.167 1192.33 OFFCURVE",
"147.833 1113.67 OFFCURVE",
"111.5 1023 CURVE SMOOTH",
"75.1667 932.333 OFFCURVE",
"57 834.333 OFFCURVE",
"57 729 CURVE SMOOTH",
"57 623.667 OFFCURVE",
"75.1667 525.667 OFFCURVE",
"111.5 435 CURVE SMOOTH",
"147.833 344.333 OFFCURVE",
"199.167 265.5 OFFCURVE",
"265.5 198.5 CURVE SMOOTH",
"331.833 131.5 OFFCURVE",
"411.667 79 OFFCURVE",
"505 41 CURVE SMOOTH",
"598.333 3 OFFCURVE",
"701.667 -16 OFFCURVE",
"815 -16 CURVE SMOOTH",
"928.333 -16 OFFCURVE",
"1031.5 3 OFFCURVE",
"1124.5 41 CURVE SMOOTH",
"1217.5 79 OFFCURVE",
"1297 131.5 OFFCURVE",
"1363 198.5 CURVE SMOOTH",
"1429 265.5 OFFCURVE",
"1480.17 344.333 OFFCURVE",
"1516.5 435 CURVE SMOOTH",
"1552.83 525.667 OFFCURVE",
"1571 623.667 OFFCURVE",
"1571 729 CURVE SMOOTH"
);
},
{
closed = 1;
nodes = (
"1225 656.333 OFFCURVE",
"1215.67 591.167 OFFCURVE",
"1197 533.5 CURVE SMOOTH",
"1178.33 475.833 OFFCURVE",
"1151.5 427 OFFCURVE",
"1116.5 387 CURVE SMOOTH",
"1081.5 347 OFFCURVE",
"1038.67 316.5 OFFCURVE",
"988 295.5 CURVE SMOOTH",
"937.333 274.5 OFFCURVE",
"879.667 264 OFFCURVE",
"815 264 CURVE SMOOTH",
"749.667 264 OFFCURVE",
"691.5 274.5 OFFCURVE",
"640.5 295.5 CURVE SMOOTH",
"589.5 316.5 OFFCURVE",
"546.5 347 OFFCURVE",
"511.5 387 CURVE SMOOTH",
"476.5 427 OFFCURVE",
"449.667 475.833 OFFCURVE",
"431 533.5 CURVE SMOOTH",
"412.333 591.167 OFFCURVE",
"403 656.333 OFFCURVE",
"403 729 CURVE SMOOTH",
"403 801 OFFCURVE",
"412.333 865.833 OFFCURVE",
"431 923.5 CURVE SMOOTH",
"449.667 981.167 OFFCURVE",
"476.5 1030 OFFCURVE",
"511.5 1070 CURVE SMOOTH",
"546.5 1110 OFFCURVE",
"589.5 1140.67 OFFCURVE",
"640.5 1162 CURVE SMOOTH",
"691.5 1183.33 OFFCURVE",
"749.667 1194 OFFCURVE",
"815 1194 CURVE SMOOTH",
"879.667 1194 OFFCURVE",
"937.333 1183.33 OFFCURVE",
"988 1162 CURVE SMOOTH",
"1038.67 1140.67 OFFCURVE",
"1081.5 1110 OFFCURVE",
"1116.5 1070 CURVE SMOOTH",
"1151.5 1030 OFFCURVE",
"1178.33 981.167 OFFCURVE",
"1197 923.5 CURVE SMOOTH",
"1215.67 865.833 OFFCURVE",
"1225 801 OFFCURVE",
"1225 729 CURVE SMOOTH"
);
},
{
closed = 1;
nodes = (
"743 1688.67 OFFCURVE",
"738.833 1708.33 OFFCURVE",
"730.5 1727 CURVE SMOOTH",
"722.167 1745.67 OFFCURVE",
"710.667 1762 OFFCURVE",
"696 1776 CURVE SMOOTH",
"681.333 1790 OFFCURVE",
"664.333 1801 OFFCURVE",
"645 1809 CURVE SMOOTH",
"625.667 1817 OFFCURVE",
"605 1821 OFFCURVE",
"583 1821 CURVE SMOOTH",
"563 1821 OFFCURVE",
"543.833 1817 OFFCURVE",
"525.5 1809 CURVE SMOOTH",
"507.167 1801 OFFCURVE",
"491 1790 OFFCURVE",
"477 1776 CURVE SMOOTH",
"463 1762 OFFCURVE",
"451.833 1745.67 OFFCURVE",
"443.5 1727 CURVE SMOOTH",
"435.167 1708.33 OFFCURVE",
"431 1688.67 OFFCURVE",
"431 1668 CURVE SMOOTH",
"431 1646.67 OFFCURVE",
"435.167 1627 OFFCURVE",
"443.5 1609 CURVE SMOOTH",
"451.833 1591 OFFCURVE",
"463 1575.17 OFFCURVE",
"477 1561.5 CURVE SMOOTH",
"491 1547.83 OFFCURVE",
"507.167 1537.17 OFFCURVE",
"525.5 1529.5 CURVE SMOOTH",
"543.833 1521.83 OFFCURVE",
"563 1518 OFFCURVE",
"583 1518 CURVE SMOOTH",
"605 1518 OFFCURVE",
"625.667 1521.83 OFFCURVE",
"645 1529.5 CURVE SMOOTH",
"664.333 1537.17 OFFCURVE",
"681.333 1547.83 OFFCURVE",
"696 1561.5 CURVE SMOOTH",
"710.667 1575.17 OFFCURVE",
"722.167 1591 OFFCURVE",
"730.5 1609 CURVE SMOOTH",
"738.833 1627 OFFCURVE",
"743 1646.67 OFFCURVE",
"743 1668 CURVE SMOOTH"
);
},
{
closed = 1;
nodes = (
"1203 1688.67 OFFCURVE",
"1198.83 1708.33 OFFCURVE",
"1190.5 1727 CURVE SMOOTH",
"1182.17 1745.67 OFFCURVE",
"1171 1762 OFFCURVE",
"1157 1776 CURVE SMOOTH",
"1143 1790 OFFCURVE",
"1126.5 1801 OFFCURVE",
"1107.5 1809 CURVE SMOOTH",
"1088.5 1817 OFFCURVE",
"1068.33 1821 OFFCURVE",
"1047 1821 CURVE SMOOTH",
"1025.67 1821 OFFCURVE",
"1005.5 1817 OFFCURVE",
"986.5 1809 CURVE SMOOTH",
"967.5 1801 OFFCURVE",
"951 1790 OFFCURVE",
"937 1776 CURVE SMOOTH",
"923 1762 OFFCURVE",
"911.833 1745.67 OFFCURVE",
"903.5 1727 CURVE SMOOTH",
"895.167 1708.33 OFFCURVE",
"891 1688.67 OFFCURVE",
"891 1668 CURVE SMOOTH",
"891 1646.67 OFFCURVE",
"895.167 1627 OFFCURVE",
"903.5 1609 CURVE SMOOTH",
"911.833 1591 OFFCURVE",
"923 1575.17 OFFCURVE",
"937 1561.5 CURVE SMOOTH",
"951 1547.83 OFFCURVE",
"967.5 1537.17 OFFCURVE",
"986.5 1529.5 CURVE SMOOTH",
"1005.5 1521.83 OFFCURVE",
"1025.67 1518 OFFCURVE",
"1047 1518 CURVE SMOOTH",
"1068.33 1518 OFFCURVE",
"1088.5 1521.83 OFFCURVE",
"1107.5 1529.5 CURVE SMOOTH",
"1126.5 1537.17 OFFCURVE",
"1143 1547.83 OFFCURVE",
"1157 1561.5 CURVE SMOOTH",
"1171 1575.17 OFFCURVE",
"1182.17 1591 OFFCURVE",
"1190.5 1609 CURVE SMOOTH",
"1198.83 1627 OFFCURVE",
"1203 1646.67 OFFCURVE",
"1203 1668 CURVE SMOOTH"
);
}
);
width = 1629;
}
);
leftKerningGroup = C;
rightKerningGroup = O;
unicode = 00D6;
},
{
glyphname = Ograve;
layers = (
{
layerId = "E173E66F-8B44-4FD8-81CD-C7310885C9A9";
name = Bold;
paths = (
{
closed = 1;
nodes = (
"57 0 LINE"
);
},
{
closed = 1;
nodes = (
"1571 833.667 OFFCURVE",
"1552.83 931.333 OFFCURVE",
"1516.5 1022 CURVE SMOOTH",
"1480.17 1112.67 OFFCURVE",
"1429 1191.33 OFFCURVE",
"1363 1258 CURVE SMOOTH",
"1297 1324.67 OFFCURVE",
"1217.5 1377.17 OFFCURVE",
"1124.5 1415.5 CURVE SMOOTH",
"1031.5 1453.83 OFFCURVE",
"928.333 1473 OFFCURVE",
"815 1473 CURVE SMOOTH",
"701.667 1473 OFFCURVE",
"598.333 1454 OFFCURVE",
"505 1416 CURVE SMOOTH",
"411.667 1378 OFFCURVE",
"331.833 1325.67 OFFCURVE",
"265.5 1259 CURVE SMOOTH",
"199.167 1192.33 OFFCURVE",
"147.833 1113.67 OFFCURVE",
"111.5 1023 CURVE SMOOTH",
"75.1667 932.333 OFFCURVE",
"57 834.333 OFFCURVE",
"57 729 CURVE SMOOTH",
"57 623.667 OFFCURVE",
"75.1667 525.667 OFFCURVE",
"111.5 435 CURVE SMOOTH",
"147.833 344.333 OFFCURVE",
"199.167 265.5 OFFCURVE",
"265.5 198.5 CURVE SMOOTH",
"331.833 131.5 OFFCURVE",
"411.667 79 OFFCURVE",
"505 41 CURVE SMOOTH",
"598.333 3 OFFCURVE",
"701.667 -16 OFFCURVE",
"815 -16 CURVE SMOOTH",
"928.333 -16 OFFCURVE",
"1031.5 3 OFFCURVE",
"1124.5 41 CURVE SMOOTH",
"1217.5 79 OFFCURVE",
"1297 131.5 OFFCURVE",
"1363 198.5 CURVE SMOOTH",
"1429 265.5 OFFCURVE",
"1480.17 344.333 OFFCURVE",
"1516.5 435 CURVE SMOOTH",
"1552.83 525.667 OFFCURVE",
"1571 623.667 OFFCURVE",
"1571 729 CURVE SMOOTH"
);
},
{
closed = 1;
nodes = (
"1225 656.333 OFFCURVE",
"1215.67 591.167 OFFCURVE",
"1197 533.5 CURVE SMOOTH",
"1178.33 475.833 OFFCURVE",
"1151.5 427 OFFCURVE",
"1116.5 387 CURVE SMOOTH",
"1081.5 347 OFFCURVE",
"1038.67 316.5 OFFCURVE",
"988 295.5 CURVE SMOOTH",
"937.333 274.5 OFFCURVE",
"879.667 264 OFFCURVE",
"815 264 CURVE SMOOTH",
"749.667 264 OFFCURVE",
"691.5 274.5 OFFCURVE",
"640.5 295.5 CURVE SMOOTH",
"589.5 316.5 OFFCURVE",
"546.5 347 OFFCURVE",
"511.5 387 CURVE SMOOTH",
"476.5 427 OFFCURVE",
"449.667 475.833 OFFCURVE",
"431 533.5 CURVE SMOOTH",
"412.333 591.167 OFFCURVE",
"403 656.333 OFFCURVE",
"403 729 CURVE SMOOTH",
"403 801 OFFCURVE",
"412.333 865.833 OFFCURVE",
"431 923.5 CURVE SMOOTH",
"449.667 981.167 OFFCURVE",
"476.5 1030 OFFCURVE",
"511.5 1070 CURVE SMOOTH",
"546.5 1110 OFFCURVE",
"589.5 1140.67 OFFCURVE",
"640.5 1162 CURVE SMOOTH",
"691.5 1183.33 OFFCURVE",
"749.667 1194 OFFCURVE",
"815 1194 CURVE SMOOTH",
"879.667 1194 OFFCURVE",
"937.333 1183.33 OFFCURVE",
"988 1162 CURVE SMOOTH",
"1038.67 1140.67 OFFCURVE",
"1081.5 1110 OFFCURVE",
"1116.5 1070 CURVE SMOOTH",
"1151.5 1030 OFFCURVE",
"1178.33 981.167 OFFCURVE",
"1197 923.5 CURVE SMOOTH",
"1215.67 865.833 OFFCURVE",
"1225 801 OFFCURVE",
"1225 729 CURVE SMOOTH"
);
},
{
closed = 1;
nodes = (
"344 1867 LINE",
"669 1580 LINE SMOOTH",
"677 1572.67 OFFCURVE",
"684.5 1567.17 OFFCURVE",
"691.5 1563.5 CURVE SMOOTH",
"698.5 1559.83 OFFCURVE",
"705.833 1557 OFFCURVE",
"713.5 1555 CURVE SMOOTH",
"721.167 1553 OFFCURVE",
"729.333 1551.83 OFFCURVE",
"738 1551.5 CURVE SMOOTH",
"746.667 1551.17 OFFCURVE",
"757 1551 OFFCURVE",
"769 1551 CURVE SMOOTH",
"995 1551 LINE",
"786 1821 LINE SMOOTH",
"777.333 1831.67 OFFCURVE",
"769.167 1840 OFFCURVE",
"761.5 1846 CURVE SMOOTH",
"753.833 1852 OFFCURVE",
"745.5 1856.5 OFFCURVE",
"736.5 1859.5 CURVE SMOOTH",
"727.5 1862.5 OFFCURVE",
"717.333 1864.5 OFFCURVE",
"706 1865.5 CURVE SMOOTH",
"694.667 1866.5 OFFCURVE",
"681.333 1867 OFFCURVE",
"666 1867 CURVE SMOOTH"
);
}
);
width = 1629;
}
);
leftKerningGroup = C;
rightKerningGroup = O;
unicode = 00D2;
},
{
glyphname = Oslash;
layers = (
{
layerId = "E173E66F-8B44-4FD8-81CD-C7310885C9A9";
name = Bold;
paths = (
{
closed = 1;
nodes = (
"1571 836.333 OFFCURVE",
"1552.17 936 OFFCURVE",
"1514.5 1028 CURVE SMOOTH",
"1476.83 1120 OFFCURVE",
"1423 1200 OFFCURVE",
"1353 1268 CURVE",
"1537 1523 LINE",
"1365 1523 LINE SMOOTH",
"1347 1523 OFFCURVE",
"1331.67 1521.67 OFFCURVE",
"1319 1519 CURVE SMOOTH",
"1306.33 1516.33 OFFCURVE",
"1295 1511.83 OFFCURVE",
"1285 1505.5 CURVE SMOOTH",
"1275 1499.17 OFFCURVE",
"1265.5 1491 OFFCURVE",
"1256.5 1481 CURVE SMOOTH",
"1247.5 1471 OFFCURVE",
"1237.67 1458.67 OFFCURVE",
"1227 1444 CURVE SMOOTH",
"1186 1387 LINE",
"1132 1415 OFFCURVE",
"1074.17 1436.33 OFFCURVE",
"1012.5 1451 CURVE SMOOTH",
"950.833 1465.67 OFFCURVE",
"885 1473 OFFCURVE",
"815 1473 CURVE SMOOTH",
"701.667 1473 OFFCURVE",
"598.333 1454 OFFCURVE",
"505 1416 CURVE SMOOTH",
"411.667 1378 OFFCURVE",
"331.833 1325.67 OFFCURVE",
"265.5 1259 CURVE SMOOTH",
"199.167 1192.33 OFFCURVE",
"147.833 1113.67 OFFCURVE",
"111.5 1023 CURVE SMOOTH",
"75.1666 932.333 OFFCURVE",
"56.9999 834.333 OFFCURVE",
"56.9999 729 CURVE SMOOTH",
"56.9999 613 OFFCURVE",
"78.4999 506.667 OFFCURVE",
"121.5 410 CURVE SMOOTH",
"164.5 313.333 OFFCURVE",
"225.333 231 OFFCURVE",
"304 163 CURVE",
"105 -113 LINE",
"237 -113 LINE SMOOTH",
"269 -113 OFFCURVE",
"301.667 -107 OFFCURVE",
"335 -94 CURVE SMOOTH",
"368.333 -81 OFFCURVE",
"397 -58 OFFCURVE",
"421 -27 CURVE SMOOTH",
"478 52 LINE",
"528 30 OFFCURVE",
"581 13.1667 OFFCURVE",
"637 1.50005 CURVE SMOOTH",
"693 -10 OFFCURVE",
"752.333 -16 OFFCURVE",
"815 -16 CURVE SMOOTH",
"928.333 -16 OFFCURVE",
"1031.5 3 OFFCURVE",
"1124.5 41 CURVE SMOOTH",
"1217.5 79 OFFCURVE",
"1297 131.5 OFFCURVE",
"1363 198.5 CURVE SMOOTH",
"1429 265.5 OFFCURVE",
"1480.17 344.333 OFFCURVE",
"1516.5 435 CURVE SMOOTH",
"1552.83 525.667 OFFCURVE",
"1571 623.667 OFFCURVE",
"1571 729 CURVE SMOOTH"
);
},
{
closed = 1;
nodes = (
"403 801 OFFCURVE",
"412.333 865.833 OFFCURVE",
"431 923.5 CURVE SMOOTH",
"449.667 981.167 OFFCURVE",
"476.5 1030 OFFCURVE",
"511.5 1070 CURVE SMOOTH",
"546.5 1110 OFFCURVE",
"589.5 1140.67 OFFCURVE",
"640.5 1162 CURVE SMOOTH",
"691.5 1183.33 OFFCURVE",
"749.667 1194 OFFCURVE",
"815 1194 CURVE SMOOTH",
"853 1194 OFFCURVE",
"888.667 1190.17 OFFCURVE",
"922 1182.5 CURVE SMOOTH",
"955.333 1174.83 OFFCURVE",
"986 1163.67 OFFCURVE",
"1014 1149 CURVE",
"487 418 LINE",
"431 497.334 OFFCURVE",
"403 601 OFFCURVE",
"403 729 CURVE SMOOTH"
);
},
{
closed = 1;
nodes = (
"1225 656.334 OFFCURVE",
"1215.67 591.167 OFFCURVE",
"1197 533.5 CURVE SMOOTH",
"1178.33 475.833 OFFCURVE",
"1151.5 427 OFFCURVE",
"1116.5 387 CURVE SMOOTH",
"1081.5 347 OFFCURVE",
"1038.67 316.5 OFFCURVE",
"988 295.5 CURVE SMOOTH",
"937.333 274.5 OFFCURVE",
"879.667 264 OFFCURVE",
"815 264 CURVE SMOOTH",
"753 264 OFFCURVE",
"698.333 273.333 OFFCURVE",
"651 292 CURVE",
"1163 1003 LINE",
"1183 966.333 OFFCURVE",
"1198.33 925 OFFCURVE",
"1209 879 CURVE SMOOTH",
"1219.67 833 OFFCURVE",
"1225 783 OFFCURVE",
"1225 729 CURVE SMOOTH"
);
}
);
width = 1629;
}
);
leftKerningGroup = C;
rightKerningGroup = O;
unicode = 00D8;
},
{
glyphname = Otilde;
layers = (
{
layerId = "E173E66F-8B44-4FD8-81CD-C7310885C9A9";
name = Bold;
paths = (
{
closed = 1;
nodes = (
"57 0 LINE"
);
},
{
closed = 1;
nodes = (
"1571 833.667 OFFCURVE",
"1552.83 931.333 OFFCURVE",
"1516.5 1022 CURVE SMOOTH",
"1480.17 1112.67 OFFCURVE",
"1429 1191.33 OFFCURVE",
"1363 1258 CURVE SMOOTH",
"1297 1324.67 OFFCURVE",
"1217.5 1377.17 OFFCURVE",
"1124.5 1415.5 CURVE SMOOTH",
"1031.5 1453.83 OFFCURVE",
"928.333 1473 OFFCURVE",
"815 1473 CURVE SMOOTH",
"701.667 1473 OFFCURVE",
"598.333 1454 OFFCURVE",
"505 1416 CURVE SMOOTH",
"411.667 1378 OFFCURVE",
"331.833 1325.67 OFFCURVE",
"265.5 1259 CURVE SMOOTH",
"199.167 1192.33 OFFCURVE",
"147.833 1113.67 OFFCURVE",
"111.5 1023 CURVE SMOOTH",
"75.1667 932.333 OFFCURVE",
"57 834.333 OFFCURVE",
"57 729 CURVE SMOOTH",
"57 623.667 OFFCURVE",
"75.1667 525.667 OFFCURVE",
"111.5 435 CURVE SMOOTH",
"147.833 344.333 OFFCURVE",
"199.167 265.5 OFFCURVE",
"265.5 198.5 CURVE SMOOTH",
"331.833 131.5 OFFCURVE",
"411.667 79 OFFCURVE",
"505 41 CURVE SMOOTH",
"598.333 3 OFFCURVE",
"701.667 -16 OFFCURVE",
"815 -16 CURVE SMOOTH",
"928.333 -16 OFFCURVE",
"1031.5 3 OFFCURVE",
"1124.5 41 CURVE SMOOTH",
"1217.5 79 OFFCURVE",
"1297 131.5 OFFCURVE",
"1363 198.5 CURVE SMOOTH",
"1429 265.5 OFFCURVE",
"1480.17 344.333 OFFCURVE",
"1516.5 435 CURVE SMOOTH",
"1552.83 525.667 OFFCURVE",
"1571 623.667 OFFCURVE",
"1571 729 CURVE SMOOTH"
);
},
{
closed = 1;
nodes = (
"1225 656.333 OFFCURVE",
"1215.67 591.167 OFFCURVE",
"1197 533.5 CURVE SMOOTH",
"1178.33 475.833 OFFCURVE",
"1151.5 427 OFFCURVE",
"1116.5 387 CURVE SMOOTH",
"1081.5 347 OFFCURVE",
"1038.67 316.5 OFFCURVE",
"988 295.5 CURVE SMOOTH",
"937.333 274.5 OFFCURVE",
"879.667 264 OFFCURVE",
"815 264 CURVE SMOOTH",
"749.667 264 OFFCURVE",
"691.5 274.5 OFFCURVE",
"640.5 295.5 CURVE SMOOTH",
"589.5 316.5 OFFCURVE",
"546.5 347 OFFCURVE",
"511.5 387 CURVE SMOOTH",
"476.5 427 OFFCURVE",
"449.667 475.833 OFFCURVE",
"431 533.5 CURVE SMOOTH",
"412.333 591.167 OFFCURVE",
"403 656.333 OFFCURVE",
"403 729 CURVE SMOOTH",
"403 801 OFFCURVE",
"412.333 865.833 OFFCURVE",
"431 923.5 CURVE SMOOTH",
"449.667 981.167 OFFCURVE",
"476.5 1030 OFFCURVE",
"511.5 1070 CURVE SMOOTH",
"546.5 1110 OFFCURVE",
"589.5 1140.67 OFFCURVE",
"640.5 1162 CURVE SMOOTH",
"691.5 1183.33 OFFCURVE",
"749.667 1194 OFFCURVE",
"815 1194 CURVE SMOOTH",
"879.667 1194 OFFCURVE",
"937.333 1183.33 OFFCURVE",
"988 1162 CURVE SMOOTH",
"1038.67 1140.67 OFFCURVE",
"1081.5 1110 OFFCURVE",
"1116.5 1070 CURVE SMOOTH",
"1151.5 1030 OFFCURVE",
"1178.33 981.167 OFFCURVE",
"1197 923.5 CURVE SMOOTH",
"1215.67 865.833 OFFCURVE",
"1225 801 OFFCURVE",
"1225 729 CURVE SMOOTH"
);
},
{
closed = 1;
nodes = (
"923.667 1729 OFFCURVE",
"906.667 1734 OFFCURVE",
"890 1744 CURVE SMOOTH",
"873.333 1754 OFFCURVE",
"855 1765.17 OFFCURVE",
"835 1777.5 CURVE SMOOTH",
"815 1789.83 OFFCURVE",
"791.667 1801 OFFCURVE",
"765 1811 CURVE SMOOTH",
"738.333 1821 OFFCURVE",
"706.333 1826 OFFCURVE",
"669 1826 CURVE SMOOTH",
"631.667 1826 OFFCURVE",
"598.833 1818 OFFCURVE",
"570.5 1802 CURVE SMOOTH",
"542.167 1786 OFFCURVE",
"518.167 1764.67 OFFCURVE",
"498.5 1738 CURVE SMOOTH",
"478.833 1711.33 OFFCURVE",
"464 1681 OFFCURVE",
"454 1647 CURVE SMOOTH",
"444 1613 OFFCURVE",
"439 1577.67 OFFCURVE",
"439 1541 CURVE",
"629 1541 LINE",
"629 1550.33 OFFCURVE",
"630.333 1560.33 OFFCURVE",
"633 1571 CURVE SMOOTH",
"635.667 1581.67 OFFCURVE",
"640 1591.5 OFFCURVE",
"646 1600.5 CURVE SMOOTH",
"652 1609.5 OFFCURVE",
"660 1617 OFFCURVE",
"670 1623 CURVE SMOOTH",
"680 1629 OFFCURVE",
"692.333 1632 OFFCURVE",
"707 1632 CURVE SMOOTH",
"724.333 1632 OFFCURVE",
"741.333 1627 OFFCURVE",
"758 1617 CURVE SMOOTH",
"774.667 1607 OFFCURVE",
"793.167 1595.83 OFFCURVE",
"813.5 1583.5 CURVE SMOOTH",
"833.833 1571.17 OFFCURVE",
"857.167 1560 OFFCURVE",
"883.5 1550 CURVE SMOOTH",
"909.833 1540 OFFCURVE",
"941.667 1535 OFFCURVE",
"979 1535 CURVE SMOOTH",
"1016.33 1535 OFFCURVE",
"1049.33 1542.83 OFFCURVE",
"1078 1558.5 CURVE SMOOTH",
"1106.67 1574.17 OFFCURVE",
"1130.67 1595.17 OFFCURVE",
"1150 1621.5 CURVE SMOOTH",
"1169.33 1647.83 OFFCURVE",
"1184 1678 OFFCURVE",
"1194 1712 CURVE SMOOTH",
"1204 1746 OFFCURVE",
"1209 1781.33 OFFCURVE",
"1209 1818 CURVE",
"1021 1818 LINE",
"1021 1808.67 OFFCURVE",
"1019.5 1798.83 OFFCURVE",
"1016.5 1788.5 CURVE SMOOTH",
"1013.5 1778.17 OFFCURVE",
"1008.83 1768.5 OFFCURVE",
"1002.5 1759.5 CURVE SMOOTH",
"996.167 1750.5 OFFCURVE",
"988 1743.17 OFFCURVE",
"978 1737.5 CURVE SMOOTH",
"968 1731.83 OFFCURVE",
"955.667 1729 OFFCURVE",
"941 1729 CURVE SMOOTH"
);
}
);
width = 1629;
}
);
leftKerningGroup = C;
rightKerningGroup = O;
unicode = 00D5;
},
{
glyphname = OE;
layers = (
{
layerId = "E173E66F-8B44-4FD8-81CD-C7310885C9A9";
name = Bold;
paths = (
{
closed = 1;
nodes = (
"2080 1457 LINE",
"1182 1457 LINE",
"1182 1308 LINE",
"1124.67 1360 OFFCURVE",
"1059.17 1400.5 OFFCURVE",
"985.5 1429.5 CURVE SMOOTH",
"911.833 1458.5 OFFCURVE",
"830.667 1473 OFFCURVE",
"742 1473 CURVE SMOOTH",
"639.333 1473 OFFCURVE",
"546.167 1454 OFFCURVE",
"462.5 1416 CURVE SMOOTH",
"378.833 1378 OFFCURVE",
"307.167 1325.67 OFFCURVE",
"247.5 1259 CURVE SMOOTH",
"187.833 1192.33 OFFCURVE",
"141.667 1113.67 OFFCURVE",
"109 1023 CURVE SMOOTH",
"76.3333 932.333 OFFCURVE",
"59.9999 834.333 OFFCURVE",
"59.9999 729 CURVE SMOOTH",
"59.9999 623.667 OFFCURVE",
"76.3333 525.667 OFFCURVE",
"109 435 CURVE SMOOTH",
"141.667 344.333 OFFCURVE",
"187.833 265.5 OFFCURVE",
"247.5 198.5 CURVE SMOOTH",
"307.167 131.5 OFFCURVE",
"378.833 79 OFFCURVE",
"462.5 41 CURVE SMOOTH",
"546.167 3 OFFCURVE",
"639.333 -16 OFFCURVE",
"742 -16 CURVE SMOOTH",
"830.667 -16 OFFCURVE",
"911.833 -2 OFFCURVE",
"985.5 27 CURVE SMOOTH",
"1059.17 55.6667 OFFCURVE",
"1124.67 96 OFFCURVE",
"1182 148 CURVE",
"1182 6.10352 LINE",
"2080 6.10352 LINE",
"2080 260 LINE",
"1482 260 LINE",
"1482 607 LINE",
"1940 607 LINE",
"1940 857 LINE",
"1482 857 LINE",
"1482 1197 LINE",
"2080 1197 LINE"
);
},
{
closed = 1;
nodes = (
"1142 656.333 OFFCURVE",
"1133.83 590.667 OFFCURVE",
"1117.5 532 CURVE SMOOTH",
"1101.17 473.333 OFFCURVE",
"1077.33 423.5 OFFCURVE",
"1046 382.5 CURVE SMOOTH",
"1014.67 341.5 OFFCURVE",
"976.333 309.833 OFFCURVE",
"931 287.5 CURVE SMOOTH",
"885.667 265.167 OFFCURVE",
"834 254 OFFCURVE",
"776 254 CURVE SMOOTH",
"716.667 254 OFFCURVE",
"664.167 265.167 OFFCURVE",
"618.5 287.5 CURVE SMOOTH",
"572.833 309.833 OFFCURVE",
"534.167 341.5 OFFCURVE",
"502.5 382.5 CURVE SMOOTH",
"470.833 423.5 OFFCURVE",
"446.833 473.333 OFFCURVE",
"430.5 532 CURVE SMOOTH",
"414.167 590.667 OFFCURVE",
"406 656.333 OFFCURVE",
"406 729 CURVE SMOOTH",
"406 801 OFFCURVE",
"414.167 866.333 OFFCURVE",
"430.5 925 CURVE SMOOTH",
"446.833 983.667 OFFCURVE",
"470.833 1033.5 OFFCURVE",
"502.5 1074.5 CURVE SMOOTH",
"534.167 1115.5 OFFCURVE",
"572.833 1147.17 OFFCURVE",
"618.5 1169.5 CURVE SMOOTH",
"664.167 1191.83 OFFCURVE",
"716.667 1203 OFFCURVE",
"776 1203 CURVE SMOOTH",
"834 1203 OFFCURVE",
"885.667 1191.83 OFFCURVE",
"931 1169.5 CURVE SMOOTH",
"976.333 1147.17 OFFCURVE",
"1014.67 1115.5 OFFCURVE",
"1046 1074.5 CURVE SMOOTH",
"1077.33 1033.5 OFFCURVE",
"1101.17 983.667 OFFCURVE",
"1117.5 925 CURVE SMOOTH",
"1133.83 866.333 OFFCURVE",
"1142 801 OFFCURVE",
"1142 729 CURVE SMOOTH"
);
}
);
width = 2147;
}
);
leftKerningGroup = C;
rightKerningGroup = E;
unicode = 0152;
},
{
glyphname = P;
layers = (
{
layerId = "E173E66F-8B44-4FD8-81CD-C7310885C9A9";
name = Bold;
paths = (
{
closed = 1;
nodes = (
"479 487 LINE",
"655 487 LINE SMOOTH",
"755.667 487 OFFCURVE",
"842.833 499.167 OFFCURVE",
"916.5 523.5 CURVE SMOOTH",
"990.167 547.833 OFFCURVE",
"1051 581.667 OFFCURVE",
"1099 625 CURVE SMOOTH",
"1147 668.333 OFFCURVE",
"1182.67 720.333 OFFCURVE",
"1206 781 CURVE SMOOTH",
"1229.33 841.667 OFFCURVE",
"1241 908.333 OFFCURVE",
"1241 981 CURVE SMOOTH",
"1241 1048.33 OFFCURVE",
"1229.67 1111 OFFCURVE",
"1207 1169 CURVE SMOOTH",
"1184.33 1227 OFFCURVE",
"1149.17 1277.33 OFFCURVE",
"1101.5 1320 CURVE SMOOTH",
"1053.83 1362.67 OFFCURVE",
"993.167 1396.17 OFFCURVE",
"919.5 1420.5 CURVE SMOOTH",
"845.834 1444.83 OFFCURVE",
"757.667 1457 OFFCURVE",
"655 1457 CURVE SMOOTH",
"141 1457 LINE",
"141 0 LINE",
"479 0 LINE"
);
},
{
closed = 1;
nodes = (
"479 742 LINE",
"479 1204 LINE",
"655 1204 LINE SMOOTH",
"697.667 1204 OFFCURVE",
"734.5 1198.67 OFFCURVE",
"765.5 1188 CURVE SMOOTH",
"796.5 1177.33 OFFCURVE",
"822.167 1162.17 OFFCURVE",
"842.5 1142.5 CURVE SMOOTH",
"862.834 1122.83 OFFCURVE",
"878 1099.33 OFFCURVE",
"888 1072 CURVE SMOOTH",
"898 1044.67 OFFCURVE",
"903 1014.33 OFFCURVE",
"903 981 CURVE SMOOTH",
"903 905.667 OFFCURVE",
"883.667 847 OFFCURVE",
"845 805 CURVE SMOOTH",
"806.334 763 OFFCURVE",
"743 742 OFFCURVE",
"655 742 CURVE SMOOTH"
);
}
);
width = 1272;
}
);
leftKerningGroup = B;
rightKerningGroup = P;
unicode = 0050;
},
{
glyphname = Thorn;
layers = (
{
layerId = "E173E66F-8B44-4FD8-81CD-C7310885C9A9";
name = Bold;
paths = (
{
closed = 1;
nodes = (
"479 252 LINE",
"655 252 LINE SMOOTH",
"755.667 252 OFFCURVE",
"842.833 264.167 OFFCURVE",
"916.5 288.5 CURVE SMOOTH",
"990.167 312.833 OFFCURVE",
"1051 346.667 OFFCURVE",
"1099 390 CURVE SMOOTH",
"1147 433.333 OFFCURVE",
"1182.67 485.333 OFFCURVE",
"1206 546 CURVE SMOOTH",
"1229.33 606.667 OFFCURVE",
"1241 673.333 OFFCURVE",
"1241 746 CURVE SMOOTH",
"1241 813.333 OFFCURVE",
"1229.67 876 OFFCURVE",
"1207 934 CURVE SMOOTH",
"1184.33 992 OFFCURVE",
"1149.17 1042.33 OFFCURVE",
"1101.5 1085 CURVE SMOOTH",
"1053.83 1127.67 OFFCURVE",
"993.167 1161.17 OFFCURVE",
"919.5 1185.5 CURVE SMOOTH",
"845.834 1209.83 OFFCURVE",
"757.667 1222 OFFCURVE",
"655 1222 CURVE SMOOTH",
"479 1222 LINE",
"479 1457 LINE",
"141 1457 LINE",
"141 0 LINE",
"479 0 LINE"
);
},
{
closed = 1;
nodes = (
"479 507 LINE",
"479 969 LINE",
"655 969 LINE SMOOTH",
"697.667 969 OFFCURVE",
"734.5 963.667 OFFCURVE",
"765.5 953 CURVE SMOOTH",
"796.5 942.333 OFFCURVE",
"822.167 927.167 OFFCURVE",
"842.5 907.5 CURVE SMOOTH",
"862.834 887.833 OFFCURVE",
"878 864.333 OFFCURVE",
"888 837 CURVE SMOOTH",
"898 809.667 OFFCURVE",
"903 779.333 OFFCURVE",
"903 746 CURVE SMOOTH",
"903 670.667 OFFCURVE",
"883.667 612 OFFCURVE",
"845 570 CURVE SMOOTH",
"806.334 528 OFFCURVE",
"743 507 OFFCURVE",
"655 507 CURVE SMOOTH"
);
}
);
width = 1263;
}
);
leftKerningGroup = B;
rightKerningGroup = Thorn;
unicode = 00DE;
},
{
glyphname = Q;
lastChange = "2014-08-19 01:27:39 -0500";
layers = (
{
layerId = "E173E66F-8B44-4FD8-81CD-C7310885C9A9";
name = Bold;
paths = (
{
closed = 1;
nodes = (
"1595 -44 LINE",
"1359.04 195.011 LINE",
"1363 199 LINE SMOOTH",
"1429 266 OFFCURVE",
"1480 344 OFFCURVE",
"1517 435 CURVE SMOOTH",
"1553 526 OFFCURVE",
"1571 624 OFFCURVE",
"1571 729 CURVE SMOOTH",
"1571 834 OFFCURVE",
"1553 931 OFFCURVE",
"1517 1022 CURVE SMOOTH",
"1480 1113 OFFCURVE",
"1429 1191 OFFCURVE",
"1363 1258 CURVE SMOOTH",
"1297 1325 OFFCURVE",
"1218 1377 OFFCURVE",
"1125 1416 CURVE SMOOTH",
"1032 1454 OFFCURVE",
"928 1473 OFFCURVE",
"815 1473 CURVE SMOOTH",
"702 1473 OFFCURVE",
"598 1454 OFFCURVE",
"505 1416 CURVE SMOOTH",
"412 1378 OFFCURVE",
"332 1326 OFFCURVE",
"266 1259 CURVE SMOOTH",
"199 1192 OFFCURVE",
"148 1114 OFFCURVE",
"112 1023 CURVE SMOOTH",
"75 932 OFFCURVE",
"57 834 OFFCURVE",
"57 729 CURVE SMOOTH",
"57 624 OFFCURVE",
"75 526 OFFCURVE",
"112 435 CURVE SMOOTH",
"148 344 OFFCURVE",
"199 266 OFFCURVE",
"266 199 CURVE SMOOTH",
"332 132 OFFCURVE",
"412 79 OFFCURVE",
"505 41 CURVE SMOOTH",
"598 3 OFFCURVE",
"702 -16 OFFCURVE",
"815 -16 CURVE SMOOTH",
"928 -16 OFFCURVE",
"1032 3 OFFCURVE",
"1125 41 CURVE SMOOTH",
"1128.65 42.5046 LINE",
"1215 -44 LINE"
);
},
{
closed = 1;
nodes = (
"750 264 OFFCURVE",
"692 275 OFFCURVE",
"641 296 CURVE SMOOTH",
"590 317 OFFCURVE",
"547 347 OFFCURVE",
"512 387 CURVE SMOOTH",
"477 427 OFFCURVE",
"450 476 OFFCURVE",
"431 534 CURVE SMOOTH",
"412 591 OFFCURVE",
"403 656 OFFCURVE",
"403 729 CURVE SMOOTH",
"403 801 OFFCURVE",
"412 866 OFFCURVE",
"431 924 CURVE SMOOTH",
"450 981 OFFCURVE",
"477 1030 OFFCURVE",
"512 1070 CURVE SMOOTH",
"547 1110 OFFCURVE",
"590 1141 OFFCURVE",
"641 1162 CURVE SMOOTH",
"692 1183 OFFCURVE",
"750 1194 OFFCURVE",
"815 1194 CURVE SMOOTH",
"880 1194 OFFCURVE",
"937 1183 OFFCURVE",
"988 1162 CURVE SMOOTH",
"1039 1141 OFFCURVE",
"1082 1110 OFFCURVE",
"1117 1070 CURVE SMOOTH",
"1152 1030 OFFCURVE",
"1178 981 OFFCURVE",
"1197 924 CURVE SMOOTH",
"1216 866 OFFCURVE",
"1225 801 OFFCURVE",
"1225 729 CURVE SMOOTH",
"1225 656 OFFCURVE",
"1216 591 OFFCURVE",
"1197 534 CURVE SMOOTH",
"1182.46 489.623 OFFCURVE",
"1163.83 450.515 OFFCURVE",
"1140.2 416.675 CURVE",
"1053 505 LINE",
"671 501 LINE",
"900.564 271.014 LINE",
"873.634 266.372 OFFCURVE",
"845.179 264 OFFCURVE",
"815 264 CURVE SMOOTH"
);
}
);
width = 1630;
}
);
leftKerningGroup = C;
rightKerningGroup = O;
unicode = 0051;
},
{
glyphname = R;
layers = (
{
layerId = "E173E66F-8B44-4FD8-81CD-C7310885C9A9";
name = Bold;
paths = (
{
closed = 1;
nodes = (
"479 539 LINE",
"565 539 LINE SMOOTH",
"591 539 OFFCURVE",
"611 534.833 OFFCURVE",
"625 526.5 CURVE SMOOTH",
"639 518.167 OFFCURVE",
"651.667 505 OFFCURVE",
"663 487 CURVE",
"905 64 LINE SMOOTH",
"929.667 21.3333 OFFCURVE",
"970.333 0 OFFCURVE",
"1027 0 CURVE SMOOTH",
"1333 0 LINE",
"1023 507 LINE SMOOTH",
"1007.67 530.333 OFFCURVE",
"990.333 550.5 OFFCURVE",
"971 567.5 CURVE SMOOTH",
"951.667 584.5 OFFCURVE",
"930.667 598.667 OFFCURVE",
"908 610 CURVE",
"955.333 628 OFFCURVE",
"997.167 651 OFFCURVE",
"1033.5 679 CURVE SMOOTH",
"1069.83 707 OFFCURVE",
"1100.5 738.833 OFFCURVE",
"1125.5 774.5 CURVE SMOOTH",
"1150.5 810.167 OFFCURVE",
"1169.33 849 OFFCURVE",
"1182 891 CURVE SMOOTH",
"1194.67 933 OFFCURVE",
"1201 977.667 OFFCURVE",
"1201 1025 CURVE SMOOTH",
"1201 1087 OFFCURVE",
"1190.33 1144.33 OFFCURVE",
"1169 1197 CURVE SMOOTH",
"1147.67 1249.67 OFFCURVE",
"1113.5 1295.33 OFFCURVE",
"1066.5 1334 CURVE SMOOTH",
"1019.5 1372.67 OFFCURVE",
"958.833 1402.83 OFFCURVE",
"884.5 1424.5 CURVE SMOOTH",
"810.167 1446.17 OFFCURVE",
"720.333 1457 OFFCURVE",
"615 1457 CURVE SMOOTH",
"141 1457 LINE",
"141 0 LINE",
"479 0 LINE"
);
},
{
closed = 1;
nodes = (
"479 772 LINE",
"479 1204 LINE",
"615 1204 LINE SMOOTH",
"702.333 1204 OFFCURVE",
"766.833 1186 OFFCURVE",
"808.5 1150 CURVE SMOOTH",
"850.167 1114 OFFCURVE",
"871 1064 OFFCURVE",
"871 1000 CURVE SMOOTH",
"871 968 OFFCURVE",
"866.333 938.166 OFFCURVE",
"857 910.5 CURVE SMOOTH",
"847.667 882.833 OFFCURVE",
"832.667 858.666 OFFCURVE",
"812 838 CURVE SMOOTH",
"791.333 817.333 OFFCURVE",
"764.833 801.166 OFFCURVE",
"732.5 789.5 CURVE SMOOTH",
"700.167 777.833 OFFCURVE",
"661 772 OFFCURVE",
"615 772 CURVE SMOOTH"
);
}
);
width = 1315;
}
);
leftKerningGroup = B;
rightKerningGroup = R;
unicode = 0052;
},
{
glyphname = S;
layers = (
{
layerId = "E173E66F-8B44-4FD8-81CD-C7310885C9A9";
name = Bold;
paths = (
{
closed = 1;
nodes = (
"1030 1318 LINE",
"1004 1342 OFFCURVE",
"974.5 1363.5 OFFCURVE",
"941.5 1382.5 CURVE SMOOTH",
"908.5 1401.5 OFFCURVE",
"873 1417.83 OFFCURVE",
"835 1431.5 CURVE SMOOTH",
"797 1445.17 OFFCURVE",
"756.833 1455.5 OFFCURVE",
"714.5 1462.5 CURVE SMOOTH",
"672.167 1469.5 OFFCURVE",
"628.667 1473 OFFCURVE",
"584 1473 CURVE SMOOTH",
"504 1473 OFFCURVE",
"433 1460.83 OFFCURVE",
"371 1436.5 CURVE SMOOTH",
"309 1412.17 OFFCURVE",
"256.667 1379.67 OFFCURVE",
"214 1339 CURVE SMOOTH",
"171.333 1298.33 OFFCURVE",
"139 1252 OFFCURVE",
"117 1200 CURVE SMOOTH",
"95 1148 OFFCURVE",
"84 1094.67 OFFCURVE",
"84 1040 CURVE SMOOTH",
"84 972 OFFCURVE",
"93.3333 914.833 OFFCURVE",
"112 868.5 CURVE SMOOTH",
"130.667 822.167 OFFCURVE",
"155.167 783.5 OFFCURVE",
"185.5 752.5 CURVE SMOOTH",
"215.833 721.5 OFFCURVE",
"250.333 696.5 OFFCURVE",
"289 677.5 CURVE SMOOTH",
"327.667 658.5 OFFCURVE",
"367.333 642.5 OFFCURVE",
"408 629.5 CURVE SMOOTH",
"448.667 616.5 OFFCURVE",
"488.333 604.667 OFFCURVE",
"527 594 CURVE SMOOTH",
"565.667 583.333 OFFCURVE",
"600.167 571 OFFCURVE",
"630.5 557 CURVE SMOOTH",
"660.833 543 OFFCURVE",
"685.333 525.333 OFFCURVE",
"704 504 CURVE SMOOTH",
"722.667 482.667 OFFCURVE",
"732 455 OFFCURVE",
"732 421 CURVE SMOOTH",
"732 362.333 OFFCURVE",
"715 319.5 OFFCURVE",
"681 292.5 CURVE SMOOTH",
"647 265.5 OFFCURVE",
"599.333 252 OFFCURVE",
"538 252 CURVE SMOOTH",
"492.667 252 OFFCURVE",
"453.333 258.333 OFFCURVE",
"420 271 CURVE SMOOTH",
"386.667 283.667 OFFCURVE",
"357.167 297.667 OFFCURVE",
"331.5 313 CURVE SMOOTH",
"305.833 328.333 OFFCURVE",
"282.833 342.333 OFFCURVE",
"262.5 355 CURVE SMOOTH",
"242.167 367.667 OFFCURVE",
"222 374 OFFCURVE",
"202 374 CURVE SMOOTH",
"186.667 374 OFFCURVE",
"172.5 370.167 OFFCURVE",
"159.5 362.5 CURVE SMOOTH",
"146.5 354.833 OFFCURVE",
"136 345.333 OFFCURVE",
"128 334 CURVE",
"28 176 LINE",
"56.6667 147.333 OFFCURVE",
"90.3333 121.333 OFFCURVE",
"129 98 CURVE SMOOTH",
"167.667 74.6667 OFFCURVE",
"209 54.5 OFFCURVE",
"253 37.5 CURVE SMOOTH",
"297 20.5 OFFCURVE",
"342.5 7.33333 OFFCURVE",
"389.5 -2 CURVE SMOOTH",
"436.5 -11 OFFCURVE",
"482.667 -16 OFFCURVE",
"528 -16 CURVE SMOOTH",
"610.667 -16 OFFCURVE",
"684.5 -4 OFFCURVE",
"749.5 21.5 CURVE SMOOTH",
"814.5 46.5 OFFCURVE",
"869.167 80.8333 OFFCURVE",
"913.5 124.5 CURVE SMOOTH",
"957.833 168.167 OFFCURVE",
"991.667 219.333 OFFCURVE",
"1015 278 CURVE SMOOTH",
"1038.33 336.667 OFFCURVE",
"1050 399.667 OFFCURVE",
"1050 467 CURVE SMOOTH",
"1050 527.667 OFFCURVE",
"1040.67 579.5 OFFCURVE",
"1022 622.5 CURVE SMOOTH",
"1003.33 665.5 OFFCURVE",
"978.833 702 OFFCURVE",
"948.5 732 CURVE SMOOTH",
"918.167 762 OFFCURVE",
"883.5 786.667 OFFCURVE",
"844.5 806 CURVE SMOOTH",
"805.5 825.333 OFFCURVE",
"765.667 842.167 OFFCURVE",
"725 856.5 CURVE SMOOTH",
"684.333 870.833 OFFCURVE",
"644.5 883.833 OFFCURVE",
"605.5 895.5 CURVE SMOOTH",
"566.5 907.167 OFFCURVE",
"531.833 920 OFFCURVE",
"501.5 934 CURVE SMOOTH",
"471.167 948 OFFCURVE",
"446.667 964.667 OFFCURVE",
"428 984 CURVE SMOOTH",
"409.333 1003.33 OFFCURVE",
"400 1027.67 OFFCURVE",
"400 1057 CURVE SMOOTH",
"400 1103 OFFCURVE",
"415.5 1139.5 OFFCURVE",
"446.5 1166.5 CURVE SMOOTH",
"477.5 1193.5 OFFCURVE",
"524.667 1207 OFFCURVE",
"588 1207 CURVE SMOOTH",
"624.667 1207 OFFCURVE",
"657.333 1202.17 OFFCURVE",
"686 1192.5 CURVE SMOOTH",
"714.667 1182.83 OFFCURVE",
"740.167 1172 OFFCURVE",
"762.5 1160 CURVE SMOOTH",
"784.833 1148 OFFCURVE",
"804.833 1137.17 OFFCURVE",
"822.5 1127.5 CURVE SMOOTH",
"840.167 1117.83 OFFCURVE",
"856.667 1113 OFFCURVE",
"872 1113 CURVE SMOOTH",
"889.333 1113 OFFCURVE",
"903.5 1117 OFFCURVE",
"914.5 1125 CURVE SMOOTH",
"925.5 1133 OFFCURVE",
"936 1145 OFFCURVE",
"946 1161 CURVE"
);
}
);
width = 1108;
}
);
leftKerningGroup = S;
rightKerningGroup = S;
unicode = 0053;
},
{
glyphname = T;
layers = (
{
layerId = "E173E66F-8B44-4FD8-81CD-C7310885C9A9";
name = Bold;
paths = (
{
closed = 1;
nodes = (
"1188 1457 LINE",
"30 1457 LINE",
"30 1189 LINE",
"440 1189 LINE",
"440 0 LINE",
"778 0 LINE",
"778 1189 LINE",
"1188 1189 LINE"
);
}
);
width = 1218;
}
);
leftKerningGroup = T;
rightKerningGroup = T;
unicode = 0054;
},
{
glyphname = U;
layers = (
{
layerId = "E173E66F-8B44-4FD8-81CD-C7310885C9A9";
name = Bold;
paths = (
{
closed = 1;
nodes = (
"703.667 267 OFFCURVE",
"663.167 274.5 OFFCURVE",
"627.5 289.5 CURVE SMOOTH",
"591.833 304.5 OFFCURVE",
"561.667 326.167 OFFCURVE",
"537 354.5 CURVE SMOOTH",
"512.333 382.833 OFFCURVE",
"493.5 417.167 OFFCURVE",
"480.5 457.5 CURVE SMOOTH",
"467.5 497.833 OFFCURVE",
"461 543.667 OFFCURVE",
"461 595 CURVE SMOOTH",
"461 1457 LINE",
"123 1457 LINE",
"123 594 LINE SMOOTH",
"123 504.667 OFFCURVE",
"137.333 422.667 OFFCURVE",
"166 348 CURVE SMOOTH",
"194.667 273.333 OFFCURVE",
"236 209 OFFCURVE",
"290 155 CURVE SMOOTH",
"344 101 OFFCURVE",
"409.667 59 OFFCURVE",
"487 29 CURVE SMOOTH",
"564.333 -1 OFFCURVE",
"651.667 -16 OFFCURVE",
"749 -16 CURVE SMOOTH",
"845.667 -16 OFFCURVE",
"932.667 -1 OFFCURVE",
"1010 29 CURVE SMOOTH",
"1087.33 59 OFFCURVE",
"1153 101 OFFCURVE",
"1207 155 CURVE SMOOTH",
"1261 209 OFFCURVE",
"1302.5 273.333 OFFCURVE",
"1331.5 348 CURVE SMOOTH",
"1360.5 422.667 OFFCURVE",
"1375 504.667 OFFCURVE",
"1375 594 CURVE SMOOTH",
"1375 1457 LINE",
"1037 1457 LINE",
"1037 594 LINE SMOOTH",
"1037 542.667 OFFCURVE",
"1030.5 496.833 OFFCURVE",
"1017.5 456.5 CURVE SMOOTH",
"1004.5 416.167 OFFCURVE",
"985.667 382 OFFCURVE",
"961 354 CURVE SMOOTH",
"936.333 326 OFFCURVE",
"906.167 304.5 OFFCURVE",
"870.5 289.5 CURVE SMOOTH",
"834.833 274.5 OFFCURVE",
"794.333 267 OFFCURVE",
"749 267 CURVE SMOOTH"
);
}
);
width = 1498;
}
);
leftKerningGroup = U;
rightKerningGroup = U;
unicode = 0055;
},
{
glyphname = Uacute;
layers = (
{
layerId = "E173E66F-8B44-4FD8-81CD-C7310885C9A9";
name = Bold;
paths = (
{
closed = 1;
nodes = (
"123 0 LINE"
);
},
{
closed = 1;
nodes = (
"703.667 267 OFFCURVE",
"663.167 274.5 OFFCURVE",
"627.5 289.5 CURVE SMOOTH",
"591.833 304.5 OFFCURVE",
"561.667 326.167 OFFCURVE",
"537 354.5 CURVE SMOOTH",
"512.333 382.833 OFFCURVE",
"493.5 417.167 OFFCURVE",
"480.5 457.5 CURVE SMOOTH",
"467.5 497.833 OFFCURVE",
"461 543.667 OFFCURVE",
"461 595 CURVE SMOOTH",
"461 1457 LINE",
"123 1457 LINE",
"123 594 LINE SMOOTH",
"123 504.667 OFFCURVE",
"137.333 422.667 OFFCURVE",
"166 348 CURVE SMOOTH",
"194.667 273.333 OFFCURVE",
"236 209 OFFCURVE",
"290 155 CURVE SMOOTH",
"344 101 OFFCURVE",
"409.667 59 OFFCURVE",
"487 29 CURVE SMOOTH",
"564.333 -1 OFFCURVE",
"651.667 -16 OFFCURVE",
"749 -16 CURVE SMOOTH",
"845.667 -16 OFFCURVE",
"932.667 -1 OFFCURVE",
"1010 29 CURVE SMOOTH",
"1087.33 59 OFFCURVE",
"1153 101 OFFCURVE",
"1207 155 CURVE SMOOTH",
"1261 209 OFFCURVE",
"1302.5 273.333 OFFCURVE",
"1331.5 348 CURVE SMOOTH",
"1360.5 422.667 OFFCURVE",
"1375 504.667 OFFCURVE",
"1375 594 CURVE SMOOTH",
"1375 1457 LINE",
"1037 1457 LINE",
"1037 594 LINE SMOOTH",
"1037 542.667 OFFCURVE",
"1030.5 496.833 OFFCURVE",
"1017.5 456.5 CURVE SMOOTH",
"1004.5 416.167 OFFCURVE",
"985.667 382 OFFCURVE",
"961 354 CURVE SMOOTH",
"936.333 326 OFFCURVE",
"906.167 304.5 OFFCURVE",
"870.5 289.5 CURVE SMOOTH",
"834.833 274.5 OFFCURVE",
"794.333 267 OFFCURVE",
"749 267 CURVE SMOOTH"
);
},
{
closed = 1;
nodes = (
"1208 1867 LINE",
"866 1867 LINE SMOOTH",
"850.666 1867 OFFCURVE",
"837.166 1866.67 OFFCURVE",
"825.5 1866 CURVE SMOOTH",
"813.833 1865.33 OFFCURVE",
"803.5 1863.5 OFFCURVE",
"794.5 1860.5 CURVE SMOOTH",
"785.5 1857.5 OFFCURVE",
"777.166 1852.83 OFFCURVE",
"769.5 1846.5 CURVE SMOOTH",
"761.833 1840.17 OFFCURVE",
"754 1831.67 OFFCURVE",
"746 1821 CURVE SMOOTH",
"557 1551 LINE",
"783 1551 LINE SMOOTH",
"794.333 1551 OFFCURVE",
"804.5 1551.33 OFFCURVE",
"813.5 1552 CURVE SMOOTH",
"822.5 1552.67 OFFCURVE",
"831 1554 OFFCURVE",
"839 1556 CURVE SMOOTH",
"847 1558 OFFCURVE",
"854.666 1561 OFFCURVE",
"862 1565 CURVE SMOOTH",
"869.333 1569 OFFCURVE",
"877 1574.67 OFFCURVE",
"885 1582 CURVE SMOOTH"
);
}
);
width = 1498;
}
);
leftKerningGroup = U;
rightKerningGroup = U;
unicode = 00DA;
},
{
glyphname = Ucircumflex;
layers = (
{
layerId = "E173E66F-8B44-4FD8-81CD-C7310885C9A9";
name = Bold;
paths = (
{
closed = 1;
nodes = (
"123 0 LINE"
);
},
{
closed = 1;
nodes = (
"703.667 267 OFFCURVE",
"663.167 274.5 OFFCURVE",
"627.5 289.5 CURVE SMOOTH",
"591.833 304.5 OFFCURVE",
"561.667 326.167 OFFCURVE",
"537 354.5 CURVE SMOOTH",
"512.333 382.833 OFFCURVE",
"493.5 417.167 OFFCURVE",
"480.5 457.5 CURVE SMOOTH",
"467.5 497.833 OFFCURVE",
"461 543.667 OFFCURVE",
"461 595 CURVE SMOOTH",
"461 1457 LINE",
"123 1457 LINE",
"123 594 LINE SMOOTH",
"123 504.667 OFFCURVE",
"137.333 422.667 OFFCURVE",
"166 348 CURVE SMOOTH",
"194.667 273.333 OFFCURVE",
"236 209 OFFCURVE",
"290 155 CURVE SMOOTH",
"344 101 OFFCURVE",
"409.667 59 OFFCURVE",
"487 29 CURVE SMOOTH",
"564.333 -1 OFFCURVE",
"651.667 -16 OFFCURVE",
"749 -16 CURVE SMOOTH",
"845.667 -16 OFFCURVE",
"932.667 -1 OFFCURVE",
"1010 29 CURVE SMOOTH",
"1087.33 59 OFFCURVE",
"1153 101 OFFCURVE",
"1207 155 CURVE SMOOTH",
"1261 209 OFFCURVE",
"1302.5 273.333 OFFCURVE",
"1331.5 348 CURVE SMOOTH",
"1360.5 422.667 OFFCURVE",
"1375 504.667 OFFCURVE",
"1375 594 CURVE SMOOTH",
"1375 1457 LINE",
"1037 1457 LINE",
"1037 594 LINE SMOOTH",
"1037 542.667 OFFCURVE",
"1030.5 496.833 OFFCURVE",
"1017.5 456.5 CURVE SMOOTH",
"1004.5 416.167 OFFCURVE",
"985.667 382 OFFCURVE",
"961 354 CURVE SMOOTH",
"936.333 326 OFFCURVE",
"906.167 304.5 OFFCURVE",
"870.5 289.5 CURVE SMOOTH",
"834.833 274.5 OFFCURVE",
"794.333 267 OFFCURVE",
"749 267 CURVE SMOOTH"
);
},
{
closed = 1;
nodes = (
"1139 1551 LINE",
"895 1829 LINE",
"613 1829 LINE",
"369 1551 LINE",
"583 1551 LINE SMOOTH",
"595 1551 OFFCURVE",
"609.666 1553.17 OFFCURVE",
"627 1557.5 CURVE SMOOTH",
"644.333 1561.83 OFFCURVE",
"662.333 1575 OFFCURVE",
"681 1597 CURVE",
"731 1675 LINE",
"749 1700 LINE",
"751.666 1696 OFFCURVE",
"754.5 1692 OFFCURVE",
"757.5 1688 CURVE SMOOTH",
"760.5 1684 OFFCURVE",
"763.666 1679.67 OFFCURVE",
"767 1675 CURVE",
"817 1597 LINE",
"835.666 1575 OFFCURVE",
"853.666 1561.83 OFFCURVE",
"871 1557.5 CURVE SMOOTH",
"888.333 1553.17 OFFCURVE",
"903 1551 OFFCURVE",
"915 1551 CURVE SMOOTH"
);
}
);
width = 1498;
}
);
leftKerningGroup = U;
rightKerningGroup = U;
unicode = 00DB;
},
{
glyphname = Udieresis;
layers = (
{
layerId = "E173E66F-8B44-4FD8-81CD-C7310885C9A9";
name = Bold;
paths = (
{
closed = 1;
nodes = (
"123 0 LINE"
);
},
{
closed = 1;
nodes = (
"703.667 267 OFFCURVE",
"663.167 274.5 OFFCURVE",
"627.5 289.5 CURVE SMOOTH",
"591.833 304.5 OFFCURVE",
"561.667 326.167 OFFCURVE",
"537 354.5 CURVE SMOOTH",
"512.333 382.833 OFFCURVE",
"493.5 417.167 OFFCURVE",
"480.5 457.5 CURVE SMOOTH",
"467.5 497.833 OFFCURVE",
"461 543.667 OFFCURVE",
"461 595 CURVE SMOOTH",
"461 1457 LINE",
"123 1457 LINE",
"123 594 LINE SMOOTH",
"123 504.667 OFFCURVE",
"137.333 422.667 OFFCURVE",
"166 348 CURVE SMOOTH",
"194.667 273.333 OFFCURVE",
"236 209 OFFCURVE",
"290 155 CURVE SMOOTH",
"344 101 OFFCURVE",
"409.667 59 OFFCURVE",
"487 29 CURVE SMOOTH",
"564.333 -1 OFFCURVE",
"651.667 -16 OFFCURVE",
"749 -16 CURVE SMOOTH",
"845.667 -16 OFFCURVE",
"932.667 -1 OFFCURVE",
"1010 29 CURVE SMOOTH",
"1087.33 59 OFFCURVE",
"1153 101 OFFCURVE",
"1207 155 CURVE SMOOTH",
"1261 209 OFFCURVE",
"1302.5 273.333 OFFCURVE",
"1331.5 348 CURVE SMOOTH",
"1360.5 422.667 OFFCURVE",
"1375 504.667 OFFCURVE",
"1375 594 CURVE SMOOTH",
"1375 1457 LINE",
"1037 1457 LINE",
"1037 594 LINE SMOOTH",
"1037 542.667 OFFCURVE",
"1030.5 496.833 OFFCURVE",
"1017.5 456.5 CURVE SMOOTH",
"1004.5 416.167 OFFCURVE",
"985.667 382 OFFCURVE",
"961 354 CURVE SMOOTH",
"936.333 326 OFFCURVE",
"906.167 304.5 OFFCURVE",
"870.5 289.5 CURVE SMOOTH",
"834.833 274.5 OFFCURVE",
"794.333 267 OFFCURVE",
"749 267 CURVE SMOOTH"
);
},
{
closed = 1;
nodes = (
"675 1688.67 OFFCURVE",
"670.833 1708.33 OFFCURVE",
"662.5 1727 CURVE SMOOTH",
"654.167 1745.67 OFFCURVE",
"642.667 1762 OFFCURVE",
"628 1776 CURVE SMOOTH",
"613.333 1790 OFFCURVE",
"596.333 1801 OFFCURVE",
"577 1809 CURVE SMOOTH",
"557.667 1817 OFFCURVE",
"537 1821 OFFCURVE",
"515 1821 CURVE SMOOTH",
"495 1821 OFFCURVE",
"475.833 1817 OFFCURVE",
"457.5 1809 CURVE SMOOTH",
"439.167 1801 OFFCURVE",
"423 1790 OFFCURVE",
"409 1776 CURVE SMOOTH",
"395 1762 OFFCURVE",
"383.833 1745.67 OFFCURVE",
"375.5 1727 CURVE SMOOTH",
"367.167 1708.33 OFFCURVE",
"363 1688.67 OFFCURVE",
"363 1668 CURVE SMOOTH",
"363 1646.67 OFFCURVE",
"367.167 1627 OFFCURVE",
"375.5 1609 CURVE SMOOTH",
"383.833 1591 OFFCURVE",
"395 1575.17 OFFCURVE",
"409 1561.5 CURVE SMOOTH",
"423 1547.83 OFFCURVE",
"439.167 1537.17 OFFCURVE",
"457.5 1529.5 CURVE SMOOTH",
"475.833 1521.83 OFFCURVE",
"495 1518 OFFCURVE",
"515 1518 CURVE SMOOTH",
"537 1518 OFFCURVE",
"557.667 1521.83 OFFCURVE",
"577 1529.5 CURVE SMOOTH",
"596.333 1537.17 OFFCURVE",
"613.333 1547.83 OFFCURVE",
"628 1561.5 CURVE SMOOTH",
"642.667 1575.17 OFFCURVE",
"654.167 1591 OFFCURVE",
"662.5 1609 CURVE SMOOTH",
"670.833 1627 OFFCURVE",
"675 1646.67 OFFCURVE",
"675 1668 CURVE SMOOTH"
);
},
{
closed = 1;
nodes = (
"1135 1688.67 OFFCURVE",
"1130.83 1708.33 OFFCURVE",
"1122.5 1727 CURVE SMOOTH",
"1114.17 1745.67 OFFCURVE",
"1103 1762 OFFCURVE",
"1089 1776 CURVE SMOOTH",
"1075 1790 OFFCURVE",
"1058.5 1801 OFFCURVE",
"1039.5 1809 CURVE SMOOTH",
"1020.5 1817 OFFCURVE",
"1000.33 1821 OFFCURVE",
"979 1821 CURVE SMOOTH",
"957.666 1821 OFFCURVE",
"937.5 1817 OFFCURVE",
"918.5 1809 CURVE SMOOTH",
"899.5 1801 OFFCURVE",
"883 1790 OFFCURVE",
"869 1776 CURVE SMOOTH",
"855 1762 OFFCURVE",
"843.833 1745.67 OFFCURVE",
"835.5 1727 CURVE SMOOTH",
"827.166 1708.33 OFFCURVE",
"823 1688.67 OFFCURVE",
"823 1668 CURVE SMOOTH",
"823 1646.67 OFFCURVE",
"827.166 1627 OFFCURVE",
"835.5 1609 CURVE SMOOTH",
"843.833 1591 OFFCURVE",
"855 1575.17 OFFCURVE",
"869 1561.5 CURVE SMOOTH",
"883 1547.83 OFFCURVE",
"899.5 1537.17 OFFCURVE",
"918.5 1529.5 CURVE SMOOTH",
"937.5 1521.83 OFFCURVE",
"957.666 1518 OFFCURVE",
"979 1518 CURVE SMOOTH",
"1000.33 1518 OFFCURVE",
"1020.5 1521.83 OFFCURVE",
"1039.5 1529.5 CURVE SMOOTH",
"1058.5 1537.17 OFFCURVE",
"1075 1547.83 OFFCURVE",
"1089 1561.5 CURVE SMOOTH",
"1103 1575.17 OFFCURVE",
"1114.17 1591 OFFCURVE",
"1122.5 1609 CURVE SMOOTH",
"1130.83 1627 OFFCURVE",
"1135 1646.67 OFFCURVE",
"1135 1668 CURVE SMOOTH"
);
}
);
width = 1498;
}
);
leftKerningGroup = U;
rightKerningGroup = U;
unicode = 00DC;
},
{
glyphname = Ugrave;
layers = (
{
layerId = "E173E66F-8B44-4FD8-81CD-C7310885C9A9";
name = Bold;
paths = (
{
closed = 1;
nodes = (
"123 0 LINE"
);
},
{
closed = 1;
nodes = (
"703.667 267 OFFCURVE",
"663.167 274.5 OFFCURVE",
"627.5 289.5 CURVE SMOOTH",
"591.833 304.5 OFFCURVE",
"561.667 326.167 OFFCURVE",
"537 354.5 CURVE SMOOTH",
"512.333 382.833 OFFCURVE",
"493.5 417.167 OFFCURVE",
"480.5 457.5 CURVE SMOOTH",
"467.5 497.833 OFFCURVE",
"461 543.667 OFFCURVE",
"461 595 CURVE SMOOTH",
"461 1457 LINE",
"123 1457 LINE",
"123 594 LINE SMOOTH",
"123 504.667 OFFCURVE",
"137.333 422.667 OFFCURVE",
"166 348 CURVE SMOOTH",
"194.667 273.333 OFFCURVE",
"236 209 OFFCURVE",
"290 155 CURVE SMOOTH",
"344 101 OFFCURVE",
"409.667 59 OFFCURVE",
"487 29 CURVE SMOOTH",
"564.333 -1 OFFCURVE",
"651.667 -16 OFFCURVE",
"749 -16 CURVE SMOOTH",
"845.667 -16 OFFCURVE",
"932.667 -1 OFFCURVE",
"1010 29 CURVE SMOOTH",
"1087.33 59 OFFCURVE",
"1153 101 OFFCURVE",
"1207 155 CURVE SMOOTH",
"1261 209 OFFCURVE",
"1302.5 273.333 OFFCURVE",
"1331.5 348 CURVE SMOOTH",
"1360.5 422.667 OFFCURVE",
"1375 504.667 OFFCURVE",
"1375 594 CURVE SMOOTH",
"1375 1457 LINE",
"1037 1457 LINE",
"1037 594 LINE SMOOTH",
"1037 542.667 OFFCURVE",
"1030.5 496.833 OFFCURVE",
"1017.5 456.5 CURVE SMOOTH",
"1004.5 416.167 OFFCURVE",
"985.667 382 OFFCURVE",
"961 354 CURVE SMOOTH",
"936.333 326 OFFCURVE",
"906.167 304.5 OFFCURVE",
"870.5 289.5 CURVE SMOOTH",
"834.833 274.5 OFFCURVE",
"794.333 267 OFFCURVE",
"749 267 CURVE SMOOTH"
);
},
{
closed = 1;
nodes = (
"276 1867 LINE",
"601 1580 LINE SMOOTH",
"609 1572.67 OFFCURVE",
"616.5 1567.17 OFFCURVE",
"623.5 1563.5 CURVE SMOOTH",
"630.5 1559.83 OFFCURVE",
"637.833 1557 OFFCURVE",
"645.5 1555 CURVE SMOOTH",
"653.167 1553 OFFCURVE",
"661.333 1551.83 OFFCURVE",
"670 1551.5 CURVE SMOOTH",
"678.667 1551.17 OFFCURVE",
"689 1551 OFFCURVE",
"701 1551 CURVE SMOOTH",
"927 1551 LINE",
"718 1821 LINE SMOOTH",
"709.333 1831.67 OFFCURVE",
"701.167 1840 OFFCURVE",
"693.5 1846 CURVE SMOOTH",
"685.833 1852 OFFCURVE",
"677.5 1856.5 OFFCURVE",
"668.5 1859.5 CURVE SMOOTH",
"659.5 1862.5 OFFCURVE",
"649.333 1864.5 OFFCURVE",
"638 1865.5 CURVE SMOOTH",
"626.667 1866.5 OFFCURVE",
"613.333 1867 OFFCURVE",
"598 1867 CURVE SMOOTH"
);
}
);
width = 1498;
}
);
leftKerningGroup = U;
rightKerningGroup = U;
unicode = 00D9;
},
{
glyphname = V;
layers = (
{
layerId = "E173E66F-8B44-4FD8-81CD-C7310885C9A9";
name = Bold;
paths = (
{
closed = 1;
nodes = (
"-26 1457 LINE",
"558 0 LINE",
"864 0 LINE",
"1448 1457 LINE",
"1174 1457 LINE SMOOTH",
"1146 1457 OFFCURVE",
"1122.5 1449.5 OFFCURVE",
"1103.5 1434.5 CURVE SMOOTH",
"1084.5 1419.5 OFFCURVE",
"1071.33 1402.67 OFFCURVE",
"1064 1384 CURVE SMOOTH",
"784 604 LINE SMOOTH",
"770.667 570 OFFCURVE",
"758.167 533 OFFCURVE",
"746.5 493 CURVE SMOOTH",
"734.833 453 OFFCURVE",
"724.333 411 OFFCURVE",
"715 367 CURVE",
"703.667 411 OFFCURVE",
"691.667 453 OFFCURVE",
"679 493 CURVE SMOOTH",
"666.333 533 OFFCURVE",
"653.333 570 OFFCURVE",
"640 604 CURVE SMOOTH",
"358 1384 LINE",
"348.667 1405.33 OFFCURVE",
"335 1422.83 OFFCURVE",
"317 1436.5 CURVE SMOOTH",
"299 1450.17 OFFCURVE",
"275.333 1457 OFFCURVE",
"246 1457 CURVE SMOOTH"
);
}
);
width = 1422;
}
);
leftKerningGroup = V;
rightKerningGroup = V;
unicode = 0056;
},
{
glyphname = W;
layers = (
{
layerId = "E173E66F-8B44-4FD8-81CD-C7310885C9A9";
name = Bold;
paths = (
{
closed = 1;
nodes = (
"4 1457 LINE",
"454 0 LINE",
"760 0 LINE",
"1038 903 LINE",
"1048 931.667 OFFCURVE",
"1057.67 964.667 OFFCURVE",
"1067 1002 CURVE",
"1076.33 964.667 OFFCURVE",
"1086 931.667 OFFCURVE",
"1096 903 CURVE",
"1370 0 LINE",
"1676 0 LINE",
"2126 1457 LINE",
"1860 1457 LINE SMOOTH",
"1832 1457 OFFCURVE",
"1808 1449.67 OFFCURVE",
"1788 1435 CURVE SMOOTH",
"1768 1420.33 OFFCURVE",
"1755.33 1403.33 OFFCURVE",
"1750 1384 CURVE SMOOTH",
"1550 624 LINE SMOOTH",
"1544 600.667 OFFCURVE",
"1538.17 575.667 OFFCURVE",
"1532.5 549 CURVE SMOOTH",
"1526.83 522.333 OFFCURVE",
"1521.33 494.333 OFFCURVE",
"1516 465 CURVE",
"1504 524.333 OFFCURVE",
"1489.33 577.333 OFFCURVE",
"1472 624 CURVE",
"1238 1384 LINE",
"1228.67 1405.33 OFFCURVE",
"1215 1422.83 OFFCURVE",
"1197 1436.5 CURVE SMOOTH",
"1179 1450.17 OFFCURVE",
"1155.33 1457 OFFCURVE",
"1126 1457 CURVE SMOOTH",
"1026 1457 LINE SMOOTH",
"998 1457 OFFCURVE",
"974.167 1449.5 OFFCURVE",
"954.5 1434.5 CURVE SMOOTH",
"934.833 1419.5 OFFCURVE",
"922 1402.67 OFFCURVE",
"916 1384 CURVE SMOOTH",
"680 624 LINE",
"662.667 575.333 OFFCURVE",
"648 519.667 OFFCURVE",
"636 457 CURVE",
"630 487.667 OFFCURVE",
"624 517 OFFCURVE",
"618 545 CURVE SMOOTH",
"612 573 OFFCURVE",
"606 599.333 OFFCURVE",
"600 624 CURVE SMOOTH",
"400 1384 LINE SMOOTH",
"394 1406 OFFCURVE",
"381.167 1423.67 OFFCURVE",
"361.5 1437 CURVE SMOOTH",
"341.833 1450.33 OFFCURVE",
"317.333 1457 OFFCURVE",
"288 1457 CURVE SMOOTH"
);
}
);
width = 2130;
}
);
leftKerningGroup = W;
rightKerningGroup = W;
unicode = 0057;
},
{
glyphname = X;
lastChange = "2014-08-18 22:52:11 -0500";
layers = (
{
layerId = "E173E66F-8B44-4FD8-81CD-C7310885C9A9";
name = Bold;
paths = (
{
closed = 1;
nodes = (
"456 749 LINE",
"-13 0 LINE",
"303 0 LINE SMOOTH",
"323 0 OFFCURVE",
"339.333 5.66667 OFFCURVE",
"352 17 CURVE SMOOTH",
"364.667 28.3333 OFFCURVE",
"375.667 40.6667 OFFCURVE",
"385 54 CURVE",
"657 526 LINE",
"663.667 536.667 OFFCURVE",
"669.667 549.333 OFFCURVE",
"675 564 CURVE",
"967 54 LINE SMOOTH",
"975 39.3334 OFFCURVE",
"985.833 26.6667 OFFCURVE",
"999.5 16 CURVE SMOOTH",
"1013.17 5.33339 OFFCURVE",
"1013 5 OFFCURVE",
"1042 0 CURVE",
"1391 6.10352 LINE",
"924 764 LINE",
"1381 1457 LINE",
"1057 1457 LINE SMOOTH",
"1041.67 1457 OFFCURVE",
"1028.83 1453.67 OFFCURVE",
"1018.5 1447 CURVE SMOOTH",
"1008.17 1440.33 OFFCURVE",
"998.333 1429.67 OFFCURVE",
"989 1415 CURVE",
"735 979 LINE SMOOTH",
"729.667 970.333 OFFCURVE",
"724.833 962 OFFCURVE",
"720.5 954 CURVE SMOOTH",
"716.167 946 OFFCURVE",
"712.333 937.667 OFFCURVE",
"709 929 CURVE",
"419 1420 LINE SMOOTH",
"411 1433.33 OFFCURVE",
"401.833 1442.83 OFFCURVE",
"391.5 1448.5 CURVE SMOOTH",
"381.167 1454.17 OFFCURVE",
"365 1457 OFFCURVE",
"343 1457 CURVE SMOOTH",
"4.99994 1457 LINE"
);
}
);
width = 1380;
}
);
leftKerningGroup = X;
rightKerningGroup = X;
unicode = 0058;
},
{
glyphname = Y;
layers = (
{
layerId = "E173E66F-8B44-4FD8-81CD-C7310885C9A9";
name = Bold;
paths = (
{
closed = 1;
nodes = (
"839 554 LINE",
"1367 1457 LINE",
"1067 1457 LINE SMOOTH",
"1053 1457 OFFCURVE",
"1040.17 1454.83 OFFCURVE",
"1028.5 1450.5 CURVE SMOOTH",
"1016.83 1446.17 OFFCURVE",
"1006.5 1440.5 OFFCURVE",
"997.5 1433.5 CURVE SMOOTH",
"988.5 1426.5 OFFCURVE",
"980.667 1418.67 OFFCURVE",
"974 1410 CURVE SMOOTH",
"967.333 1401.33 OFFCURVE",
"961.667 1392.67 OFFCURVE",
"957 1384 CURVE",
"753 960 LINE",
"735.667 927.333 OFFCURVE",
"720.333 896.5 OFFCURVE",
"707 867.5 CURVE SMOOTH",
"693.667 838.5 OFFCURVE",
"682 809.667 OFFCURVE",
"672 781 CURVE",
"661.333 809 OFFCURVE",
"649.167 837.5 OFFCURVE",
"635.5 866.5 CURVE SMOOTH",
"621.833 895.5 OFFCURVE",
"606.333 926.667 OFFCURVE",
"589 960 CURVE SMOOTH",
"383 1384 LINE",
"371.667 1405.33 OFFCURVE",
"357.5 1422.83 OFFCURVE",
"340.5 1436.5 CURVE SMOOTH",
"323.5 1450.17 OFFCURVE",
"300.333 1457 OFFCURVE",
"271 1457 CURVE SMOOTH",
"-27 1457 LINE",
"501 554 LINE",
"501 0 LINE",
"839 0 LINE"
);
}
);
width = 1340;
}
);
leftKerningGroup = Y;
rightKerningGroup = Y;
unicode = 0059;
},
{
glyphname = Yacute;
layers = (
{
layerId = "E173E66F-8B44-4FD8-81CD-C7310885C9A9";
name = Bold;
paths = (
{
closed = 1;
nodes = (
"0 0 LINE"
);
},
{
closed = 1;
nodes = (
"839 554 LINE",
"1367 1457 LINE",
"1067 1457 LINE SMOOTH",
"1053 1457 OFFCURVE",
"1040.17 1454.83 OFFCURVE",
"1028.5 1450.5 CURVE SMOOTH",
"1016.83 1446.17 OFFCURVE",
"1006.5 1440.5 OFFCURVE",
"997.5 1433.5 CURVE SMOOTH",
"988.5 1426.5 OFFCURVE",
"980.667 1418.67 OFFCURVE",
"974 1410 CURVE SMOOTH",
"967.333 1401.33 OFFCURVE",
"961.667 1392.67 OFFCURVE",
"957 1384 CURVE",
"753 960 LINE",
"735.667 927.333 OFFCURVE",
"720.333 896.5 OFFCURVE",
"707 867.5 CURVE SMOOTH",
"693.667 838.5 OFFCURVE",
"682 809.667 OFFCURVE",
"672 781 CURVE",
"661.333 809 OFFCURVE",
"649.167 837.5 OFFCURVE",
"635.5 866.5 CURVE SMOOTH",
"621.833 895.5 OFFCURVE",
"606.333 926.667 OFFCURVE",
"589 960 CURVE SMOOTH",
"383 1384 LINE",
"371.667 1405.33 OFFCURVE",
"357.5 1422.83 OFFCURVE",
"340.5 1436.5 CURVE SMOOTH",
"323.5 1450.17 OFFCURVE",
"300.333 1457 OFFCURVE",
"271 1457 CURVE SMOOTH",
"-27 1457 LINE",
"501 554 LINE",
"501 0 LINE",
"839 0 LINE"
);
},
{
closed = 1;
nodes = (
"1132 1867 LINE",
"790 1867 LINE SMOOTH",
"774.667 1867 OFFCURVE",
"761.167 1866.67 OFFCURVE",
"749.5 1866 CURVE SMOOTH",
"737.833 1865.33 OFFCURVE",
"727.5 1863.5 OFFCURVE",
"718.5 1860.5 CURVE SMOOTH",
"709.5 1857.5 OFFCURVE",
"701.167 1852.83 OFFCURVE",
"693.5 1846.5 CURVE SMOOTH",
"685.833 1840.17 OFFCURVE",
"678 1831.67 OFFCURVE",
"670 1821 CURVE SMOOTH",
"481 1551 LINE",
"707 1551 LINE SMOOTH",
"718.333 1551 OFFCURVE",
"728.5 1551.33 OFFCURVE",
"737.5 1552 CURVE SMOOTH",
"746.5 1552.67 OFFCURVE",
"755 1554 OFFCURVE",
"763 1556 CURVE SMOOTH",
"771 1558 OFFCURVE",
"778.667 1561 OFFCURVE",
"786 1565 CURVE SMOOTH",
"793.333 1569 OFFCURVE",
"801 1574.67 OFFCURVE",
"809 1582 CURVE SMOOTH"
);
}
);
width = 1340;
}
);
leftKerningGroup = Y;
rightKerningGroup = Y;
unicode = 00DD;
},
{
glyphname = Ydieresis;
layers = (
{
layerId = "E173E66F-8B44-4FD8-81CD-C7310885C9A9";
name = Bold;
paths = (
{
closed = 1;
nodes = (
"0 0 LINE"
);
},
{
closed = 1;
nodes = (
"839 554 LINE",
"1367 1457 LINE",
"1067 1457 LINE SMOOTH",
"1053 1457 OFFCURVE",
"1040.17 1454.83 OFFCURVE",
"1028.5 1450.5 CURVE SMOOTH",
"1016.83 1446.17 OFFCURVE",
"1006.5 1440.5 OFFCURVE",
"997.5 1433.5 CURVE SMOOTH",
"988.5 1426.5 OFFCURVE",
"980.667 1418.67 OFFCURVE",
"974 1410 CURVE SMOOTH",
"967.333 1401.33 OFFCURVE",
"961.667 1392.67 OFFCURVE",
"957 1384 CURVE",
"753 960 LINE",
"735.667 927.333 OFFCURVE",
"720.333 896.5 OFFCURVE",
"707 867.5 CURVE SMOOTH",
"693.667 838.5 OFFCURVE",
"682 809.667 OFFCURVE",
"672 781 CURVE",
"661.333 809 OFFCURVE",
"649.167 837.5 OFFCURVE",
"635.5 866.5 CURVE SMOOTH",
"621.833 895.5 OFFCURVE",
"606.333 926.667 OFFCURVE",
"589 960 CURVE SMOOTH",
"383 1384 LINE",
"371.667 1405.33 OFFCURVE",
"357.5 1422.83 OFFCURVE",
"340.5 1436.5 CURVE SMOOTH",
"323.5 1450.17 OFFCURVE",
"300.333 1457 OFFCURVE",
"271 1457 CURVE SMOOTH",
"-27 1457 LINE",
"501 554 LINE",
"501 0 LINE",
"839 0 LINE"
);
},
{
closed = 1;
nodes = (
"599 1688.67 OFFCURVE",
"594.833 1708.33 OFFCURVE",
"586.5 1727 CURVE SMOOTH",
"578.167 1745.67 OFFCURVE",
"566.667 1762 OFFCURVE",
"552 1776 CURVE SMOOTH",
"537.333 1790 OFFCURVE",
"520.333 1801 OFFCURVE",
"501 1809 CURVE SMOOTH",
"481.667 1817 OFFCURVE",
"461 1821 OFFCURVE",
"439 1821 CURVE SMOOTH",
"419 1821 OFFCURVE",
"399.833 1817 OFFCURVE",
"381.5 1809 CURVE SMOOTH",
"363.167 1801 OFFCURVE",
"347 1790 OFFCURVE",
"333 1776 CURVE SMOOTH",
"319 1762 OFFCURVE",
"307.833 1745.67 OFFCURVE",
"299.5 1727 CURVE SMOOTH",
"291.167 1708.33 OFFCURVE",
"287 1688.67 OFFCURVE",
"287 1668 CURVE SMOOTH",
"287 1646.67 OFFCURVE",
"291.167 1627 OFFCURVE",
"299.5 1609 CURVE SMOOTH",
"307.833 1591 OFFCURVE",
"319 1575.17 OFFCURVE",
"333 1561.5 CURVE SMOOTH",
"347 1547.83 OFFCURVE",
"363.167 1537.17 OFFCURVE",
"381.5 1529.5 CURVE SMOOTH",
"399.833 1521.83 OFFCURVE",
"419 1518 OFFCURVE",
"439 1518 CURVE SMOOTH",
"461 1518 OFFCURVE",
"481.667 1521.83 OFFCURVE",
"501 1529.5 CURVE SMOOTH",
"520.333 1537.17 OFFCURVE",
"537.333 1547.83 OFFCURVE",
"552 1561.5 CURVE SMOOTH",
"566.667 1575.17 OFFCURVE",
"578.167 1591 OFFCURVE",
"586.5 1609 CURVE SMOOTH",
"594.833 1627 OFFCURVE",
"599 1646.67 OFFCURVE",
"599 1668 CURVE SMOOTH"
);
},
{
closed = 1;
nodes = (
"1059 1688.67 OFFCURVE",
"1054.83 1708.33 OFFCURVE",
"1046.5 1727 CURVE SMOOTH",
"1038.17 1745.67 OFFCURVE",
"1027 1762 OFFCURVE",
"1013 1776 CURVE SMOOTH",
"999 1790 OFFCURVE",
"982.5 1801 OFFCURVE",
"963.5 1809 CURVE SMOOTH",
"944.5 1817 OFFCURVE",
"924.333 1821 OFFCURVE",
"903 1821 CURVE SMOOTH",
"881.667 1821 OFFCURVE",
"861.5 1817 OFFCURVE",
"842.5 1809 CURVE SMOOTH",
"823.5 1801 OFFCURVE",
"807 1790 OFFCURVE",
"793 1776 CURVE SMOOTH",
"779 1762 OFFCURVE",
"767.833 1745.67 OFFCURVE",
"759.5 1727 CURVE SMOOTH",
"751.167 1708.33 OFFCURVE",
"747 1688.67 OFFCURVE",
"747 1668 CURVE SMOOTH",
"747 1646.67 OFFCURVE",
"751.167 1627 OFFCURVE",
"759.5 1609 CURVE SMOOTH",
"767.833 1591 OFFCURVE",
"779 1575.17 OFFCURVE",
"793 1561.5 CURVE SMOOTH",
"807 1547.83 OFFCURVE",
"823.5 1537.17 OFFCURVE",
"842.5 1529.5 CURVE SMOOTH",
"861.5 1521.83 OFFCURVE",
"881.667 1518 OFFCURVE",
"903 1518 CURVE SMOOTH",
"924.333 1518 OFFCURVE",
"944.5 1521.83 OFFCURVE",
"963.5 1529.5 CURVE SMOOTH",
"982.5 1537.17 OFFCURVE",
"999 1547.83 OFFCURVE",
"1013 1561.5 CURVE SMOOTH",
"1027 1575.17 OFFCURVE",
"1038.17 1591 OFFCURVE",
"1046.5 1609 CURVE SMOOTH",
"1054.83 1627 OFFCURVE",
"1059 1646.67 OFFCURVE",
"1059 1668 CURVE SMOOTH"
);
}
);
width = 1340;
}
);
leftKerningGroup = Y;
rightKerningGroup = Y;
unicode = 0178;
},
{
glyphname = Z;
layers = (
{
layerId = "E173E66F-8B44-4FD8-81CD-C7310885C9A9";
name = Bold;
paths = (
{
closed = 1;
nodes = (
"1174 1457 LINE",
"84 1457 LINE",
"84 1197 LINE",
"744 1197 LINE",
"58 217 LINE SMOOTH",
"48.6667 204.333 OFFCURVE",
"41.3333 190.5 OFFCURVE",
"36 175.5 CURVE SMOOTH",
"30.6667 160.5 OFFCURVE",
"28 145.333 OFFCURVE",
"28 130 CURVE SMOOTH",
"28 0 LINE",
"1152 0 LINE",
"1152 260 LINE",
"458 260 LINE",
"1142 1237 LINE SMOOTH",
"1152 1251.67 OFFCURVE",
"1159.83 1267.33 OFFCURVE",
"1165.5 1284 CURVE SMOOTH",
"1171.17 1300.67 OFFCURVE",
"1174 1317.67 OFFCURVE",
"1174 1335 CURVE SMOOTH"
);
}
);
width = 1218;
}
);
leftKerningGroup = Z;
rightKerningGroup = Z;
unicode = 005A;
},
{
glyphname = a;
lastChange = "2014-08-19 18:30:22 -0500";
layers = (
{
layerId = "E173E66F-8B44-4FD8-81CD-C7310885C9A9";
name = Bold;
paths = (
{
closed = 1;
nodes = (
"800 0 LINE",
"942 0 LINE",
"942 648 LINE SMOOTH",
"942 707.333 OFFCURVE",
"932.667 762 OFFCURVE",
"914 812 CURVE SMOOTH",
"895.333 862 OFFCURVE",
"868.5 905.167 OFFCURVE",
"833.5 941.5 CURVE SMOOTH",
"798.5 977.833 OFFCURVE",
"755.833 1006.17 OFFCURVE",
"705.5 1026.5 CURVE SMOOTH",
"655.167 1046.83 OFFCURVE",
"598.667 1057 OFFCURVE",
"536 1057 CURVE SMOOTH",
"448.667 1057 OFFCURVE",
"366.833 1043.5 OFFCURVE",
"290.5 1016.5 CURVE SMOOTH",
"214.167 989.5 OFFCURVE",
"144.667 948.333 OFFCURVE",
"82 893 CURVE",
"138 796 LINE",
"147.333 781.333 OFFCURVE",
"159.333 768.667 OFFCURVE",
"174 758 CURVE SMOOTH",
"188.667 747.333 OFFCURVE",
"206.667 742 OFFCURVE",
"228 742 CURVE SMOOTH",
"252 742 OFFCURVE",
"272.667 746 OFFCURVE",
"290 754 CURVE SMOOTH",
"307.333 762 OFFCURVE",
"325.167 771 OFFCURVE",
"343.5 781 CURVE SMOOTH",
"361.833 791 OFFCURVE",
"382.667 800 OFFCURVE",
"406 808 CURVE SMOOTH",
"429.333 816 OFFCURVE",
"459.333 820 OFFCURVE",
"496 820 CURVE SMOOTH",
"542 820 OFFCURVE",
"577.5 806.5 OFFCURVE",
"602.5 779.5 CURVE SMOOTH",
"627.5 752.5 OFFCURVE",
"640 708.667 OFFCURVE",
"640 648 CURVE SMOOTH",
"640 632 LINE",
"521 629 OFFCURVE",
"423 617 OFFCURVE",
"345 596 CURVE SMOOTH",
"267 575 OFFCURVE",
"205 548 OFFCURVE",
"159 517 CURVE SMOOTH",
"113 485 OFFCURVE",
"81 450 OFFCURVE",
"62 411 CURVE SMOOTH",
"43 372 OFFCURVE",
"34 306.667 OFFCURVE",
"34 270 CURVE SMOOTH",
"34 223.333 OFFCURVE",
"41.3333 182.167 OFFCURVE",
"56 146.5 CURVE SMOOTH",
"70.6667 110.833 OFFCURVE",
"91.5 80.9999 OFFCURVE",
"118.5 56.9999 CURVE SMOOTH",
"145.5 32.9999 OFFCURVE",
"178.333 14.8333 OFFCURVE",
"217 2.49994 CURVE SMOOTH",
"255.667 -10 OFFCURVE",
"298.667 -16 OFFCURVE",
"346 -16 CURVE SMOOTH",
"381.333 -16 OFFCURVE",
"413.5 -13 OFFCURVE",
"442.5 -8 CURVE SMOOTH",
"471.5 -2 OFFCURVE",
"498.833 6.83327 OFFCURVE",
"524.5 18.4999 CURVE SMOOTH",
"550.167 30.1666 OFFCURVE",
"575 44.3333 OFFCURVE",
"599 60.9999 CURVE SMOOTH",
"623 77.6666 OFFCURVE",
"648 96.9999 OFFCURVE",
"674 119 CURVE",
"696 61.9999 LINE SMOOTH",
"706 36.6666 OFFCURVE",
"722 24 OFFCURVE",
"733.5 11.9999 CURVE SMOOTH",
"749 -4 OFFCURVE",
"745 0 OFFCURVE",
"771 0 CURVE"
);
},
{
closed = 1;
nodes = (
"406.667 189 OFFCURVE",
"378.333 196.167 OFFCURVE",
"359 210.5 CURVE SMOOTH",
"339.667 224.833 OFFCURVE",
"330 249.667 OFFCURVE",
"330 285 CURVE SMOOTH",
"330 303 OFFCURVE",
"335 348 OFFCURVE",
"344 363 CURVE SMOOTH",
"353 378 OFFCURVE",
"369 392 OFFCURVE",
"392 404 CURVE SMOOTH",
"415 416 OFFCURVE",
"447 426 OFFCURVE",
"487 434 CURVE SMOOTH",
"527 442 OFFCURVE",
"578 447 OFFCURVE",
"640 450 CURVE",
"640 278 LINE",
"609.333 246.667 OFFCURVE",
"579 224 OFFCURVE",
"549 210 CURVE SMOOTH",
"519 196 OFFCURVE",
"484 189 OFFCURVE",
"444 189 CURVE SMOOTH"
);
}
);
width = 1035;
}
);
leftKerningGroup = a;
rightKerningGroup = a;
unicode = 0061;
},
{
glyphname = aacute;
lastChange = "2014-08-19 18:30:36 -0500";
layers = (
{
layerId = "E173E66F-8B44-4FD8-81CD-C7310885C9A9";
name = Bold;
paths = (
{
closed = 1;
nodes = (
"907 1473 LINE",
"607 1473 LINE SMOOTH",
"575.667 1473 OFFCURVE",
"552.333 1467.83 OFFCURVE",
"537 1457.5 CURVE SMOOTH",
"521.667 1447.17 OFFCURVE",
"508.333 1432.33 OFFCURVE",
"497 1413 CURVE SMOOTH",
"361 1168 LINE",
"547 1168 LINE SMOOTH",
"570.333 1168 OFFCURVE",
"589 1171.17 OFFCURVE",
"603 1177.5 CURVE SMOOTH",
"617 1183.83 OFFCURVE",
"631.667 1194.67 OFFCURVE",
"647 1210 CURVE SMOOTH"
);
},
{
closed = 1;
nodes = (
"800 0 LINE",
"942 0 LINE",
"942 648 LINE SMOOTH",
"942 707.333 OFFCURVE",
"932.667 762 OFFCURVE",
"914 812 CURVE SMOOTH",
"895.333 862 OFFCURVE",
"868.5 905.167 OFFCURVE",
"833.5 941.5 CURVE SMOOTH",
"798.5 977.833 OFFCURVE",
"755.833 1006.17 OFFCURVE",
"705.5 1026.5 CURVE SMOOTH",
"655.167 1046.83 OFFCURVE",
"598.667 1057 OFFCURVE",
"536 1057 CURVE SMOOTH",
"448.667 1057 OFFCURVE",
"366.833 1043.5 OFFCURVE",
"290.5 1016.5 CURVE SMOOTH",
"214.167 989.5 OFFCURVE",
"144.667 948.333 OFFCURVE",
"82 893 CURVE",
"138 796 LINE",
"147.333 781.333 OFFCURVE",
"159.333 768.667 OFFCURVE",
"174 758 CURVE SMOOTH",
"188.667 747.333 OFFCURVE",
"206.667 742 OFFCURVE",
"228 742 CURVE SMOOTH",
"252 742 OFFCURVE",
"272.667 746 OFFCURVE",
"290 754 CURVE SMOOTH",
"307.333 762 OFFCURVE",
"325.167 771 OFFCURVE",
"343.5 781 CURVE SMOOTH",
"361.833 791 OFFCURVE",
"382.667 800 OFFCURVE",
"406 808 CURVE SMOOTH",
"429.333 816 OFFCURVE",
"459.333 820 OFFCURVE",
"496 820 CURVE SMOOTH",
"542 820 OFFCURVE",
"577.5 806.5 OFFCURVE",
"602.5 779.5 CURVE SMOOTH",
"627.5 752.5 OFFCURVE",
"640 708.667 OFFCURVE",
"640 648 CURVE SMOOTH",
"640 632 LINE",
"521 629 OFFCURVE",
"423 617 OFFCURVE",
"345 596 CURVE SMOOTH",
"267 575 OFFCURVE",
"205 548 OFFCURVE",
"159 517 CURVE SMOOTH",
"113 485 OFFCURVE",
"81 450 OFFCURVE",
"62 411 CURVE SMOOTH",
"43 372 OFFCURVE",
"34 306.667 OFFCURVE",
"34 270 CURVE SMOOTH",
"34 223.333 OFFCURVE",
"41.333 182.167 OFFCURVE",
"56 146.5 CURVE SMOOTH",
"70.667 110.833 OFFCURVE",
"91.5 81 OFFCURVE",
"118.5 57 CURVE SMOOTH",
"145.5 33 OFFCURVE",
"178.333 14.833 OFFCURVE",
"217 2.5 CURVE SMOOTH",
"255.667 -10 OFFCURVE",
"298.667 -16 OFFCURVE",
"346 -16 CURVE SMOOTH",
"381.333 -16 OFFCURVE",
"413.5 -13 OFFCURVE",
"442.5 -8 CURVE SMOOTH",
"471.5 -2 OFFCURVE",
"498.833 6.833 OFFCURVE",
"524.5 18.5 CURVE SMOOTH",
"550.167 30.167 OFFCURVE",
"575 44.333 OFFCURVE",
"599 61 CURVE SMOOTH",
"623 77.667 OFFCURVE",
"648 97 OFFCURVE",
"674 119 CURVE",
"696 62 LINE SMOOTH",
"706 36.667 OFFCURVE",
"722 24 OFFCURVE",
"733.5 12 CURVE SMOOTH",
"749 -4 OFFCURVE",
"745 0 OFFCURVE",
"771 0 CURVE"
);
},
{
closed = 1;
nodes = (
"406.667 189 OFFCURVE",
"378.333 196.167 OFFCURVE",
"359 210.5 CURVE SMOOTH",
"339.667 224.833 OFFCURVE",
"330 249.667 OFFCURVE",
"330 285 CURVE SMOOTH",
"330 303 OFFCURVE",
"335 348 OFFCURVE",
"344 363 CURVE SMOOTH",
"353 378 OFFCURVE",
"369 392 OFFCURVE",
"392 404 CURVE SMOOTH",
"415 416 OFFCURVE",
"447 426 OFFCURVE",
"487 434 CURVE SMOOTH",
"527 442 OFFCURVE",
"578 447 OFFCURVE",
"640 450 CURVE",
"640 278 LINE",
"609.333 246.667 OFFCURVE",
"579 224 OFFCURVE",
"549 210 CURVE SMOOTH",
"519 196 OFFCURVE",
"484 189 OFFCURVE",
"444 189 CURVE SMOOTH"
);
}
);
width = 1035;
}
);
leftKerningGroup = a;
rightKerningGroup = a;
unicode = 00E1;
},
{
glyphname = acircumflex;
lastChange = "2014-08-19 18:30:43 -0500";
layers = (
{
layerId = "E173E66F-8B44-4FD8-81CD-C7310885C9A9";
name = Bold;
paths = (
{
closed = 1;
nodes = (
"891 1168 LINE",
"657 1457 LINE",
"365 1457 LINE",
"131 1168 LINE",
"345 1168 LINE SMOOTH",
"357 1168 OFFCURVE",
"369 1170.33 OFFCURVE",
"381 1175 CURVE SMOOTH",
"393 1179.67 OFFCURVE",
"404 1186.67 OFFCURVE",
"414 1196 CURVE",
"491 1279 LINE",
"495 1282.33 OFFCURVE",
"499.167 1286.33 OFFCURVE",
"503.5 1291 CURVE SMOOTH",
"507.833 1295.67 OFFCURVE",
"512 1300.67 OFFCURVE",
"516 1306 CURVE",
"520 1300.67 OFFCURVE",
"524.167 1295.83 OFFCURVE",
"528.5 1291.5 CURVE SMOOTH",
"541 1279 LINE",
"616 1196 LINE",
"627.333 1184.67 OFFCURVE",
"638.667 1177.17 OFFCURVE",
"650 1173.5 CURVE SMOOTH",
"661.333 1169.83 OFFCURVE",
"673 1168 OFFCURVE",
"685 1168 CURVE SMOOTH"
);
},
{
closed = 1;
nodes = (
"800 0 LINE",
"942 0 LINE",
"942 648 LINE SMOOTH",
"942 707.333 OFFCURVE",
"932.667 762 OFFCURVE",
"914 812 CURVE SMOOTH",
"895.333 862 OFFCURVE",
"868.5 905.167 OFFCURVE",
"833.5 941.5 CURVE SMOOTH",
"798.5 977.833 OFFCURVE",
"755.833 1006.17 OFFCURVE",
"705.5 1026.5 CURVE SMOOTH",
"655.167 1046.83 OFFCURVE",
"598.667 1057 OFFCURVE",
"536 1057 CURVE SMOOTH",
"448.667 1057 OFFCURVE",
"366.833 1043.5 OFFCURVE",
"290.5 1016.5 CURVE SMOOTH",
"214.167 989.5 OFFCURVE",
"144.667 948.333 OFFCURVE",
"82 893 CURVE",
"138 796 LINE",
"147.333 781.333 OFFCURVE",
"159.333 768.667 OFFCURVE",
"174 758 CURVE SMOOTH",
"188.667 747.333 OFFCURVE",
"206.667 742 OFFCURVE",
"228 742 CURVE SMOOTH",
"252 742 OFFCURVE",
"272.667 746 OFFCURVE",
"290 754 CURVE SMOOTH",
"307.333 762 OFFCURVE",
"325.167 771 OFFCURVE",
"343.5 781 CURVE SMOOTH",
"361.833 791 OFFCURVE",
"382.667 800 OFFCURVE",
"406 808 CURVE SMOOTH",
"429.333 816 OFFCURVE",
"459.333 820 OFFCURVE",
"496 820 CURVE SMOOTH",
"542 820 OFFCURVE",
"577.5 806.5 OFFCURVE",
"602.5 779.5 CURVE SMOOTH",
"627.5 752.5 OFFCURVE",
"640 708.667 OFFCURVE",
"640 648 CURVE SMOOTH",
"640 632 LINE",
"521 629 OFFCURVE",
"423 617 OFFCURVE",
"345 596 CURVE SMOOTH",
"267 575 OFFCURVE",
"205 548 OFFCURVE",
"159 517 CURVE SMOOTH",
"113 485 OFFCURVE",
"81 450 OFFCURVE",
"62 411 CURVE SMOOTH",
"43 372 OFFCURVE",
"34 306.667 OFFCURVE",
"34 270 CURVE SMOOTH",
"34 223.333 OFFCURVE",
"41.333 182.167 OFFCURVE",
"56 146.5 CURVE SMOOTH",
"70.667 110.833 OFFCURVE",
"91.5 81 OFFCURVE",
"118.5 57 CURVE SMOOTH",
"145.5 33 OFFCURVE",
"178.333 14.833 OFFCURVE",
"217 2.5 CURVE SMOOTH",
"255.667 -10 OFFCURVE",
"298.667 -16 OFFCURVE",
"346 -16 CURVE SMOOTH",
"381.333 -16 OFFCURVE",
"413.5 -13 OFFCURVE",
"442.5 -8 CURVE SMOOTH",
"471.5 -2 OFFCURVE",
"498.833 6.833 OFFCURVE",
"524.5 18.5 CURVE SMOOTH",
"550.167 30.167 OFFCURVE",
"575 44.333 OFFCURVE",
"599 61 CURVE SMOOTH",
"623 77.667 OFFCURVE",
"648 97 OFFCURVE",
"674 119 CURVE",
"696 62 LINE SMOOTH",
"706 36.667 OFFCURVE",
"722 24 OFFCURVE",
"733.5 12 CURVE SMOOTH",
"749 -4 OFFCURVE",
"745 0 OFFCURVE",
"771 0 CURVE"
);
},
{
closed = 1;
nodes = (
"406.667 189 OFFCURVE",
"378.333 196.167 OFFCURVE",
"359 210.5 CURVE SMOOTH",
"339.667 224.833 OFFCURVE",
"330 249.667 OFFCURVE",
"330 285 CURVE SMOOTH",
"330 303 OFFCURVE",
"335 348 OFFCURVE",
"344 363 CURVE SMOOTH",
"353 378 OFFCURVE",
"369 392 OFFCURVE",
"392 404 CURVE SMOOTH",
"415 416 OFFCURVE",
"447 426 OFFCURVE",
"487 434 CURVE SMOOTH",
"527 442 OFFCURVE",
"578 447 OFFCURVE",
"640 450 CURVE",
"640 278 LINE",
"609.333 246.667 OFFCURVE",
"579 224 OFFCURVE",
"549 210 CURVE SMOOTH",
"519 196 OFFCURVE",
"484 189 OFFCURVE",
"444 189 CURVE SMOOTH"
);
}
);
width = 1035;
}
);
leftKerningGroup = a;
rightKerningGroup = a;
unicode = 00E2;
},
{
glyphname = adieresis;
lastChange = "2014-08-19 18:30:50 -0500";
layers = (
{
layerId = "E173E66F-8B44-4FD8-81CD-C7310885C9A9";
name = Bold;
paths = (
{
closed = 1;
nodes = (
"459 1317 OFFCURVE",
"454.667 1337.67 OFFCURVE",
"446 1357 CURVE SMOOTH",
"437.333 1376.33 OFFCURVE",
"425.5 1393.17 OFFCURVE",
"410.5 1407.5 CURVE SMOOTH",
"395.5 1421.83 OFFCURVE",
"378.167 1433.17 OFFCURVE",
"358.5 1441.5 CURVE SMOOTH",
"338.833 1449.83 OFFCURVE",
"317.667 1454 OFFCURVE",
"295 1454 CURVE SMOOTH",
"273.667 1454 OFFCURVE",
"253.5 1449.83 OFFCURVE",
"234.5 1441.5 CURVE SMOOTH",
"215.5 1433.17 OFFCURVE",
"198.833 1421.83 OFFCURVE",
"184.5 1407.5 CURVE SMOOTH",
"170.167 1393.17 OFFCURVE",
"158.667 1376.33 OFFCURVE",
"150 1357 CURVE SMOOTH",
"141.333 1337.67 OFFCURVE",
"137 1317 OFFCURVE",
"137 1295 CURVE SMOOTH",
"137 1273.67 OFFCURVE",
"141.333 1253.67 OFFCURVE",
"150 1235 CURVE SMOOTH",
"158.667 1216.33 OFFCURVE",
"170.167 1200.17 OFFCURVE",
"184.5 1186.5 CURVE SMOOTH",
"198.833 1172.83 OFFCURVE",
"215.5 1162 OFFCURVE",
"234.5 1154 CURVE SMOOTH",
"253.5 1146 OFFCURVE",
"273.667 1142 OFFCURVE",
"295 1142 CURVE SMOOTH",
"317.667 1142 OFFCURVE",
"338.833 1146 OFFCURVE",
"358.5 1154 CURVE SMOOTH",
"378.167 1162 OFFCURVE",
"395.5 1172.83 OFFCURVE",
"410.5 1186.5 CURVE SMOOTH",
"425.5 1200.17 OFFCURVE",
"437.333 1216.33 OFFCURVE",
"446 1235 CURVE SMOOTH",
"454.667 1253.67 OFFCURVE",
"459 1273.67 OFFCURVE",
"459 1295 CURVE SMOOTH"
);
},
{
closed = 1;
nodes = (
"885 1317 OFFCURVE",
"880.833 1337.67 OFFCURVE",
"872.5 1357 CURVE SMOOTH",
"864.167 1376.33 OFFCURVE",
"852.667 1393.17 OFFCURVE",
"838 1407.5 CURVE SMOOTH",
"823.333 1421.83 OFFCURVE",
"806.167 1433.17 OFFCURVE",
"786.5 1441.5 CURVE SMOOTH",
"766.833 1449.83 OFFCURVE",
"745.667 1454 OFFCURVE",
"723 1454 CURVE SMOOTH",
"701 1454 OFFCURVE",
"680.333 1449.83 OFFCURVE",
"661 1441.5 CURVE SMOOTH",
"641.667 1433.17 OFFCURVE",
"624.667 1421.83 OFFCURVE",
"610 1407.5 CURVE SMOOTH",
"595.333 1393.17 OFFCURVE",
"583.833 1376.33 OFFCURVE",
"575.5 1357 CURVE SMOOTH",
"567.167 1337.67 OFFCURVE",
"563 1317 OFFCURVE",
"563 1295 CURVE SMOOTH",
"563 1273.67 OFFCURVE",
"567.167 1253.67 OFFCURVE",
"575.5 1235 CURVE SMOOTH",
"583.833 1216.33 OFFCURVE",
"595.333 1200.17 OFFCURVE",
"610 1186.5 CURVE SMOOTH",
"624.667 1172.83 OFFCURVE",
"641.667 1162 OFFCURVE",
"661 1154 CURVE SMOOTH",
"680.333 1146 OFFCURVE",
"701 1142 OFFCURVE",
"723 1142 CURVE SMOOTH",
"745.667 1142 OFFCURVE",
"766.833 1146 OFFCURVE",
"786.5 1154 CURVE SMOOTH",
"806.167 1162 OFFCURVE",
"823.333 1172.83 OFFCURVE",
"838 1186.5 CURVE SMOOTH",
"852.667 1200.17 OFFCURVE",
"864.167 1216.33 OFFCURVE",
"872.5 1235 CURVE SMOOTH",
"880.833 1253.67 OFFCURVE",
"885 1273.67 OFFCURVE",
"885 1295 CURVE SMOOTH"
);
},
{
closed = 1;
nodes = (
"800 0 LINE",
"942 0 LINE",
"942 648 LINE SMOOTH",
"942 707.333 OFFCURVE",
"932.667 762 OFFCURVE",
"914 812 CURVE SMOOTH",
"895.333 862 OFFCURVE",
"868.5 905.167 OFFCURVE",
"833.5 941.5 CURVE SMOOTH",
"798.5 977.833 OFFCURVE",
"755.833 1006.17 OFFCURVE",
"705.5 1026.5 CURVE SMOOTH",
"655.167 1046.83 OFFCURVE",
"598.667 1057 OFFCURVE",
"536 1057 CURVE SMOOTH",
"448.667 1057 OFFCURVE",
"366.833 1043.5 OFFCURVE",
"290.5 1016.5 CURVE SMOOTH",
"214.167 989.5 OFFCURVE",
"144.667 948.333 OFFCURVE",
"82 893 CURVE",
"138 796 LINE",
"147.333 781.333 OFFCURVE",
"159.333 768.667 OFFCURVE",
"174 758 CURVE SMOOTH",
"188.667 747.333 OFFCURVE",
"206.667 742 OFFCURVE",
"228 742 CURVE SMOOTH",
"252 742 OFFCURVE",
"272.667 746 OFFCURVE",
"290 754 CURVE SMOOTH",
"307.333 762 OFFCURVE",
"325.167 771 OFFCURVE",
"343.5 781 CURVE SMOOTH",
"361.833 791 OFFCURVE",
"382.667 800 OFFCURVE",
"406 808 CURVE SMOOTH",
"429.333 816 OFFCURVE",
"459.333 820 OFFCURVE",
"496 820 CURVE SMOOTH",
"542 820 OFFCURVE",
"577.5 806.5 OFFCURVE",
"602.5 779.5 CURVE SMOOTH",
"627.5 752.5 OFFCURVE",
"640 708.667 OFFCURVE",
"640 648 CURVE SMOOTH",
"640 632 LINE",
"521 629 OFFCURVE",
"423 617 OFFCURVE",
"345 596 CURVE SMOOTH",
"267 575 OFFCURVE",
"205 548 OFFCURVE",
"159 517 CURVE SMOOTH",
"113 485 OFFCURVE",
"81 450 OFFCURVE",
"62 411 CURVE SMOOTH",
"43 372 OFFCURVE",
"34 306.667 OFFCURVE",
"34 270 CURVE SMOOTH",
"34 223.333 OFFCURVE",
"41.333 182.167 OFFCURVE",
"56 146.5 CURVE SMOOTH",
"70.667 110.833 OFFCURVE",
"91.5 81 OFFCURVE",
"118.5 57 CURVE SMOOTH",
"145.5 33 OFFCURVE",
"178.333 14.833 OFFCURVE",
"217 2.5 CURVE SMOOTH",
"255.667 -10 OFFCURVE",
"298.667 -16 OFFCURVE",
"346 -16 CURVE SMOOTH",
"381.333 -16 OFFCURVE",
"413.5 -13 OFFCURVE",
"442.5 -8 CURVE SMOOTH",
"471.5 -2 OFFCURVE",
"498.833 6.833 OFFCURVE",
"524.5 18.5 CURVE SMOOTH",
"550.167 30.167 OFFCURVE",
"575 44.333 OFFCURVE",
"599 61 CURVE SMOOTH",
"623 77.667 OFFCURVE",
"648 97 OFFCURVE",
"674 119 CURVE",
"696 62 LINE SMOOTH",
"706 36.667 OFFCURVE",
"722 24 OFFCURVE",
"733.5 12 CURVE SMOOTH",
"749 -4 OFFCURVE",
"745 0 OFFCURVE",
"771 0 CURVE"
);
},
{
closed = 1;
nodes = (
"406.667 189 OFFCURVE",
"378.333 196.167 OFFCURVE",
"359 210.5 CURVE SMOOTH",
"339.667 224.833 OFFCURVE",
"330 249.667 OFFCURVE",
"330 285 CURVE SMOOTH",
"330 303 OFFCURVE",
"335 348 OFFCURVE",
"344 363 CURVE SMOOTH",
"353 378 OFFCURVE",
"369 392 OFFCURVE",
"392 404 CURVE SMOOTH",
"415 416 OFFCURVE",
"447 426 OFFCURVE",
"487 434 CURVE SMOOTH",
"527 442 OFFCURVE",
"578 447 OFFCURVE",
"640 450 CURVE",
"640 278 LINE",
"609.333 246.667 OFFCURVE",
"579 224 OFFCURVE",
"549 210 CURVE SMOOTH",
"519 196 OFFCURVE",
"484 189 OFFCURVE",
"444 189 CURVE SMOOTH"
);
}
);
width = 1035;
}
);
leftKerningGroup = a;
rightKerningGroup = a;
unicode = 00E4;
},
{
glyphname = agrave;
lastChange = "2014-08-19 18:30:59 -0500";
layers = (
{
layerId = "E173E66F-8B44-4FD8-81CD-C7310885C9A9";
name = Bold;
paths = (
{
closed = 1;
nodes = (
"143 1473 LINE",
"403 1210 LINE SMOOTH",
"418.333 1194.67 OFFCURVE",
"433 1183.83 OFFCURVE",
"447 1177.5 CURVE SMOOTH",
"461 1171.17 OFFCURVE",
"479.667 1168 OFFCURVE",
"503 1168 CURVE SMOOTH",
"679 1168 LINE",
"543 1413 LINE SMOOTH",
"531.667 1432.33 OFFCURVE",
"518.333 1447.17 OFFCURVE",
"503 1457.5 CURVE SMOOTH",
"487.667 1467.83 OFFCURVE",
"464.333 1473 OFFCURVE",
"433 1473 CURVE SMOOTH"
);
},
{
closed = 1;
nodes = (
"800 0 LINE",
"942 0 LINE",
"942 648 LINE SMOOTH",
"942 707.333 OFFCURVE",
"932.667 762 OFFCURVE",
"914 812 CURVE SMOOTH",
"895.333 862 OFFCURVE",
"868.5 905.167 OFFCURVE",
"833.5 941.5 CURVE SMOOTH",
"798.5 977.833 OFFCURVE",
"755.833 1006.17 OFFCURVE",
"705.5 1026.5 CURVE SMOOTH",
"655.167 1046.83 OFFCURVE",
"598.667 1057 OFFCURVE",
"536 1057 CURVE SMOOTH",
"448.667 1057 OFFCURVE",
"366.833 1043.5 OFFCURVE",
"290.5 1016.5 CURVE SMOOTH",
"214.167 989.5 OFFCURVE",
"144.667 948.333 OFFCURVE",
"82 893 CURVE",
"138 796 LINE",
"147.333 781.333 OFFCURVE",
"159.333 768.667 OFFCURVE",
"174 758 CURVE SMOOTH",
"188.667 747.333 OFFCURVE",
"206.667 742 OFFCURVE",
"228 742 CURVE SMOOTH",
"252 742 OFFCURVE",
"272.667 746 OFFCURVE",
"290 754 CURVE SMOOTH",
"307.333 762 OFFCURVE",
"325.167 771 OFFCURVE",
"343.5 781 CURVE SMOOTH",
"361.833 791 OFFCURVE",
"382.667 800 OFFCURVE",
"406 808 CURVE SMOOTH",
"429.333 816 OFFCURVE",
"459.333 820 OFFCURVE",
"496 820 CURVE SMOOTH",
"542 820 OFFCURVE",
"577.5 806.5 OFFCURVE",
"602.5 779.5 CURVE SMOOTH",
"627.5 752.5 OFFCURVE",
"640 708.667 OFFCURVE",
"640 648 CURVE SMOOTH",
"640 632 LINE",
"521 629 OFFCURVE",
"423 617 OFFCURVE",
"345 596 CURVE SMOOTH",
"267 575 OFFCURVE",
"205 548 OFFCURVE",
"159 517 CURVE SMOOTH",
"113 485 OFFCURVE",
"81 450 OFFCURVE",
"62 411 CURVE SMOOTH",
"43 372 OFFCURVE",
"34 306.667 OFFCURVE",
"34 270 CURVE SMOOTH",
"34 223.333 OFFCURVE",
"41.333 182.167 OFFCURVE",
"56 146.5 CURVE SMOOTH",
"70.667 110.833 OFFCURVE",
"91.5 81 OFFCURVE",
"118.5 57 CURVE SMOOTH",
"145.5 33 OFFCURVE",
"178.333 14.833 OFFCURVE",
"217 2.5 CURVE SMOOTH",
"255.667 -10 OFFCURVE",
"298.667 -16 OFFCURVE",
"346 -16 CURVE SMOOTH",
"381.333 -16 OFFCURVE",
"413.5 -13 OFFCURVE",
"442.5 -8 CURVE SMOOTH",
"471.5 -2 OFFCURVE",
"498.833 6.833 OFFCURVE",
"524.5 18.5 CURVE SMOOTH",
"550.167 30.167 OFFCURVE",
"575 44.333 OFFCURVE",
"599 61 CURVE SMOOTH",
"623 77.667 OFFCURVE",
"648 97 OFFCURVE",
"674 119 CURVE",
"696 62 LINE SMOOTH",
"706 36.667 OFFCURVE",
"722 24 OFFCURVE",
"733.5 12 CURVE SMOOTH",
"749 -4 OFFCURVE",
"745 0 OFFCURVE",
"771 0 CURVE"
);
},
{
closed = 1;
nodes = (
"406.667 189 OFFCURVE",
"378.333 196.167 OFFCURVE",
"359 210.5 CURVE SMOOTH",
"339.667 224.833 OFFCURVE",
"330 249.667 OFFCURVE",
"330 285 CURVE SMOOTH",
"330 303 OFFCURVE",
"335 348 OFFCURVE",
"344 363 CURVE SMOOTH",
"353 378 OFFCURVE",
"369 392 OFFCURVE",
"392 404 CURVE SMOOTH",
"415 416 OFFCURVE",
"447 426 OFFCURVE",
"487 434 CURVE SMOOTH",
"527 442 OFFCURVE",
"578 447 OFFCURVE",
"640 450 CURVE",
"640 278 LINE",
"609.333 246.667 OFFCURVE",
"579 224 OFFCURVE",
"549 210 CURVE SMOOTH",
"519 196 OFFCURVE",
"484 189 OFFCURVE",
"444 189 CURVE SMOOTH"
);
}
);
width = 1035;
}
);
leftKerningGroup = a;
rightKerningGroup = a;
unicode = 00E0;
},
{
glyphname = aring;
lastChange = "2014-08-19 18:31:06 -0500";
layers = (
{
layerId = "E173E66F-8B44-4FD8-81CD-C7310885C9A9";
name = Bold;
paths = (
{
closed = 1;
nodes = (
"269 1301.33 OFFCURVE",
"275.667 1271.83 OFFCURVE",
"289 1245.5 CURVE SMOOTH",
"302.333 1219.17 OFFCURVE",
"320 1196.67 OFFCURVE",
"342 1178 CURVE SMOOTH",
"364 1159.33 OFFCURVE",
"389.667 1144.83 OFFCURVE",
"419 1134.5 CURVE SMOOTH",
"448.333 1124.17 OFFCURVE",
"479 1119 OFFCURVE",
"511 1119 CURVE SMOOTH",
"543.667 1119 OFFCURVE",
"575 1124.17 OFFCURVE",
"605 1134.5 CURVE SMOOTH",
"635 1144.83 OFFCURVE",
"661.5 1159.33 OFFCURVE",
"684.5 1178 CURVE SMOOTH",
"707.5 1196.67 OFFCURVE",
"725.667 1219.17 OFFCURVE",
"739 1245.5 CURVE SMOOTH",
"752.333 1271.83 OFFCURVE",
"759 1301.33 OFFCURVE",
"759 1334 CURVE SMOOTH",
"759 1367.33 OFFCURVE",
"752.333 1397.5 OFFCURVE",
"739 1424.5 CURVE SMOOTH",
"725.667 1451.5 OFFCURVE",
"707.5 1474.67 OFFCURVE",
"684.5 1494 CURVE SMOOTH",
"661.5 1513.33 OFFCURVE",
"635 1528.17 OFFCURVE",
"605 1538.5 CURVE SMOOTH",
"575 1548.83 OFFCURVE",
"543.667 1554 OFFCURVE",
"511 1554 CURVE SMOOTH",
"479 1554 OFFCURVE",
"448.333 1548.83 OFFCURVE",
"419 1538.5 CURVE SMOOTH",
"389.667 1528.17 OFFCURVE",
"364 1513.33 OFFCURVE",
"342 1494 CURVE SMOOTH",
"320 1474.67 OFFCURVE",
"302.333 1451.5 OFFCURVE",
"289 1424.5 CURVE SMOOTH",
"275.667 1397.5 OFFCURVE",
"269 1367.33 OFFCURVE",
"269 1334 CURVE SMOOTH"
);
},
{
closed = 1;
nodes = (
"435 1359.33 OFFCURVE",
"441.5 1379.33 OFFCURVE",
"454.5 1394 CURVE SMOOTH",
"467.5 1408.67 OFFCURVE",
"487.667 1416 OFFCURVE",
"515 1416 CURVE SMOOTH",
"539 1416 OFFCURVE",
"558 1408.67 OFFCURVE",
"572 1394 CURVE SMOOTH",
"586 1379.33 OFFCURVE",
"593 1359.33 OFFCURVE",
"593 1334 CURVE SMOOTH",
"593 1310.67 OFFCURVE",
"586 1291.5 OFFCURVE",
"572 1276.5 CURVE SMOOTH",
"558 1261.5 OFFCURVE",
"539 1254 OFFCURVE",
"515 1254 CURVE SMOOTH",
"487.667 1254 OFFCURVE",
"467.5 1261.5 OFFCURVE",
"454.5 1276.5 CURVE SMOOTH",
"441.5 1291.5 OFFCURVE",
"435 1310.67 OFFCURVE",
"435 1334 CURVE SMOOTH"
);
},
{
closed = 1;
nodes = (
"800 0 LINE",
"942 0 LINE",
"942 648 LINE SMOOTH",
"942 707.333 OFFCURVE",
"932.667 762 OFFCURVE",
"914 812 CURVE SMOOTH",
"895.333 862 OFFCURVE",
"868.5 905.167 OFFCURVE",
"833.5 941.5 CURVE SMOOTH",
"798.5 977.833 OFFCURVE",
"755.833 1006.17 OFFCURVE",
"705.5 1026.5 CURVE SMOOTH",
"655.167 1046.83 OFFCURVE",
"598.667 1057 OFFCURVE",
"536 1057 CURVE SMOOTH",
"448.667 1057 OFFCURVE",
"366.833 1043.5 OFFCURVE",
"290.5 1016.5 CURVE SMOOTH",
"214.167 989.5 OFFCURVE",
"144.667 948.333 OFFCURVE",
"82 893 CURVE",
"138 796 LINE",
"147.333 781.333 OFFCURVE",
"159.333 768.667 OFFCURVE",
"174 758 CURVE SMOOTH",
"188.667 747.333 OFFCURVE",
"206.667 742 OFFCURVE",
"228 742 CURVE SMOOTH",
"252 742 OFFCURVE",
"272.667 746 OFFCURVE",
"290 754 CURVE SMOOTH",
"307.333 762 OFFCURVE",
"325.167 771 OFFCURVE",
"343.5 781 CURVE SMOOTH",
"361.833 791 OFFCURVE",
"382.667 800 OFFCURVE",
"406 808 CURVE SMOOTH",
"429.333 816 OFFCURVE",
"459.333 820 OFFCURVE",
"496 820 CURVE SMOOTH",
"542 820 OFFCURVE",
"577.5 806.5 OFFCURVE",
"602.5 779.5 CURVE SMOOTH",
"627.5 752.5 OFFCURVE",
"640 708.667 OFFCURVE",
"640 648 CURVE SMOOTH",
"640 632 LINE",
"521 629 OFFCURVE",
"423 617 OFFCURVE",
"345 596 CURVE SMOOTH",
"267 575 OFFCURVE",
"205 548 OFFCURVE",
"159 517 CURVE SMOOTH",
"113 485 OFFCURVE",
"81 450 OFFCURVE",
"62 411 CURVE SMOOTH",
"43 372 OFFCURVE",
"34 306.667 OFFCURVE",
"34 270 CURVE SMOOTH",
"34 223.333 OFFCURVE",
"41.333 182.167 OFFCURVE",
"56 146.5 CURVE SMOOTH",
"70.667 110.833 OFFCURVE",
"91.5 81 OFFCURVE",
"118.5 57 CURVE SMOOTH",
"145.5 33 OFFCURVE",
"178.333 14.833 OFFCURVE",
"217 2.5 CURVE SMOOTH",
"255.667 -10 OFFCURVE",
"298.667 -16 OFFCURVE",
"346 -16 CURVE SMOOTH",
"381.333 -16 OFFCURVE",
"413.5 -13 OFFCURVE",
"442.5 -8 CURVE SMOOTH",
"471.5 -2 OFFCURVE",
"498.833 6.833 OFFCURVE",
"524.5 18.5 CURVE SMOOTH",
"550.167 30.167 OFFCURVE",
"575 44.333 OFFCURVE",
"599 61 CURVE SMOOTH",
"623 77.667 OFFCURVE",
"648 97 OFFCURVE",
"674 119 CURVE",
"696 62 LINE SMOOTH",
"706 36.667 OFFCURVE",
"722 24 OFFCURVE",
"733.5 12 CURVE SMOOTH",
"749 -4 OFFCURVE",
"745 0 OFFCURVE",
"771 0 CURVE"
);
},
{
closed = 1;
nodes = (
"406.667 189 OFFCURVE",
"378.333 196.167 OFFCURVE",
"359 210.5 CURVE SMOOTH",
"339.667 224.833 OFFCURVE",
"330 249.667 OFFCURVE",
"330 285 CURVE SMOOTH",
"330 303 OFFCURVE",
"335 348 OFFCURVE",
"344 363 CURVE SMOOTH",
"353 378 OFFCURVE",
"369 392 OFFCURVE",
"392 404 CURVE SMOOTH",
"415 416 OFFCURVE",
"447 426 OFFCURVE",
"487 434 CURVE SMOOTH",
"527 442 OFFCURVE",
"578 447 OFFCURVE",
"640 450 CURVE",
"640 278 LINE",
"609.333 246.667 OFFCURVE",
"579 224 OFFCURVE",
"549 210 CURVE SMOOTH",
"519 196 OFFCURVE",
"484 189 OFFCURVE",
"444 189 CURVE SMOOTH"
);
}
);
width = 1035;
}
);
leftKerningGroup = a;
rightKerningGroup = a;
unicode = 00E5;
},
{
glyphname = atilde;
lastChange = "2014-08-19 18:31:14 -0500";
layers = (
{
layerId = "E173E66F-8B44-4FD8-81CD-C7310885C9A9";
name = Bold;
paths = (
{
closed = 1;
nodes = (
"603.667 1387 OFFCURVE",
"590.5 1390.83 OFFCURVE",
"575.5 1398.5 CURVE SMOOTH",
"560.5 1406.17 OFFCURVE",
"544 1414.67 OFFCURVE",
"526 1424 CURVE SMOOTH",
"508 1433.33 OFFCURVE",
"488.167 1441.83 OFFCURVE",
"466.5 1449.5 CURVE SMOOTH",
"444.833 1457.17 OFFCURVE",
"421.667 1461 OFFCURVE",
"397 1461 CURVE SMOOTH",
"365 1461 OFFCURVE",
"335 1454.5 OFFCURVE",
"307 1441.5 CURVE SMOOTH",
"279 1428.5 OFFCURVE",
"254.667 1410 OFFCURVE",
"234 1386 CURVE SMOOTH",
"213.333 1362 OFFCURVE",
"197 1333.17 OFFCURVE",
"185 1299.5 CURVE SMOOTH",
"173 1265.83 OFFCURVE",
"167 1228 OFFCURVE",
"167 1186 CURVE",
"357 1186 LINE",
"357 1213.33 OFFCURVE",
"361.667 1231.5 OFFCURVE",
"371 1240.5 CURVE SMOOTH",
"380.333 1249.5 OFFCURVE",
"393 1254 OFFCURVE",
"409 1254 CURVE SMOOTH",
"420.333 1254 OFFCURVE",
"433.5 1250.17 OFFCURVE",
"448.5 1242.5 CURVE SMOOTH",
"463.5 1234.83 OFFCURVE",
"480.167 1226.33 OFFCURVE",
"498.5 1217 CURVE SMOOTH",
"516.833 1207.67 OFFCURVE",
"536.667 1199.17 OFFCURVE",
"558 1191.5 CURVE SMOOTH",
"579.333 1183.83 OFFCURVE",
"602.333 1180 OFFCURVE",
"627 1180 CURVE SMOOTH",
"659.667 1180 OFFCURVE",
"690 1186.33 OFFCURVE",
"718 1199 CURVE SMOOTH",
"746 1211.67 OFFCURVE",
"770.333 1229.83 OFFCURVE",
"791 1253.5 CURVE SMOOTH",
"811.667 1277.17 OFFCURVE",
"827.833 1305.83 OFFCURVE",
"839.5 1339.5 CURVE SMOOTH",
"851.167 1373.17 OFFCURVE",
"857 1411 OFFCURVE",
"857 1453 CURVE",
"669 1453 LINE",
"669 1425.67 OFFCURVE",
"664 1407.83 OFFCURVE",
"654 1399.5 CURVE SMOOTH",
"644 1391.17 OFFCURVE",
"631 1387 OFFCURVE",
"615 1387 CURVE SMOOTH"
);
},
{
closed = 1;
nodes = (
"800 0 LINE",
"942 0 LINE",
"942 648 LINE SMOOTH",
"942 707.333 OFFCURVE",
"932.667 762 OFFCURVE",
"914 812 CURVE SMOOTH",
"895.333 862 OFFCURVE",
"868.5 905.167 OFFCURVE",
"833.5 941.5 CURVE SMOOTH",
"798.5 977.833 OFFCURVE",
"755.833 1006.17 OFFCURVE",
"705.5 1026.5 CURVE SMOOTH",
"655.167 1046.83 OFFCURVE",
"598.667 1057 OFFCURVE",
"536 1057 CURVE SMOOTH",
"448.667 1057 OFFCURVE",
"366.833 1043.5 OFFCURVE",
"290.5 1016.5 CURVE SMOOTH",
"214.167 989.5 OFFCURVE",
"144.667 948.333 OFFCURVE",
"82 893 CURVE",
"138 796 LINE",
"147.333 781.333 OFFCURVE",
"159.333 768.667 OFFCURVE",
"174 758 CURVE SMOOTH",
"188.667 747.333 OFFCURVE",
"206.667 742 OFFCURVE",
"228 742 CURVE SMOOTH",
"252 742 OFFCURVE",
"272.667 746 OFFCURVE",
"290 754 CURVE SMOOTH",
"307.333 762 OFFCURVE",
"325.167 771 OFFCURVE",
"343.5 781 CURVE SMOOTH",
"361.833 791 OFFCURVE",
"382.667 800 OFFCURVE",
"406 808 CURVE SMOOTH",
"429.333 816 OFFCURVE",
"459.333 820 OFFCURVE",
"496 820 CURVE SMOOTH",
"542 820 OFFCURVE",
"577.5 806.5 OFFCURVE",
"602.5 779.5 CURVE SMOOTH",
"627.5 752.5 OFFCURVE",
"640 708.667 OFFCURVE",
"640 648 CURVE SMOOTH",
"640 632 LINE",
"521 629 OFFCURVE",
"423 617 OFFCURVE",
"345 596 CURVE SMOOTH",
"267 575 OFFCURVE",
"205 548 OFFCURVE",
"159 517 CURVE SMOOTH",
"113 485 OFFCURVE",
"81 450 OFFCURVE",
"62 411 CURVE SMOOTH",
"43 372 OFFCURVE",
"34 306.667 OFFCURVE",
"34 270 CURVE SMOOTH",
"34 223.333 OFFCURVE",
"41.333 182.167 OFFCURVE",
"56 146.5 CURVE SMOOTH",
"70.667 110.833 OFFCURVE",
"91.5 81 OFFCURVE",
"118.5 57 CURVE SMOOTH",
"145.5 33 OFFCURVE",
"178.333 14.833 OFFCURVE",
"217 2.5 CURVE SMOOTH",
"255.667 -10 OFFCURVE",
"298.667 -16 OFFCURVE",
"346 -16 CURVE SMOOTH",
"381.333 -16 OFFCURVE",
"413.5 -13 OFFCURVE",
"442.5 -8 CURVE SMOOTH",
"471.5 -2 OFFCURVE",
"498.833 6.833 OFFCURVE",
"524.5 18.5 CURVE SMOOTH",
"550.167 30.167 OFFCURVE",
"575 44.333 OFFCURVE",
"599 61 CURVE SMOOTH",
"623 77.667 OFFCURVE",
"648 97 OFFCURVE",
"674 119 CURVE",
"696 62 LINE SMOOTH",
"706 36.667 OFFCURVE",
"722 24 OFFCURVE",
"733.5 12 CURVE SMOOTH",
"749 -4 OFFCURVE",
"745 0 OFFCURVE",
"771 0 CURVE"
);
},
{
closed = 1;
nodes = (
"406.667 189 OFFCURVE",
"378.333 196.167 OFFCURVE",
"359 210.5 CURVE SMOOTH",
"339.667 224.833 OFFCURVE",
"330 249.667 OFFCURVE",
"330 285 CURVE SMOOTH",
"330 303 OFFCURVE",
"335 348 OFFCURVE",
"344 363 CURVE SMOOTH",
"353 378 OFFCURVE",
"369 392 OFFCURVE",
"392 404 CURVE SMOOTH",
"415 416 OFFCURVE",
"447 426 OFFCURVE",
"487 434 CURVE SMOOTH",
"527 442 OFFCURVE",
"578 447 OFFCURVE",
"640 450 CURVE",
"640 278 LINE",
"609.333 246.667 OFFCURVE",
"579 224 OFFCURVE",
"549 210 CURVE SMOOTH",
"519 196 OFFCURVE",
"484 189 OFFCURVE",
"444 189 CURVE SMOOTH"
);
}
);
width = 1035;
}
);
leftKerningGroup = a;
rightKerningGroup = a;
unicode = 00E3;
},
{
glyphname = ae;
layers = (
{
layerId = "E173E66F-8B44-4FD8-81CD-C7310885C9A9";
name = Bold;
paths = (
{
closed = 1;
nodes = (
"1072.67 1053 OFFCURVE",
"1008 1040.17 OFFCURVE",
"952 1014.5 CURVE SMOOTH",
"896 988.833 OFFCURVE",
"848.333 954 OFFCURVE",
"809 910 CURVE",
"781 956 OFFCURVE",
"742 992 OFFCURVE",
"692 1018 CURVE SMOOTH",
"642 1044 OFFCURVE",
"579.333 1057 OFFCURVE",
"504 1057 CURVE SMOOTH",
"422.667 1057 OFFCURVE",
"348 1043.5 OFFCURVE",
"280 1016.5 CURVE SMOOTH",
"212 989.5 OFFCURVE",
"146.667 948.333 OFFCURVE",
"83.9999 893 CURVE",
"140 796 LINE",
"149.333 781.333 OFFCURVE",
"161.333 768.667 OFFCURVE",
"176 758 CURVE SMOOTH",
"190.667 747.333 OFFCURVE",
"208.667 742 OFFCURVE",
"230 742 CURVE SMOOTH",
"254 742 OFFCURVE",
"274.667 746.5 OFFCURVE",
"292 755.5 CURVE SMOOTH",
"309.333 764.5 OFFCURVE",
"327.167 774.5 OFFCURVE",
"345.5 785.5 CURVE SMOOTH",
"363.833 796.5 OFFCURVE",
"384.667 806.5 OFFCURVE",
"408 815.5 CURVE SMOOTH",
"431.333 824.5 OFFCURVE",
"461.333 829 OFFCURVE",
"498 829 CURVE SMOOTH",
"544 829 OFFCURVE",
"579.5 814 OFFCURVE",
"604.5 784 CURVE SMOOTH",
"629.5 754 OFFCURVE",
"642 708.667 OFFCURVE",
"642 648 CURVE SMOOTH",
"642 625 LINE",
"562.667 623 OFFCURVE",
"492.667 616.667 OFFCURVE",
"432 606 CURVE SMOOTH",
"371.333 595.333 OFFCURVE",
"318.5 581.333 OFFCURVE",
"273.5 564 CURVE SMOOTH",
"228.5 546.667 OFFCURVE",
"190.833 526.833 OFFCURVE",
"160.5 504.5 CURVE SMOOTH",
"130.167 482.167 OFFCURVE",
"105.833 458.5 OFFCURVE",
"87.4999 433.5 CURVE SMOOTH",
"69.1666 408.5 OFFCURVE",
"55.9999 383 OFFCURVE",
"47.9999 357 CURVE SMOOTH",
"39.9999 331 OFFCURVE",
"35.9999 305.667 OFFCURVE",
"35.9999 281 CURVE SMOOTH",
"35.9999 187 OFFCURVE",
"64.9999 114 OFFCURVE",
"123 61.9999 CURVE SMOOTH",
"181 9.99994 OFFCURVE",
"263.333 -16 OFFCURVE",
"370 -16 CURVE SMOOTH",
"412.667 -16 OFFCURVE",
"454 -13 OFFCURVE",
"494 -6 CURVE SMOOTH",
"534 1.49994 OFFCURVE",
"571.667 12.4999 OFFCURVE",
"607 27.4999 CURVE SMOOTH",
"642.333 42.4999 OFFCURVE",
"674.833 61.6666 OFFCURVE",
"704.5 84.9999 CURVE SMOOTH",
"734.167 108.333 OFFCURVE",
"759.667 136 OFFCURVE",
"781 168 CURVE",
"803 136 OFFCURVE",
"827.5 108.333 OFFCURVE",
"854.5 84.9999 CURVE SMOOTH",
"881.5 61.6666 OFFCURVE",
"910.333 42.4999 OFFCURVE",
"941 27.4999 CURVE SMOOTH",
"971.667 12.4999 OFFCURVE",
"1003.67 1.49994 OFFCURVE",
"1037 -6 CURVE SMOOTH",
"1070.33 -13 OFFCURVE",
"1104 -16 OFFCURVE",
"1138 -16 CURVE SMOOTH",
"1172.67 -16 OFFCURVE",
"1208.83 -14 OFFCURVE",
"1246.5 -9 CURVE SMOOTH",
"1284.17 -4 OFFCURVE",
"1322 5.49994 OFFCURVE",
"1360 18.4999 CURVE SMOOTH",
"1398 31.4999 OFFCURVE",
"1435.17 49.4999 OFFCURVE",
"1471.5 72.4999 CURVE SMOOTH",
"1507.83 95.4999 OFFCURVE",
"1542 125.333 OFFCURVE",
"1574 162 CURVE",
"1490 265 LINE",
"1477.33 283 OFFCURVE",
"1456.67 292 OFFCURVE",
"1428 292 CURVE SMOOTH",
"1410.67 292 OFFCURVE",
"1395.83 288 OFFCURVE",
"1383.5 280 CURVE SMOOTH",
"1371.17 272 OFFCURVE",
"1356.5 263.333 OFFCURVE",
"1339.5 254 CURVE SMOOTH",
"1322.5 244.667 OFFCURVE",
"1300.83 236 OFFCURVE",
"1274.5 228 CURVE SMOOTH",
"1248.17 220 OFFCURVE",
"1212.67 216 OFFCURVE",
"1168 216 CURVE SMOOTH",
"1106.67 216 OFFCURVE",
"1055.83 234 OFFCURVE",
"1015.5 270 CURVE SMOOTH",
"975.167 306 OFFCURVE",
"949.333 363.667 OFFCURVE",
"938 443 CURVE",
"1508 443 LINE SMOOTH",
"1522 443 OFFCURVE",
"1533.33 444.667 OFFCURVE",
"1542 448 CURVE SMOOTH",
"1550.67 451.333 OFFCURVE",
"1557.5 457.333 OFFCURVE",
"1562.5 466 CURVE SMOOTH",
"1567.5 474.667 OFFCURVE",
"1571 486.333 OFFCURVE",
"1573 501 CURVE SMOOTH",
"1575 515.667 OFFCURVE",
"1576 534.667 OFFCURVE",
"1576 558 CURVE SMOOTH",
"1576 633.333 OFFCURVE",
"1565.17 701.5 OFFCURVE",
"1543.5 762.5 CURVE SMOOTH",
"1521.83 823.5 OFFCURVE",
"1491.83 875.5 OFFCURVE",
"1453.5 918.5 CURVE SMOOTH",
"1415.17 961.5 OFFCURVE",
"1369.67 994.667 OFFCURVE",
"1317 1018 CURVE SMOOTH",
"1264.33 1041.33 OFFCURVE",
"1207.33 1053 OFFCURVE",
"1146 1053 CURVE SMOOTH"
);
},
{
closed = 1;
nodes = (
"1163.33 839 OFFCURVE",
"1189.83 832.333 OFFCURVE",
"1211.5 819 CURVE SMOOTH",
"1233.17 805.667 OFFCURVE",
"1250.5 788.667 OFFCURVE",
"1263.5 768 CURVE SMOOTH",
"1276.5 747.333 OFFCURVE",
"1285.83 724.167 OFFCURVE",
"1291.5 698.5 CURVE SMOOTH",
"1297.17 672.833 OFFCURVE",
"1300 647.667 OFFCURVE",
"1300 623 CURVE",
"936 623 LINE",
"944.666 693 OFFCURVE",
"964.833 746.5 OFFCURVE",
"996.5 783.5 CURVE SMOOTH",
"1028.17 820.5 OFFCURVE",
"1073.33 839 OFFCURVE",
"1132 839 CURVE SMOOTH"
);
},
{
closed = 1;
nodes = (
"642 427 LINE SMOOTH",
"642 383 OFFCURVE",
"637 345.833 OFFCURVE",
"627 315.5 CURVE SMOOTH",
"617 285.167 OFFCURVE",
"603.333 260.667 OFFCURVE",
"586 242 CURVE SMOOTH",
"568.666 223.333 OFFCURVE",
"548 209.833 OFFCURVE",
"524 201.5 CURVE SMOOTH",
"500 193.167 OFFCURVE",
"474 189 OFFCURVE",
"446 189 CURVE SMOOTH",
"408.666 189 OFFCURVE",
"380.333 197.833 OFFCURVE",
"361 215.5 CURVE SMOOTH",
"341.666 233.167 OFFCURVE",
"332 260 OFFCURVE",
"332 296 CURVE SMOOTH",
"332 313.333 OFFCURVE",
"336.5 330.166 OFFCURVE",
"345.5 346.5 CURVE SMOOTH",
"354.5 362.833 OFFCURVE",
"370.666 377.666 OFFCURVE",
"394 391 CURVE SMOOTH",
"417.333 404.333 OFFCURVE",
"449 415.5 OFFCURVE",
"489 424.5 CURVE SMOOTH",
"529 433.5 OFFCURVE",
"580 439.667 OFFCURVE",
"642 443 CURVE"
);
}
);
width = 1628;
}
);
leftKerningGroup = a;
rightKerningGroup = e;
unicode = 00E6;
},
{
glyphname = b;
layers = (
{
layerId = "E173E66F-8B44-4FD8-81CD-C7310885C9A9";
name = Bold;
paths = (
{
closed = 1;
nodes = (
"105 0 LINE",
"311 0 LINE SMOOTH",
"331 0 OFFCURVE",
"347 4 OFFCURVE",
"359 12 CURVE SMOOTH",
"371 20 OFFCURVE",
"379.667 34.6667 OFFCURVE",
"385 56 CURVE",
"396 108 LINE",
"412 90 OFFCURVE",
"428.5 73.3333 OFFCURVE",
"445.5 58 CURVE SMOOTH",
"462.5 42.6667 OFFCURVE",
"481.333 29.5 OFFCURVE",
"502 18.5 CURVE SMOOTH",
"522.667 7.5 OFFCURVE",
"545.333 -1 OFFCURVE",
"570 -7 CURVE SMOOTH",
"594.667 -13 OFFCURVE",
"622.667 -16 OFFCURVE",
"654 -16 CURVE SMOOTH",
"719.333 -16 OFFCURVE",
"779 -3 OFFCURVE",
"833 24.5 CURVE SMOOTH",
"887 51.5 OFFCURVE",
"933.5 89.5 OFFCURVE",
"972.5 138.5 CURVE SMOOTH",
"1011.5 187.5 OFFCURVE",
"1041.67 246.333 OFFCURVE",
"1063 315 CURVE SMOOTH",
"1084.33 383.667 OFFCURVE",
"1095 460 OFFCURVE",
"1095 544 CURVE SMOOTH",
"1095 621.333 OFFCURVE",
"1085.83 691.333 OFFCURVE",
"1067.5 754 CURVE SMOOTH",
"1049.17 816.667 OFFCURVE",
"1023 870.167 OFFCURVE",
"989 914.5 CURVE SMOOTH",
"955 958.833 OFFCURVE",
"914 993 OFFCURVE",
"866 1017 CURVE SMOOTH",
"818 1041 OFFCURVE",
"764.667 1053 OFFCURVE",
"706 1053 CURVE SMOOTH",
"646.667 1053 OFFCURVE",
"593.333 1041.5 OFFCURVE",
"546 1018.5 CURVE SMOOTH",
"498.667 995.5 OFFCURVE",
"455 964.667 OFFCURVE",
"415 926 CURVE",
"415 1497 LINE",
"105 1497 LINE"
);
},
{
closed = 1;
nodes = (
"625.667 820 OFFCURVE",
"651.167 814.833 OFFCURVE",
"673.5 804.5 CURVE SMOOTH",
"695.833 794.167 OFFCURVE",
"714.5 777.5 OFFCURVE",
"729.5 754.5 CURVE SMOOTH",
"744.5 731.5 OFFCURVE",
"755.833 701.833 OFFCURVE",
"763.5 665.5 CURVE SMOOTH",
"771.167 629.167 OFFCURVE",
"775 585 OFFCURVE",
"775 533 CURVE SMOOTH",
"775 473 OFFCURVE",
"770 422.5 OFFCURVE",
"760 381.5 CURVE SMOOTH",
"750 340.5 OFFCURVE",
"736.167 307.5 OFFCURVE",
"718.5 282.5 CURVE SMOOTH",
"700.833 257.5 OFFCURVE",
"679.667 239.5 OFFCURVE",
"655 228.5 CURVE SMOOTH",
"630.333 217.5 OFFCURVE",
"603.333 212 OFFCURVE",
"574 212 CURVE SMOOTH",
"546 212 OFFCURVE",
"518.333 217.167 OFFCURVE",
"491 227.5 CURVE SMOOTH",
"463.667 237.833 OFFCURVE",
"438.333 256 OFFCURVE",
"415 282 CURVE",
"415 722 LINE",
"442.333 754 OFFCURVE",
"470 778.333 OFFCURVE",
"498 795 CURVE SMOOTH",
"526 811.667 OFFCURVE",
"559 820 OFFCURVE",
"597 820 CURVE SMOOTH"
);
}
);
width = 1149;
}
);
leftKerningGroup = b;
rightKerningGroup = b;
unicode = 0062;
},
{
glyphname = c;
layers = (
{
layerId = "E173E66F-8B44-4FD8-81CD-C7310885C9A9";
name = Bold;
paths = (
{
closed = 1;
nodes = (
"949 900 LINE",
"899.667 950 OFFCURVE",
"844.333 988 OFFCURVE",
"783 1014 CURVE SMOOTH",
"721.667 1040 OFFCURVE",
"650.333 1053 OFFCURVE",
"569 1053 CURVE SMOOTH",
"484.333 1053 OFFCURVE",
"409.833 1039.33 OFFCURVE",
"345.5 1012 CURVE SMOOTH",
"281.167 984.667 OFFCURVE",
"227.167 947.167 OFFCURVE",
"183.5 899.5 CURVE SMOOTH",
"139.833 851.833 OFFCURVE",
"106.833 795.5 OFFCURVE",
"84.5001 730.5 CURVE SMOOTH",
"62.1667 665.5 OFFCURVE",
"51 595.667 OFFCURVE",
"51 521 CURVE SMOOTH",
"51 435.667 OFFCURVE",
"63.8334 359.667 OFFCURVE",
"89.5001 293 CURVE SMOOTH",
"115.167 226.333 OFFCURVE",
"149.833 170.167 OFFCURVE",
"193.5 124.5 CURVE SMOOTH",
"237.167 78.8334 OFFCURVE",
"287.833 44 OFFCURVE",
"345.5 20 CURVE SMOOTH",
"403.167 -4 OFFCURVE",
"463.667 -16 OFFCURVE",
"527 -16 CURVE SMOOTH",
"562.333 -16 OFFCURVE",
"598.667 -13 OFFCURVE",
"636 -8 CURVE SMOOTH",
"673.333 -3 OFFCURVE",
"710.5 5.50006 OFFCURVE",
"747.5 18.5001 CURVE SMOOTH",
"784.5 31.5001 OFFCURVE",
"820.667 49.5001 OFFCURVE",
"856 72.5001 CURVE SMOOTH",
"891.333 95.5001 OFFCURVE",
"925 125.333 OFFCURVE",
"957 162 CURVE",
"867 273 LINE",
"854.333 291 OFFCURVE",
"835.667 300 OFFCURVE",
"811 300 CURVE SMOOTH",
"792.333 300 OFFCURVE",
"776.833 295.333 OFFCURVE",
"764.5 286 CURVE SMOOTH",
"752.167 276.667 OFFCURVE",
"738.667 266.5 OFFCURVE",
"724 255.5 CURVE SMOOTH",
"709.333 244.5 OFFCURVE",
"691.5 234.5 OFFCURVE",
"670.5 225.5 CURVE SMOOTH",
"649.5 216.5 OFFCURVE",
"621 212 OFFCURVE",
"585 212 CURVE SMOOTH",
"517.667 212 OFFCURVE",
"464.833 238.667 OFFCURVE",
"426.5 292 CURVE SMOOTH",
"388.167 345.333 OFFCURVE",
"369 421.667 OFFCURVE",
"369 521 CURVE SMOOTH",
"369 568.333 OFFCURVE",
"373.333 610.833 OFFCURVE",
"382 648.5 CURVE SMOOTH",
"390.667 686.167 OFFCURVE",
"404 718 OFFCURVE",
"422 744 CURVE SMOOTH",
"440 770 OFFCURVE",
"462.833 790 OFFCURVE",
"490.5 804 CURVE SMOOTH",
"518.167 818 OFFCURVE",
"551 825 OFFCURVE",
"589 825 CURVE SMOOTH",
"619.667 825 OFFCURVE",
"645.333 821.333 OFFCURVE",
"666 814 CURVE SMOOTH",
"686.667 806.667 OFFCURVE",
"704.667 798.5 OFFCURVE",
"720 789.5 CURVE SMOOTH",
"735.333 780.5 OFFCURVE",
"749.167 772.333 OFFCURVE",
"761.5 765 CURVE SMOOTH",
"773.833 757.667 OFFCURVE",
"787.667 754 OFFCURVE",
"803 754 CURVE SMOOTH",
"819 754 OFFCURVE",
"831.333 757.333 OFFCURVE",
"840 764 CURVE SMOOTH",
"848.667 770.667 OFFCURVE",
"857.667 779.667 OFFCURVE",
"867 791 CURVE"
);
}
);
width = 973;
}
);
leftKerningGroup = c;
rightKerningGroup = c;
unicode = 0063;
},
{
glyphname = ccedilla;
layers = (
{
layerId = "E173E66F-8B44-4FD8-81CD-C7310885C9A9";
name = Bold;
paths = (
{
closed = 1;
nodes = (
"397.333 -220 OFFCURVE",
"386 -229 OFFCURVE",
"382 -247 CURVE",
"354 -340 LINE",
"379.333 -345 OFFCURVE",
"403.5 -349 OFFCURVE",
"426.5 -352 CURVE SMOOTH",
"449.5 -355 OFFCURVE",
"474.667 -356 OFFCURVE",
"502 -356 CURVE SMOOTH",
"542 -356 OFFCURVE",
"578.5 -353 OFFCURVE",
"611.5 -346 CURVE SMOOTH",
"644.5 -339 OFFCURVE",
"672.667 -328 OFFCURVE",
"696 -315 CURVE SMOOTH",
"719.333 -302 OFFCURVE",
"737.5 -286 OFFCURVE",
"750.5 -267 CURVE SMOOTH",
"763.5 -248 OFFCURVE",
"770 -227 OFFCURVE",
"770 -204 CURVE SMOOTH",
"770 -187 OFFCURVE",
"767.333 -171 OFFCURVE",
"762 -156 CURVE SMOOTH",
"756.667 -141 OFFCURVE",
"747.667 -127 OFFCURVE",
"735 -114 CURVE SMOOTH",
"722.333 -101 OFFCURVE",
"705.5 -89 OFFCURVE",
"684.5 -78 CURVE SMOOTH",
"663.5 -67 OFFCURVE",
"637 -57 OFFCURVE",
"605 -49 CURVE",
"616 -11 LINE",
"645.333 -8 OFFCURVE",
"674.833 -2 OFFCURVE",
"704.5 5.5 CURVE SMOOTH",
"734.167 13.1667 OFFCURVE",
"763.5 23.6667 OFFCURVE",
"792.5 37 CURVE SMOOTH",
"821.5 50.3333 OFFCURVE",
"849.833 67.1667 OFFCURVE",
"877.5 87.5 CURVE SMOOTH",
"905.167 107.833 OFFCURVE",
"931.667 132.667 OFFCURVE",
"957 162 CURVE",
"867 273 LINE",
"854.333 291 OFFCURVE",
"835.667 300 OFFCURVE",
"811 300 CURVE SMOOTH",
"792.333 300 OFFCURVE",
"776.833 295.333 OFFCURVE",
"764.5 286 CURVE SMOOTH",
"752.167 276.667 OFFCURVE",
"738.667 266.5 OFFCURVE",
"724 255.5 CURVE SMOOTH",
"709.333 244.5 OFFCURVE",
"691.5 234.5 OFFCURVE",
"670.5 225.5 CURVE SMOOTH",
"649.5 216.5 OFFCURVE",
"621 212 OFFCURVE",
"585 212 CURVE SMOOTH",
"517.667 212 OFFCURVE",
"464.833 238.667 OFFCURVE",
"426.5 292 CURVE SMOOTH",
"388.167 345.333 OFFCURVE",
"369 421.667 OFFCURVE",
"369 521 CURVE SMOOTH",
"369 568.333 OFFCURVE",
"373.333 610.833 OFFCURVE",
"382 648.5 CURVE SMOOTH",
"390.667 686.167 OFFCURVE",
"404 718 OFFCURVE",
"422 744 CURVE SMOOTH",
"440 770 OFFCURVE",
"462.833 790 OFFCURVE",
"490.5 804 CURVE SMOOTH",
"518.167 818 OFFCURVE",
"551 825 OFFCURVE",
"589 825 CURVE SMOOTH",
"619.667 825 OFFCURVE",
"645.333 821.333 OFFCURVE",
"666 814 CURVE SMOOTH",
"686.667 806.667 OFFCURVE",
"704.667 798.5 OFFCURVE",
"720 789.5 CURVE SMOOTH",
"735.333 780.5 OFFCURVE",
"749.167 772.333 OFFCURVE",
"761.5 765 CURVE SMOOTH",
"773.833 757.667 OFFCURVE",
"787.667 754 OFFCURVE",
"803 754 CURVE SMOOTH",
"819 754 OFFCURVE",
"831.333 757.333 OFFCURVE",
"840 764 CURVE SMOOTH",
"848.667 770.667 OFFCURVE",
"857.667 779.667 OFFCURVE",
"867 791 CURVE",
"949 900 LINE",
"899.667 950 OFFCURVE",
"844.333 988 OFFCURVE",
"783 1014 CURVE SMOOTH",
"721.667 1040 OFFCURVE",
"650.333 1053 OFFCURVE",
"569 1053 CURVE SMOOTH",
"484.333 1053 OFFCURVE",
"409.833 1039.33 OFFCURVE",
"345.5 1012 CURVE SMOOTH",
"281.167 984.667 OFFCURVE",
"227.167 947.167 OFFCURVE",
"183.5 899.5 CURVE SMOOTH",
"139.833 851.833 OFFCURVE",
"106.833 795.5 OFFCURVE",
"84.5 730.5 CURVE SMOOTH",
"62.1666 665.5 OFFCURVE",
"51 595.667 OFFCURVE",
"51 521 CURVE SMOOTH",
"51 445.667 OFFCURVE",
"61.1666 377.5 OFFCURVE",
"81.5 316.5 CURVE SMOOTH",
"101.833 255.5 OFFCURVE",
"129.667 202.667 OFFCURVE",
"165 158 CURVE SMOOTH",
"200.333 113.333 OFFCURVE",
"241.667 77 OFFCURVE",
"289 49 CURVE SMOOTH",
"336.333 21 OFFCURVE",
"387 2 OFFCURVE",
"441 -8 CURVE",
"394 -145 LINE",
"442.667 -152 OFFCURVE",
"477.167 -159 OFFCURVE",
"497.5 -166 CURVE SMOOTH",
"517.833 -173 OFFCURVE",
"528 -183 OFFCURVE",
"528 -198 CURVE SMOOTH",
"528 -205 OFFCURVE",
"524.333 -212 OFFCURVE",
"517 -218 CURVE SMOOTH",
"509.667 -224 OFFCURVE",
"497.333 -227 OFFCURVE",
"480 -227 CURVE SMOOTH",
"466 -227 OFFCURVE",
"454.333 -226 OFFCURVE",
"445 -224 CURVE SMOOTH",
"435.667 -221 OFFCURVE",
"426 -220 OFFCURVE",
"416 -220 CURVE SMOOTH"
);
}
);
width = 975;
}
);
leftKerningGroup = c;
rightKerningGroup = c;
unicode = 00E7;
},
{
glyphname = d;
lastChange = "2014-08-18 22:41:37 -0500";
layers = (
{
layerId = "E173E66F-8B44-4FD8-81CD-C7310885C9A9";
name = Bold;
paths = (
{
closed = 1;
nodes = (
"870 0 LINE",
"1044 0 LINE",
"1044 1497 LINE",
"734 1497 LINE",
"734 972 LINE",
"704 997.333 OFFCURVE",
"670.5 1017.83 OFFCURVE",
"633.5 1033.5 CURVE SMOOTH",
"596.5 1049.17 OFFCURVE",
"551.333 1057 OFFCURVE",
"498 1057 CURVE SMOOTH",
"432 1057 OFFCURVE",
"371.667 1043.33 OFFCURVE",
"317 1016 CURVE SMOOTH",
"262.333 988.667 OFFCURVE",
"215.5 950.833 OFFCURVE",
"176.5 902.5 CURVE SMOOTH",
"137.5 854.167 OFFCURVE",
"107.333 796.833 OFFCURVE",
"86 730.5 CURVE SMOOTH",
"64.6667 664.167 OFFCURVE",
"54 592.333 OFFCURVE",
"54 515 CURVE SMOOTH",
"54 431 OFFCURVE",
"63.5 356.167 OFFCURVE",
"82.5 290.5 CURVE SMOOTH",
"101.5 224.833 OFFCURVE",
"127.667 169.333 OFFCURVE",
"161 124 CURVE SMOOTH",
"194.333 78.6667 OFFCURVE",
"234 44 OFFCURVE",
"280 20 CURVE SMOOTH",
"326 -4 OFFCURVE",
"376 -16 OFFCURVE",
"430 -16 CURVE SMOOTH",
"465.333 -16 OFFCURVE",
"498.167 -12 OFFCURVE",
"528.5 -5 CURVE SMOOTH",
"558.833 1.50006 OFFCURVE",
"587.167 11.5001 OFFCURVE",
"613.5 24.5001 CURVE SMOOTH",
"639.833 37.5001 OFFCURVE",
"664.333 53 OFFCURVE",
"687 71 CURVE SMOOTH",
"709.667 89 OFFCURVE",
"731.333 109 OFFCURVE",
"752 131 CURVE",
"776 52 LINE",
"788 17.3334 OFFCURVE",
"779 6 OFFCURVE",
"806 0 CURVE"
);
},
{
closed = 1;
nodes = (
"513.333 222 OFFCURVE",
"491 227 OFFCURVE",
"471 237 CURVE SMOOTH",
"451 247 OFFCURVE",
"433.833 263.5 OFFCURVE",
"419.5 286.5 CURVE SMOOTH",
"405.167 309.5 OFFCURVE",
"394 339.667 OFFCURVE",
"386 377 CURVE SMOOTH",
"378 414.333 OFFCURVE",
"374 460.333 OFFCURVE",
"374 515 CURVE SMOOTH",
"374 571.667 OFFCURVE",
"379 620 OFFCURVE",
"389 660 CURVE SMOOTH",
"399 700 OFFCURVE",
"412.833 732.5 OFFCURVE",
"430.5 757.5 CURVE SMOOTH",
"448.167 782.5 OFFCURVE",
"469 800.667 OFFCURVE",
"493 812 CURVE SMOOTH",
"517 823.333 OFFCURVE",
"543.333 829 OFFCURVE",
"572 829 CURVE SMOOTH",
"602 829 OFFCURVE",
"630.5 823.833 OFFCURVE",
"657.5 813.5 CURVE SMOOTH",
"684.5 803.167 OFFCURVE",
"710 785 OFFCURVE",
"734 759 CURVE",
"734 319 LINE",
"720.667 303 OFFCURVE",
"707.167 289 OFFCURVE",
"693.5 277 CURVE SMOOTH",
"679.833 265 OFFCURVE",
"665.333 255 OFFCURVE",
"650 247 CURVE SMOOTH",
"634.667 239 OFFCURVE",
"617.833 232.833 OFFCURVE",
"599.5 228.5 CURVE SMOOTH",
"581.167 224.167 OFFCURVE",
"560.667 222 OFFCURVE",
"538 222 CURVE SMOOTH"
);
}
);
width = 1149;
}
);
leftKerningGroup = d;
rightKerningGroup = d;
unicode = 0064;
},
{
glyphname = eth;
layers = (
{
layerId = "E173E66F-8B44-4FD8-81CD-C7310885C9A9";
name = Bold;
paths = (
{
closed = 1;
nodes = (
"407 963 LINE",
"619 1087 LINE",
"669.667 1053 OFFCURVE",
"709.333 1015 OFFCURVE",
"738 973 CURVE SMOOTH",
"766.667 931 OFFCURVE",
"787.667 882.667 OFFCURVE",
"801 828 CURVE",
"763 862 OFFCURVE",
"720.5 888.333 OFFCURVE",
"673.5 907 CURVE SMOOTH",
"626.5 925.667 OFFCURVE",
"573 935 OFFCURVE",
"513 935 CURVE SMOOTH",
"443.667 935 OFFCURVE",
"380.333 922.667 OFFCURVE",
"323 898 CURVE SMOOTH",
"265.667 873.333 OFFCURVE",
"216.5 840 OFFCURVE",
"175.5 798 CURVE SMOOTH",
"134.5 756 OFFCURVE",
"102.833 707.5 OFFCURVE",
"80.5001 652.5 CURVE SMOOTH",
"58.1667 597.5 OFFCURVE",
"47 540 OFFCURVE",
"47 480 CURVE SMOOTH",
"47 402 OFFCURVE",
"59.8334 332.333 OFFCURVE",
"85.5001 271 CURVE SMOOTH",
"111.167 209.667 OFFCURVE",
"146.667 157.667 OFFCURVE",
"192 115 CURVE SMOOTH",
"237.333 72.3333 OFFCURVE",
"291 39.8333 OFFCURVE",
"353 17.5 CURVE SMOOTH",
"415 -5 OFFCURVE",
"482.333 -16 OFFCURVE",
"555 -16 CURVE SMOOTH",
"640.333 -16 OFFCURVE",
"716.333 -2 OFFCURVE",
"783 25.5 CURVE SMOOTH",
"849.667 53.1667 OFFCURVE",
"905.833 93.8333 OFFCURVE",
"951.5 147.5 CURVE SMOOTH",
"997.167 201.167 OFFCURVE",
"1031.83 266.833 OFFCURVE",
"1055.5 344.5 CURVE SMOOTH",
"1079.17 422.167 OFFCURVE",
"1091 511 OFFCURVE",
"1091 611 CURVE SMOOTH",
"1091 741 OFFCURVE",
"1070.17 854.833 OFFCURVE",
"1028.5 952.5 CURVE SMOOTH",
"986.833 1050.17 OFFCURVE",
"929.667 1133.33 OFFCURVE",
"857 1202 CURVE",
"923 1235 LINE SMOOTH",
"940.333 1244.33 OFFCURVE",
"951.5 1257.33 OFFCURVE",
"956.5 1274 CURVE SMOOTH",
"961.5 1290.67 OFFCURVE",
"958.333 1307.67 OFFCURVE",
"947 1325 CURVE SMOOTH",
"885 1423 LINE",
"702 1316 LINE",
"645.333 1348.67 OFFCURVE",
"584.667 1375.67 OFFCURVE",
"520 1397 CURVE SMOOTH",
"455.333 1418.33 OFFCURVE",
"387.667 1434.67 OFFCURVE",
"317 1446 CURVE",
"281 1343 LINE SMOOTH",
"273.667 1323 OFFCURVE",
"270 1305.17 OFFCURVE",
"270 1289.5 CURVE SMOOTH",
"270 1273.83 OFFCURVE",
"273 1260.33 OFFCURVE",
"279 1249 CURVE SMOOTH",
"285 1237.67 OFFCURVE",
"293.5 1228.17 OFFCURVE",
"304.5 1220.5 CURVE SMOOTH",
"315.5 1212.83 OFFCURVE",
"327.667 1207 OFFCURVE",
"341 1203 CURVE SMOOTH",
"355.667 1199 OFFCURVE",
"369.667 1194.83 OFFCURVE",
"383 1190.5 CURVE SMOOTH",
"396.333 1186.17 OFFCURVE",
"409.667 1181.67 OFFCURVE",
"423 1177 CURVE",
"377 1155 LINE",
"357 1144.33 OFFCURVE",
"344.333 1130.5 OFFCURVE",
"339 1113.5 CURVE SMOOTH",
"333.667 1096.5 OFFCURVE",
"337 1078.33 OFFCURVE",
"349 1059 CURVE SMOOTH"
);
},
{
closed = 1;
nodes = (
"533.667 212 OFFCURVE",
"506.333 217.667 OFFCURVE",
"481 229 CURVE SMOOTH",
"455.667 240.333 OFFCURVE",
"433.667 257.167 OFFCURVE",
"415 279.5 CURVE SMOOTH",
"396.333 301.833 OFFCURVE",
"381.667 329.667 OFFCURVE",
"371 363 CURVE SMOOTH",
"360.333 396.333 OFFCURVE",
"355 434.667 OFFCURVE",
"355 478 CURVE SMOOTH",
"355 510 OFFCURVE",
"359.833 539.833 OFFCURVE",
"369.5 567.5 CURVE SMOOTH",
"379.167 595.167 OFFCURVE",
"393.333 619.333 OFFCURVE",
"412 640 CURVE SMOOTH",
"430.667 660.667 OFFCURVE",
"453.833 677 OFFCURVE",
"481.5 689 CURVE SMOOTH",
"509.167 701 OFFCURVE",
"541 707 OFFCURVE",
"577 707 CURVE SMOOTH",
"633.667 707 OFFCURVE",
"679.833 693.167 OFFCURVE",
"715.5 665.5 CURVE SMOOTH",
"751.167 637.833 OFFCURVE",
"778.667 603 OFFCURVE",
"798 561 CURVE",
"796 493 OFFCURVE",
"788.333 436.5 OFFCURVE",
"775 391.5 CURVE SMOOTH",
"761.667 346.5 OFFCURVE",
"744.167 310.833 OFFCURVE",
"722.5 284.5 CURVE SMOOTH",
"700.833 258.167 OFFCURVE",
"676.333 239.5 OFFCURVE",
"649 228.5 CURVE SMOOTH",
"621.667 217.5 OFFCURVE",
"593 212 OFFCURVE",
"563 212 CURVE SMOOTH"
);
}
);
width = 1149;
}
);
leftKerningGroup = eth;
rightKerningGroup = eth;
unicode = 00F0;
},
{
glyphname = e;
lastChange = "2014-08-19 19:12:20 -0500";
layers = (
{
layerId = "E173E66F-8B44-4FD8-81CD-C7310885C9A9";
name = Bold;
paths = (
{
closed = 1;
nodes = (
"482.667 1053 OFFCURVE",
"411.5 1039.33 OFFCURVE",
"348.5 1012 CURVE SMOOTH",
"285.5 984.667 OFFCURVE",
"231.833 947.667 OFFCURVE",
"187.5 901 CURVE SMOOTH",
"143.167 854.333 OFFCURVE",
"109.167 800 OFFCURVE",
"85.5 738 CURVE SMOOTH",
"61.8333 676 OFFCURVE",
"50 610.333 OFFCURVE",
"50 541 CURVE SMOOTH",
"50 449 OFFCURVE",
"63.8333 368.333 OFFCURVE",
"91.5 299 CURVE SMOOTH",
"119.167 229.667 OFFCURVE",
"156.833 171.667 OFFCURVE",
"204.5 125 CURVE SMOOTH",
"252.167 78.3334 OFFCURVE",
"307.833 43.1667 OFFCURVE",
"371.5 19.5001 CURVE SMOOTH",
"435.167 -4 OFFCURVE",
"503.333 -16 OFFCURVE",
"576 -16 CURVE SMOOTH",
"611.333 -16 OFFCURVE",
"648.5 -13 OFFCURVE",
"687.5 -8 CURVE SMOOTH",
"726.5 -3 OFFCURVE",
"765.5 5.50006 OFFCURVE",
"804.5 18.5001 CURVE SMOOTH",
"843.5 31.5001 OFFCURVE",
"881.5 49.5001 OFFCURVE",
"918.5 72.5001 CURVE SMOOTH",
"955.5 95.5001 OFFCURVE",
"990 125.333 OFFCURVE",
"1022 162 CURVE",
"932 273 LINE",
"919.333 291 OFFCURVE",
"900.667 300 OFFCURVE",
"876 300 CURVE SMOOTH",
"857.333 300 OFFCURVE",
"839.5 295.667 OFFCURVE",
"822.5 287 CURVE SMOOTH",
"805.5 278.333 OFFCURVE",
"786.833 268.667 OFFCURVE",
"766.5 258 CURVE SMOOTH",
"746.167 247.333 OFFCURVE",
"723 237.667 OFFCURVE",
"697 229 CURVE SMOOTH",
"671 220.333 OFFCURVE",
"640 216 OFFCURVE",
"604 216 CURVE SMOOTH",
"536.667 216 OFFCURVE",
"481.667 235.5 OFFCURVE",
"439 274.5 CURVE SMOOTH",
"396.333 313.5 OFFCURVE",
"370 350 OFFCURVE",
"360 437 CURVE",
"958 437 LINE SMOOTH",
"972 437 OFFCURVE",
"984 439 OFFCURVE",
"993 442 CURVE SMOOTH",
"1002 445 OFFCURVE",
"1009 451 OFFCURVE",
"1014 460 CURVE SMOOTH",
"1019 469 OFFCURVE",
"1023 480 OFFCURVE",
"1025 495 CURVE SMOOTH",
"1027 510 OFFCURVE",
"1028 529 OFFCURVE",
"1028 552 CURVE SMOOTH",
"1028 627 OFFCURVE",
"1016.5 719.5 OFFCURVE",
"993.5 778.5 CURVE SMOOTH",
"970.5 837.5 OFFCURVE",
"938.5 887.333 OFFCURVE",
"897.5 928 CURVE SMOOTH",
"856.5 968.667 OFFCURVE",
"807.5 999.667 OFFCURVE",
"750.5 1021 CURVE SMOOTH",
"693.5 1042.33 OFFCURVE",
"630.667 1053 OFFCURVE",
"562 1053 CURVE SMOOTH"
);
},
{
closed = 1;
nodes = (
"601.333 839 OFFCURVE",
"629.667 833.333 OFFCURVE",
"653 822 CURVE SMOOTH",
"676.333 810.667 OFFCURVE",
"695.167 795.833 OFFCURVE",
"709.5 777.5 CURVE SMOOTH",
"723.833 759.167 OFFCURVE",
"734.167 738.333 OFFCURVE",
"740.5 715 CURVE SMOOTH",
"746.833 691.667 OFFCURVE",
"750 642 OFFCURVE",
"750 617 CURVE",
"363 617 LINE",
"374 680 OFFCURVE",
"395.667 754.833 OFFCURVE",
"429 788.5 CURVE SMOOTH",
"462.333 822.167 OFFCURVE",
"508.667 839 OFFCURVE",
"568 839 CURVE SMOOTH"
);
}
);
width = 1078;
}
);
leftKerningGroup = c;
rightKerningGroup = e;
unicode = 0065;
},
{
glyphname = eacute;
lastChange = "2014-08-19 19:12:35 -0500";
layers = (
{
layerId = "E173E66F-8B44-4FD8-81CD-C7310885C9A9";
name = Bold;
paths = (
{
closed = 1;
nodes = (
"966 1473 LINE",
"666 1473 LINE SMOOTH",
"634.667 1473 OFFCURVE",
"611.333 1467.83 OFFCURVE",
"596 1457.5 CURVE SMOOTH",
"580.667 1447.17 OFFCURVE",
"567.333 1432.33 OFFCURVE",
"556 1413 CURVE SMOOTH",
"420 1168 LINE",
"606 1168 LINE SMOOTH",
"629.333 1168 OFFCURVE",
"648 1171.17 OFFCURVE",
"662 1177.5 CURVE SMOOTH",
"676 1183.83 OFFCURVE",
"690.667 1194.67 OFFCURVE",
"706 1210 CURVE SMOOTH"
);
},
{
closed = 1;
nodes = (
"482.667 1053 OFFCURVE",
"411.5 1039.33 OFFCURVE",
"348.5 1012 CURVE SMOOTH",
"285.5 984.667 OFFCURVE",
"231.833 947.667 OFFCURVE",
"187.5 901 CURVE SMOOTH",
"143.167 854.333 OFFCURVE",
"109.167 800 OFFCURVE",
"85.5 738 CURVE SMOOTH",
"61.833 676 OFFCURVE",
"50 610.333 OFFCURVE",
"50 541 CURVE SMOOTH",
"50 449 OFFCURVE",
"63.833 368.333 OFFCURVE",
"91.5 299 CURVE SMOOTH",
"119.167 229.667 OFFCURVE",
"156.833 171.667 OFFCURVE",
"204.5 125 CURVE SMOOTH",
"252.167 78.333 OFFCURVE",
"307.833 43.167 OFFCURVE",
"371.5 19.5 CURVE SMOOTH",
"435.167 -4 OFFCURVE",
"503.333 -16 OFFCURVE",
"576 -16 CURVE SMOOTH",
"611.333 -16 OFFCURVE",
"648.5 -13 OFFCURVE",
"687.5 -8 CURVE SMOOTH",
"726.5 -3 OFFCURVE",
"765.5 5.5 OFFCURVE",
"804.5 18.5 CURVE SMOOTH",
"843.5 31.5 OFFCURVE",
"881.5 49.5 OFFCURVE",
"918.5 72.5 CURVE SMOOTH",
"955.5 95.5 OFFCURVE",
"990 125.333 OFFCURVE",
"1022 162 CURVE",
"932 273 LINE",
"919.333 291 OFFCURVE",
"900.667 300 OFFCURVE",
"876 300 CURVE SMOOTH",
"857.333 300 OFFCURVE",
"839.5 295.667 OFFCURVE",
"822.5 287 CURVE SMOOTH",
"805.5 278.333 OFFCURVE",
"786.833 268.667 OFFCURVE",
"766.5 258 CURVE SMOOTH",
"746.167 247.333 OFFCURVE",
"723 237.667 OFFCURVE",
"697 229 CURVE SMOOTH",
"671 220.333 OFFCURVE",
"640 216 OFFCURVE",
"604 216 CURVE SMOOTH",
"536.667 216 OFFCURVE",
"481.667 235.5 OFFCURVE",
"439 274.5 CURVE SMOOTH",
"396.333 313.5 OFFCURVE",
"370 350 OFFCURVE",
"360 437 CURVE",
"958 437 LINE SMOOTH",
"972 437 OFFCURVE",
"984 439 OFFCURVE",
"993 442 CURVE SMOOTH",
"1002 445 OFFCURVE",
"1009 451 OFFCURVE",
"1014 460 CURVE SMOOTH",
"1019 469 OFFCURVE",
"1023 480 OFFCURVE",
"1025 495 CURVE SMOOTH",
"1027 510 OFFCURVE",
"1028 529 OFFCURVE",
"1028 552 CURVE SMOOTH",
"1028 627 OFFCURVE",
"1016.5 719.5 OFFCURVE",
"993.5 778.5 CURVE SMOOTH",
"970.5 837.5 OFFCURVE",
"938.5 887.333 OFFCURVE",
"897.5 928 CURVE SMOOTH",
"856.5 968.667 OFFCURVE",
"807.5 999.667 OFFCURVE",
"750.5 1021 CURVE SMOOTH",
"693.5 1042.33 OFFCURVE",
"630.667 1053 OFFCURVE",
"562 1053 CURVE SMOOTH"
);
},
{
closed = 1;
nodes = (
"601.333 839 OFFCURVE",
"629.667 833.333 OFFCURVE",
"653 822 CURVE SMOOTH",
"676.333 810.667 OFFCURVE",
"695.167 795.833 OFFCURVE",
"709.5 777.5 CURVE SMOOTH",
"723.833 759.167 OFFCURVE",
"734.167 738.333 OFFCURVE",
"740.5 715 CURVE SMOOTH",
"746.833 691.667 OFFCURVE",
"750 642 OFFCURVE",
"750 617 CURVE",
"363 617 LINE",
"374 680 OFFCURVE",
"395.667 754.833 OFFCURVE",
"429 788.5 CURVE SMOOTH",
"462.333 822.167 OFFCURVE",
"508.667 839 OFFCURVE",
"568 839 CURVE SMOOTH"
);
}
);
width = 1078;
}
);
leftKerningGroup = c;
rightKerningGroup = e;
unicode = 00E9;
},
{
glyphname = ecircumflex;
lastChange = "2014-08-19 19:12:41 -0500";
layers = (
{
layerId = "E173E66F-8B44-4FD8-81CD-C7310885C9A9";
name = Bold;
paths = (
{
closed = 1;
nodes = (
"950 1168 LINE",
"716 1457 LINE",
"424 1457 LINE",
"190 1168 LINE",
"404 1168 LINE SMOOTH",
"416 1168 OFFCURVE",
"428 1170.33 OFFCURVE",
"440 1175 CURVE SMOOTH",
"452 1179.67 OFFCURVE",
"463 1186.67 OFFCURVE",
"473 1196 CURVE",
"550 1279 LINE",
"554 1282.33 OFFCURVE",
"558.167 1286.33 OFFCURVE",
"562.5 1291 CURVE SMOOTH",
"566.833 1295.67 OFFCURVE",
"571 1300.67 OFFCURVE",
"575 1306 CURVE",
"579 1300.67 OFFCURVE",
"583.167 1295.83 OFFCURVE",
"587.5 1291.5 CURVE SMOOTH",
"600 1279 LINE",
"675 1196 LINE",
"686.333 1184.67 OFFCURVE",
"697.667 1177.17 OFFCURVE",
"709 1173.5 CURVE SMOOTH",
"720.333 1169.83 OFFCURVE",
"732 1168 OFFCURVE",
"744 1168 CURVE SMOOTH"
);
},
{
closed = 1;
nodes = (
"482.667 1053 OFFCURVE",
"411.5 1039.33 OFFCURVE",
"348.5 1012 CURVE SMOOTH",
"285.5 984.667 OFFCURVE",
"231.833 947.667 OFFCURVE",
"187.5 901 CURVE SMOOTH",
"143.167 854.333 OFFCURVE",
"109.167 800 OFFCURVE",
"85.5 738 CURVE SMOOTH",
"61.833 676 OFFCURVE",
"50 610.333 OFFCURVE",
"50 541 CURVE SMOOTH",
"50 449 OFFCURVE",
"63.833 368.333 OFFCURVE",
"91.5 299 CURVE SMOOTH",
"119.167 229.667 OFFCURVE",
"156.833 171.667 OFFCURVE",
"204.5 125 CURVE SMOOTH",
"252.167 78.333 OFFCURVE",
"307.833 43.167 OFFCURVE",
"371.5 19.5 CURVE SMOOTH",
"435.167 -4 OFFCURVE",
"503.333 -16 OFFCURVE",
"576 -16 CURVE SMOOTH",
"611.333 -16 OFFCURVE",
"648.5 -13 OFFCURVE",
"687.5 -8 CURVE SMOOTH",
"726.5 -3 OFFCURVE",
"765.5 5.5 OFFCURVE",
"804.5 18.5 CURVE SMOOTH",
"843.5 31.5 OFFCURVE",
"881.5 49.5 OFFCURVE",
"918.5 72.5 CURVE SMOOTH",
"955.5 95.5 OFFCURVE",
"990 125.333 OFFCURVE",
"1022 162 CURVE",
"932 273 LINE",
"919.333 291 OFFCURVE",
"900.667 300 OFFCURVE",
"876 300 CURVE SMOOTH",
"857.333 300 OFFCURVE",
"839.5 295.667 OFFCURVE",
"822.5 287 CURVE SMOOTH",
"805.5 278.333 OFFCURVE",
"786.833 268.667 OFFCURVE",
"766.5 258 CURVE SMOOTH",
"746.167 247.333 OFFCURVE",
"723 237.667 OFFCURVE",
"697 229 CURVE SMOOTH",
"671 220.333 OFFCURVE",
"640 216 OFFCURVE",
"604 216 CURVE SMOOTH",
"536.667 216 OFFCURVE",
"481.667 235.5 OFFCURVE",
"439 274.5 CURVE SMOOTH",
"396.333 313.5 OFFCURVE",
"370 350 OFFCURVE",
"360 437 CURVE",
"958 437 LINE SMOOTH",
"972 437 OFFCURVE",
"984 439 OFFCURVE",
"993 442 CURVE SMOOTH",
"1002 445 OFFCURVE",
"1009 451 OFFCURVE",
"1014 460 CURVE SMOOTH",
"1019 469 OFFCURVE",
"1023 480 OFFCURVE",
"1025 495 CURVE SMOOTH",
"1027 510 OFFCURVE",
"1028 529 OFFCURVE",
"1028 552 CURVE SMOOTH",
"1028 627 OFFCURVE",
"1016.5 719.5 OFFCURVE",
"993.5 778.5 CURVE SMOOTH",
"970.5 837.5 OFFCURVE",
"938.5 887.333 OFFCURVE",
"897.5 928 CURVE SMOOTH",
"856.5 968.667 OFFCURVE",
"807.5 999.667 OFFCURVE",
"750.5 1021 CURVE SMOOTH",
"693.5 1042.33 OFFCURVE",
"630.667 1053 OFFCURVE",
"562 1053 CURVE SMOOTH"
);
},
{
closed = 1;
nodes = (
"601.333 839 OFFCURVE",
"629.667 833.333 OFFCURVE",
"653 822 CURVE SMOOTH",
"676.333 810.667 OFFCURVE",
"695.167 795.833 OFFCURVE",
"709.5 777.5 CURVE SMOOTH",
"723.833 759.167 OFFCURVE",
"734.167 738.333 OFFCURVE",
"740.5 715 CURVE SMOOTH",
"746.833 691.667 OFFCURVE",
"750 642 OFFCURVE",
"750 617 CURVE",
"363 617 LINE",
"374 680 OFFCURVE",
"395.667 754.833 OFFCURVE",
"429 788.5 CURVE SMOOTH",
"462.333 822.167 OFFCURVE",
"508.667 839 OFFCURVE",
"568 839 CURVE SMOOTH"
);
}
);
width = 1078;
}
);
leftKerningGroup = c;
rightKerningGroup = e;
unicode = 00EA;
},
{
glyphname = edieresis;
lastChange = "2014-08-19 19:12:47 -0500";
layers = (
{
layerId = "E173E66F-8B44-4FD8-81CD-C7310885C9A9";
name = Bold;
paths = (
{
closed = 1;
nodes = (
"518 1317 OFFCURVE",
"513.667 1337.67 OFFCURVE",
"505 1357 CURVE SMOOTH",
"496.333 1376.33 OFFCURVE",
"484.5 1393.17 OFFCURVE",
"469.5 1407.5 CURVE SMOOTH",
"454.5 1421.83 OFFCURVE",
"437.167 1433.17 OFFCURVE",
"417.5 1441.5 CURVE SMOOTH",
"397.833 1449.83 OFFCURVE",
"376.667 1454 OFFCURVE",
"354 1454 CURVE SMOOTH",
"332.667 1454 OFFCURVE",
"312.5 1449.83 OFFCURVE",
"293.5 1441.5 CURVE SMOOTH",
"274.5 1433.17 OFFCURVE",
"257.833 1421.83 OFFCURVE",
"243.5 1407.5 CURVE SMOOTH",
"229.167 1393.17 OFFCURVE",
"217.667 1376.33 OFFCURVE",
"209 1357 CURVE SMOOTH",
"200.333 1337.67 OFFCURVE",
"196 1317 OFFCURVE",
"196 1295 CURVE SMOOTH",
"196 1273.67 OFFCURVE",
"200.333 1253.67 OFFCURVE",
"209 1235 CURVE SMOOTH",
"217.667 1216.33 OFFCURVE",
"229.167 1200.17 OFFCURVE",
"243.5 1186.5 CURVE SMOOTH",
"257.833 1172.83 OFFCURVE",
"274.5 1162 OFFCURVE",
"293.5 1154 CURVE SMOOTH",
"312.5 1146 OFFCURVE",
"332.667 1142 OFFCURVE",
"354 1142 CURVE SMOOTH",
"376.667 1142 OFFCURVE",
"397.833 1146 OFFCURVE",
"417.5 1154 CURVE SMOOTH",
"437.167 1162 OFFCURVE",
"454.5 1172.83 OFFCURVE",
"469.5 1186.5 CURVE SMOOTH",
"484.5 1200.17 OFFCURVE",
"496.333 1216.33 OFFCURVE",
"505 1235 CURVE SMOOTH",
"513.667 1253.67 OFFCURVE",
"518 1273.67 OFFCURVE",
"518 1295 CURVE SMOOTH"
);
},
{
closed = 1;
nodes = (
"944 1317 OFFCURVE",
"939.833 1337.67 OFFCURVE",
"931.5 1357 CURVE SMOOTH",
"923.167 1376.33 OFFCURVE",
"911.667 1393.17 OFFCURVE",
"897 1407.5 CURVE SMOOTH",
"882.333 1421.83 OFFCURVE",
"865.167 1433.17 OFFCURVE",
"845.5 1441.5 CURVE SMOOTH",
"825.833 1449.83 OFFCURVE",
"804.667 1454 OFFCURVE",
"782 1454 CURVE SMOOTH",
"760 1454 OFFCURVE",
"739.333 1449.83 OFFCURVE",
"720 1441.5 CURVE SMOOTH",
"700.667 1433.17 OFFCURVE",
"683.667 1421.83 OFFCURVE",
"669 1407.5 CURVE SMOOTH",
"654.333 1393.17 OFFCURVE",
"642.833 1376.33 OFFCURVE",
"634.5 1357 CURVE SMOOTH",
"626.167 1337.67 OFFCURVE",
"622 1317 OFFCURVE",
"622 1295 CURVE SMOOTH",
"622 1273.67 OFFCURVE",
"626.167 1253.67 OFFCURVE",
"634.5 1235 CURVE SMOOTH",
"642.833 1216.33 OFFCURVE",
"654.333 1200.17 OFFCURVE",
"669 1186.5 CURVE SMOOTH",
"683.667 1172.83 OFFCURVE",
"700.667 1162 OFFCURVE",
"720 1154 CURVE SMOOTH",
"739.333 1146 OFFCURVE",
"760 1142 OFFCURVE",
"782 1142 CURVE SMOOTH",
"804.667 1142 OFFCURVE",
"825.833 1146 OFFCURVE",
"845.5 1154 CURVE SMOOTH",
"865.167 1162 OFFCURVE",
"882.333 1172.83 OFFCURVE",
"897 1186.5 CURVE SMOOTH",
"911.667 1200.17 OFFCURVE",
"923.167 1216.33 OFFCURVE",
"931.5 1235 CURVE SMOOTH",
"939.833 1253.67 OFFCURVE",
"944 1273.67 OFFCURVE",
"944 1295 CURVE SMOOTH"
);
},
{
closed = 1;
nodes = (
"482.667 1053 OFFCURVE",
"411.5 1039.33 OFFCURVE",
"348.5 1012 CURVE SMOOTH",
"285.5 984.667 OFFCURVE",
"231.833 947.667 OFFCURVE",
"187.5 901 CURVE SMOOTH",
"143.167 854.333 OFFCURVE",
"109.167 800 OFFCURVE",
"85.5 738 CURVE SMOOTH",
"61.833 676 OFFCURVE",
"50 610.333 OFFCURVE",
"50 541 CURVE SMOOTH",
"50 449 OFFCURVE",
"63.833 368.333 OFFCURVE",
"91.5 299 CURVE SMOOTH",
"119.167 229.667 OFFCURVE",
"156.833 171.667 OFFCURVE",
"204.5 125 CURVE SMOOTH",
"252.167 78.333 OFFCURVE",
"307.833 43.167 OFFCURVE",
"371.5 19.5 CURVE SMOOTH",
"435.167 -4 OFFCURVE",
"503.333 -16 OFFCURVE",
"576 -16 CURVE SMOOTH",
"611.333 -16 OFFCURVE",
"648.5 -13 OFFCURVE",
"687.5 -8 CURVE SMOOTH",
"726.5 -3 OFFCURVE",
"765.5 5.5 OFFCURVE",
"804.5 18.5 CURVE SMOOTH",
"843.5 31.5 OFFCURVE",
"881.5 49.5 OFFCURVE",
"918.5 72.5 CURVE SMOOTH",
"955.5 95.5 OFFCURVE",
"990 125.333 OFFCURVE",
"1022 162 CURVE",
"932 273 LINE",
"919.333 291 OFFCURVE",
"900.667 300 OFFCURVE",
"876 300 CURVE SMOOTH",
"857.333 300 OFFCURVE",
"839.5 295.667 OFFCURVE",
"822.5 287 CURVE SMOOTH",
"805.5 278.333 OFFCURVE",
"786.833 268.667 OFFCURVE",
"766.5 258 CURVE SMOOTH",
"746.167 247.333 OFFCURVE",
"723 237.667 OFFCURVE",
"697 229 CURVE SMOOTH",
"671 220.333 OFFCURVE",
"640 216 OFFCURVE",
"604 216 CURVE SMOOTH",
"536.667 216 OFFCURVE",
"481.667 235.5 OFFCURVE",
"439 274.5 CURVE SMOOTH",
"396.333 313.5 OFFCURVE",
"370 350 OFFCURVE",
"360 437 CURVE",
"958 437 LINE SMOOTH",
"972 437 OFFCURVE",
"984 439 OFFCURVE",
"993 442 CURVE SMOOTH",
"1002 445 OFFCURVE",
"1009 451 OFFCURVE",
"1014 460 CURVE SMOOTH",
"1019 469 OFFCURVE",
"1023 480 OFFCURVE",
"1025 495 CURVE SMOOTH",
"1027 510 OFFCURVE",
"1028 529 OFFCURVE",
"1028 552 CURVE SMOOTH",
"1028 627 OFFCURVE",
"1016.5 719.5 OFFCURVE",
"993.5 778.5 CURVE SMOOTH",
"970.5 837.5 OFFCURVE",
"938.5 887.333 OFFCURVE",
"897.5 928 CURVE SMOOTH",
"856.5 968.667 OFFCURVE",
"807.5 999.667 OFFCURVE",
"750.5 1021 CURVE SMOOTH",
"693.5 1042.33 OFFCURVE",
"630.667 1053 OFFCURVE",
"562 1053 CURVE SMOOTH"
);
},
{
closed = 1;
nodes = (
"601.333 839 OFFCURVE",
"629.667 833.333 OFFCURVE",
"653 822 CURVE SMOOTH",
"676.333 810.667 OFFCURVE",
"695.167 795.833 OFFCURVE",
"709.5 777.5 CURVE SMOOTH",
"723.833 759.167 OFFCURVE",
"734.167 738.333 OFFCURVE",
"740.5 715 CURVE SMOOTH",
"746.833 691.667 OFFCURVE",
"750 642 OFFCURVE",
"750 617 CURVE",
"363 617 LINE",
"374 680 OFFCURVE",
"395.667 754.833 OFFCURVE",
"429 788.5 CURVE SMOOTH",
"462.333 822.167 OFFCURVE",
"508.667 839 OFFCURVE",
"568 839 CURVE SMOOTH"
);
}
);
width = 1078;
}
);
leftKerningGroup = c;
rightKerningGroup = e;
unicode = 00EB;
},
{
glyphname = egrave;
lastChange = "2014-08-19 19:12:54 -0500";
layers = (
{
layerId = "E173E66F-8B44-4FD8-81CD-C7310885C9A9";
name = Bold;
paths = (
{
closed = 1;
nodes = (
"202 1473 LINE",
"462 1210 LINE SMOOTH",
"477.333 1194.67 OFFCURVE",
"492 1183.83 OFFCURVE",
"506 1177.5 CURVE SMOOTH",
"520 1171.17 OFFCURVE",
"538.667 1168 OFFCURVE",
"562 1168 CURVE SMOOTH",
"738 1168 LINE",
"602 1413 LINE SMOOTH",
"590.667 1432.33 OFFCURVE",
"577.333 1447.17 OFFCURVE",
"562 1457.5 CURVE SMOOTH",
"546.667 1467.83 OFFCURVE",
"523.333 1473 OFFCURVE",
"492 1473 CURVE SMOOTH"
);
},
{
closed = 1;
nodes = (
"482.667 1053 OFFCURVE",
"411.5 1039.33 OFFCURVE",
"348.5 1012 CURVE SMOOTH",
"285.5 984.667 OFFCURVE",
"231.833 947.667 OFFCURVE",
"187.5 901 CURVE SMOOTH",
"143.167 854.333 OFFCURVE",
"109.167 800 OFFCURVE",
"85.5 738 CURVE SMOOTH",
"61.833 676 OFFCURVE",
"50 610.333 OFFCURVE",
"50 541 CURVE SMOOTH",
"50 449 OFFCURVE",
"63.833 368.333 OFFCURVE",
"91.5 299 CURVE SMOOTH",
"119.167 229.667 OFFCURVE",
"156.833 171.667 OFFCURVE",
"204.5 125 CURVE SMOOTH",
"252.167 78.333 OFFCURVE",
"307.833 43.167 OFFCURVE",
"371.5 19.5 CURVE SMOOTH",
"435.167 -4 OFFCURVE",
"503.333 -16 OFFCURVE",
"576 -16 CURVE SMOOTH",
"611.333 -16 OFFCURVE",
"648.5 -13 OFFCURVE",
"687.5 -8 CURVE SMOOTH",
"726.5 -3 OFFCURVE",
"765.5 5.5 OFFCURVE",
"804.5 18.5 CURVE SMOOTH",
"843.5 31.5 OFFCURVE",
"881.5 49.5 OFFCURVE",
"918.5 72.5 CURVE SMOOTH",
"955.5 95.5 OFFCURVE",
"990 125.333 OFFCURVE",
"1022 162 CURVE",
"932 273 LINE",
"919.333 291 OFFCURVE",
"900.667 300 OFFCURVE",
"876 300 CURVE SMOOTH",
"857.333 300 OFFCURVE",
"839.5 295.667 OFFCURVE",
"822.5 287 CURVE SMOOTH",
"805.5 278.333 OFFCURVE",
"786.833 268.667 OFFCURVE",
"766.5 258 CURVE SMOOTH",
"746.167 247.333 OFFCURVE",
"723 237.667 OFFCURVE",
"697 229 CURVE SMOOTH",
"671 220.333 OFFCURVE",
"640 216 OFFCURVE",
"604 216 CURVE SMOOTH",
"536.667 216 OFFCURVE",
"481.667 235.5 OFFCURVE",
"439 274.5 CURVE SMOOTH",
"396.333 313.5 OFFCURVE",
"370 350 OFFCURVE",
"360 437 CURVE",
"958 437 LINE SMOOTH",
"972 437 OFFCURVE",
"984 439 OFFCURVE",
"993 442 CURVE SMOOTH",
"1002 445 OFFCURVE",
"1009 451 OFFCURVE",
"1014 460 CURVE SMOOTH",
"1019 469 OFFCURVE",
"1023 480 OFFCURVE",
"1025 495 CURVE SMOOTH",
"1027 510 OFFCURVE",
"1028 529 OFFCURVE",
"1028 552 CURVE SMOOTH",
"1028 627 OFFCURVE",
"1016.5 719.5 OFFCURVE",
"993.5 778.5 CURVE SMOOTH",
"970.5 837.5 OFFCURVE",
"938.5 887.333 OFFCURVE",
"897.5 928 CURVE SMOOTH",
"856.5 968.667 OFFCURVE",
"807.5 999.667 OFFCURVE",
"750.5 1021 CURVE SMOOTH",
"693.5 1042.33 OFFCURVE",
"630.667 1053 OFFCURVE",
"562 1053 CURVE SMOOTH"
);
},
{
closed = 1;
nodes = (
"601.333 839 OFFCURVE",
"629.667 833.333 OFFCURVE",
"653 822 CURVE SMOOTH",
"676.333 810.667 OFFCURVE",
"695.167 795.833 OFFCURVE",
"709.5 777.5 CURVE SMOOTH",
"723.833 759.167 OFFCURVE",
"734.167 738.333 OFFCURVE",
"740.5 715 CURVE SMOOTH",
"746.833 691.667 OFFCURVE",
"750 642 OFFCURVE",
"750 617 CURVE",
"363 617 LINE",
"374 680 OFFCURVE",
"395.667 754.833 OFFCURVE",
"429 788.5 CURVE SMOOTH",
"462.333 822.167 OFFCURVE",
"508.667 839 OFFCURVE",
"568 839 CURVE SMOOTH"
);
}
);
width = 1078;
}
);
leftKerningGroup = c;
rightKerningGroup = e;
unicode = 00E8;
},
{
glyphname = f;
lastChange = "2014-08-19 19:23:48 -0500";
layers = (
{
layerId = "E173E66F-8B44-4FD8-81CD-C7310885C9A9";
name = Bold;
paths = (
{
closed = 1;
nodes = (
"182 0 LINE",
"492 0 LINE",
"492 823 LINE",
"725 823 LINE",
"725 1035 LINE",
"482 1035 LINE",
"482 1084 LINE SMOOTH",
"482 1118 OFFCURVE",
"485.667 1146.17 OFFCURVE",
"493 1168.5 CURVE SMOOTH",
"500.333 1190.83 OFFCURVE",
"511.167 1208.83 OFFCURVE",
"525.5 1222.5 CURVE SMOOTH",
"539.833 1236.17 OFFCURVE",
"557.667 1245.67 OFFCURVE",
"579 1251 CURVE SMOOTH",
"600.333 1256.33 OFFCURVE",
"624.667 1259 OFFCURVE",
"652 1259 CURVE SMOOTH",
"660.667 1259 OFFCURVE",
"669.333 1260 OFFCURVE",
"678 1262 CURVE SMOOTH",
"686.667 1264 OFFCURVE",
"694.833 1267.17 OFFCURVE",
"702.5 1271.5 CURVE SMOOTH",
"710.167 1275.83 OFFCURVE",
"716.333 1281.5 OFFCURVE",
"721 1288.5 CURVE SMOOTH",
"725.667 1295.5 OFFCURVE",
"728.333 1304.33 OFFCURVE",
"729 1315 CURVE SMOOTH",
"735 1466 LINE",
"711.667 1472.67 OFFCURVE",
"689.333 1477.5 OFFCURVE",
"668 1480.5 CURVE SMOOTH",
"646.667 1483.5 OFFCURVE",
"623.333 1485 OFFCURVE",
"598 1485 CURVE SMOOTH",
"532.667 1485 OFFCURVE",
"474.333 1475.67 OFFCURVE",
"423 1457 CURVE SMOOTH",
"371.667 1438.33 OFFCURVE",
"328.167 1412 OFFCURVE",
"292.5 1378 CURVE SMOOTH",
"256.833 1344 OFFCURVE",
"229.5 1303 OFFCURVE",
"210.5 1255 CURVE SMOOTH",
"191.5 1207 OFFCURVE",
"182 1153.33 OFFCURVE",
"182 1094 CURVE SMOOTH",
"182 1035 LINE",
"35.9999 1035 LINE",
"36 899 LINE SMOOTH",
"36 877 OFFCURVE",
"43 860 OFFCURVE",
"57 849 CURVE SMOOTH",
"72 838 OFFCURVE",
"91 824 OFFCURVE",
"114 824 CURVE SMOOTH",
"182 824 LINE"
);
}
);
width = 732;
}
);
leftKerningGroup = f;
rightKerningGroup = f;
unicode = 0066;
},
{
glyphname = g;
lastChange = "2014-08-18 22:40:07 -0500";
layers = (
{
layerId = "E173E66F-8B44-4FD8-81CD-C7310885C9A9";
name = Bold;
paths = (
{
closed = 1;
nodes = (
"1044 1037 LINE",
"852 1037 LINE SMOOTH",
"813.333 1037 OFFCURVE",
"788 1019.67 OFFCURVE",
"776 985 CURVE SMOOTH",
"763 944 LINE",
"746.333 960.667 OFFCURVE",
"729 975.833 OFFCURVE",
"711 989.5 CURVE SMOOTH",
"693 1003.17 OFFCURVE",
"673.5 1015 OFFCURVE",
"652.5 1025 CURVE SMOOTH",
"631.5 1035 OFFCURVE",
"608.333 1042.67 OFFCURVE",
"583 1048 CURVE SMOOTH",
"557.667 1053.33 OFFCURVE",
"529.333 1056 OFFCURVE",
"498 1056 CURVE SMOOTH",
"432 1056 OFFCURVE",
"371.667 1042.5 OFFCURVE",
"317 1015.5 CURVE SMOOTH",
"262.333 988.5 OFFCURVE",
"215.5 951.5 OFFCURVE",
"176.5 904.5 CURVE SMOOTH",
"137.5 857.5 OFFCURVE",
"107.333 802.167 OFFCURVE",
"86 738.5 CURVE SMOOTH",
"64.6667 674.833 OFFCURVE",
"54 606.667 OFFCURVE",
"54 534 CURVE SMOOTH",
"54 455.333 OFFCURVE",
"63.6667 384 OFFCURVE",
"83 320 CURVE SMOOTH",
"102.333 256 OFFCURVE",
"130 201.333 OFFCURVE",
"166 156 CURVE SMOOTH",
"202 110.667 OFFCURVE",
"245.833 75.6666 OFFCURVE",
"297.5 50.9999 CURVE SMOOTH",
"349.167 26.3333 OFFCURVE",
"407.333 13.9999 OFFCURVE",
"472 13.9999 CURVE SMOOTH",
"501.333 13.9999 OFFCURVE",
"527.833 15.9999 OFFCURVE",
"551.5 19.9999 CURVE SMOOTH",
"575.167 23.9999 OFFCURVE",
"597.333 30.4999 OFFCURVE",
"618 39.4999 CURVE SMOOTH",
"638.667 48.4999 OFFCURVE",
"658.333 59.8333 OFFCURVE",
"677 73.4999 CURVE SMOOTH",
"695.667 87.1666 OFFCURVE",
"714.667 103.667 OFFCURVE",
"734 123 CURVE",
"734 76.9999 LINE SMOOTH",
"734 48.3333 OFFCURVE",
"729 20.9999 OFFCURVE",
"719 -5 CURVE SMOOTH",
"709 -31 OFFCURVE",
"693.833 -54 OFFCURVE",
"673.5 -74 CURVE SMOOTH",
"653.167 -94 OFFCURVE",
"627.667 -110 OFFCURVE",
"597 -122 CURVE SMOOTH",
"566.333 -133 OFFCURVE",
"530.667 -139 OFFCURVE",
"490 -139 CURVE SMOOTH",
"454.667 -139 OFFCURVE",
"425.667 -135 OFFCURVE",
"403 -128 CURVE SMOOTH",
"380.333 -120 OFFCURVE",
"360.667 -111 OFFCURVE",
"344 -102 CURVE SMOOTH",
"327.333 -92 OFFCURVE",
"312 -83 OFFCURVE",
"298 -76 CURVE SMOOTH",
"284 -68 OFFCURVE",
"268 -64 OFFCURVE",
"250 -64 CURVE SMOOTH",
"230.667 -64 OFFCURVE",
"214.833 -68 OFFCURVE",
"202.5 -75 CURVE SMOOTH",
"190.167 -82 OFFCURVE",
"180 -93 OFFCURVE",
"172 -106 CURVE SMOOTH",
"100 -221 LINE",
"120 -239 OFFCURVE",
"143 -256 OFFCURVE",
"169 -272 CURVE SMOOTH",
"195 -288 OFFCURVE",
"224.5 -302 OFFCURVE",
"257.5 -314 CURVE SMOOTH",
"290.5 -326 OFFCURVE",
"327 -336 OFFCURVE",
"367 -343 CURVE SMOOTH",
"407 -350 OFFCURVE",
"451 -353 OFFCURVE",
"499 -353 CURVE SMOOTH",
"583 -353 OFFCURVE",
"658.667 -342 OFFCURVE",
"726 -320 CURVE SMOOTH",
"793.333 -297 OFFCURVE",
"850.5 -266 OFFCURVE",
"897.5 -227 CURVE SMOOTH",
"944.5 -188 OFFCURVE",
"980.667 -141 OFFCURVE",
"1006 -86 CURVE SMOOTH",
"1031.33 -31 OFFCURVE",
"1044 27.9999 OFFCURVE",
"1044 91.9999 CURVE SMOOTH"
);
},
{
closed = 1;
nodes = (
"498.333 251 OFFCURVE",
"453.167 273.167 OFFCURVE",
"421.5 317.5 CURVE SMOOTH",
"389.833 361.833 OFFCURVE",
"374 434 OFFCURVE",
"374 534 CURVE SMOOTH",
"374 586 OFFCURVE",
"379 630.667 OFFCURVE",
"389 668 CURVE SMOOTH",
"399 705.333 OFFCURVE",
"412.833 736 OFFCURVE",
"430.5 760 CURVE SMOOTH",
"448.167 784 OFFCURVE",
"469 801.5 OFFCURVE",
"493 812.5 CURVE SMOOTH",
"517 823.5 OFFCURVE",
"543.333 829 OFFCURVE",
"572 829 CURVE SMOOTH",
"602 829 OFFCURVE",
"630.5 823.667 OFFCURVE",
"657.5 813 CURVE SMOOTH",
"684.5 802.333 OFFCURVE",
"710 784.333 OFFCURVE",
"734 759 CURVE",
"734 348 LINE",
"707.333 316.667 OFFCURVE",
"680.5 292.667 OFFCURVE",
"653.5 276 CURVE SMOOTH",
"626.5 259.333 OFFCURVE",
"594.333 251 OFFCURVE",
"557 251 CURVE SMOOTH"
);
}
);
width = 1148;
}
);
leftKerningGroup = g.salt;
rightKerningGroup = g.salt;
unicode = 0067;
},
{
glyphname = h;
layers = (
{
layerId = "E173E66F-8B44-4FD8-81CD-C7310885C9A9";
name = Bold;
paths = (
{
closed = 1;
nodes = (
"105 0 LINE",
"415 0 LINE",
"415 739 LINE",
"442.333 763.667 OFFCURVE",
"471 783.333 OFFCURVE",
"501 798 CURVE SMOOTH",
"531 812.667 OFFCURVE",
"563 820 OFFCURVE",
"597 820 CURVE SMOOTH",
"642.333 820 OFFCURVE",
"676.667 805.833 OFFCURVE",
"700 777.5 CURVE SMOOTH",
"723.333 749.167 OFFCURVE",
"735 709.667 OFFCURVE",
"735 659 CURVE SMOOTH",
"735 6.10352 LINE",
"1045 6.10352 LINE",
"1045 659 LINE SMOOTH",
"1045 715.667 OFFCURVE",
"1037.33 768.167 OFFCURVE",
"1022 816.5 CURVE SMOOTH",
"1006.67 864.833 OFFCURVE",
"984 906.5 OFFCURVE",
"954 941.5 CURVE SMOOTH",
"924 976.5 OFFCURVE",
"887.167 1003.83 OFFCURVE",
"843.5 1023.5 CURVE SMOOTH",
"799.833 1043.17 OFFCURVE",
"749.667 1053 OFFCURVE",
"693 1053 CURVE SMOOTH",
"632.333 1053 OFFCURVE",
"580.167 1043.17 OFFCURVE",
"536.5 1023.5 CURVE SMOOTH",
"492.833 1003.83 OFFCURVE",
"452.333 978 OFFCURVE",
"415 946 CURVE",
"415 1497 LINE",
"105 1497 LINE"
);
}
);
width = 1140;
}
);
leftKerningGroup = b;
rightKerningGroup = h;
unicode = 0068;
},
{
glyphname = i;
layers = (
{
layerId = "E173E66F-8B44-4FD8-81CD-C7310885C9A9";
name = Bold;
paths = (
{
closed = 1;
nodes = (
"422 1037 LINE",
"112 1037 LINE",
"112 0 LINE",
"422 0 LINE"
);
},
{
closed = 1;
nodes = (
"454 1346.33 OFFCURVE",
"449 1370 OFFCURVE",
"439 1392 CURVE SMOOTH",
"429 1414 OFFCURVE",
"415.333 1433.33 OFFCURVE",
"398 1450 CURVE SMOOTH",
"380.667 1466.67 OFFCURVE",
"360.5 1479.67 OFFCURVE",
"337.5 1489 CURVE SMOOTH",
"314.5 1498.33 OFFCURVE",
"290 1503 OFFCURVE",
"264 1503 CURVE SMOOTH",
"238.667 1503 OFFCURVE",
"215 1498.33 OFFCURVE",
"193 1489 CURVE SMOOTH",
"171 1479.67 OFFCURVE",
"151.5 1466.67 OFFCURVE",
"134.5 1450 CURVE SMOOTH",
"117.5 1433.33 OFFCURVE",
"104.167 1414 OFFCURVE",
"94.5 1392 CURVE SMOOTH",
"84.8333 1370 OFFCURVE",
"80 1346.33 OFFCURVE",
"80 1321 CURVE SMOOTH",
"80 1296.33 OFFCURVE",
"84.8333 1273.17 OFFCURVE",
"94.5 1251.5 CURVE SMOOTH",
"104.167 1229.83 OFFCURVE",
"117.5 1210.83 OFFCURVE",
"134.5 1194.5 CURVE SMOOTH",
"151.5 1178.17 OFFCURVE",
"171 1165.17 OFFCURVE",
"193 1155.5 CURVE SMOOTH",
"215 1145.83 OFFCURVE",
"238.667 1141 OFFCURVE",
"264 1141 CURVE SMOOTH",
"290 1141 OFFCURVE",
"314.5 1145.83 OFFCURVE",
"337.5 1155.5 CURVE SMOOTH",
"360.5 1165.17 OFFCURVE",
"380.667 1178.17 OFFCURVE",
"398 1194.5 CURVE SMOOTH",
"415.333 1210.83 OFFCURVE",
"429 1229.83 OFFCURVE",
"439 1251.5 CURVE SMOOTH",
"449 1273.17 OFFCURVE",
"454 1296.33 OFFCURVE",
"454 1321 CURVE SMOOTH"
);
}
);
width = 534;
}
);
leftKerningGroup = i;
rightKerningGroup = i;
unicode = 0069;
},
{
glyphname = iacute;
layers = (
{
layerId = "E173E66F-8B44-4FD8-81CD-C7310885C9A9";
name = Bold;
paths = (
{
closed = 1;
nodes = (
"113 0 LINE"
);
},
{
closed = 1;
nodes = (
"423 1037 LINE",
"113 1037 LINE",
"113 0 LINE",
"423 0 LINE"
);
},
{
closed = 1;
nodes = (
"673 1473 LINE",
"373 1473 LINE SMOOTH",
"341.667 1473 OFFCURVE",
"318.333 1467.83 OFFCURVE",
"303 1457.5 CURVE SMOOTH",
"287.667 1447.17 OFFCURVE",
"274.333 1432.33 OFFCURVE",
"263 1413 CURVE SMOOTH",
"127 1168 LINE",
"313 1168 LINE SMOOTH",
"336.333 1168 OFFCURVE",
"355 1171.17 OFFCURVE",
"369 1177.5 CURVE SMOOTH",
"383 1183.83 OFFCURVE",
"397.667 1194.67 OFFCURVE",
"413 1210 CURVE SMOOTH"
);
}
);
width = 535;
}
);
leftKerningGroup = i;
rightKerningGroup = i;
unicode = 00ED;
},
{
glyphname = icircumflex;
lastChange = "2014-08-18 21:26:13 -0500";
layers = (
{
layerId = "E173E66F-8B44-4FD8-81CD-C7310885C9A9";
name = Bold;
paths = (
{
closed = 1;
nodes = (
"0 0 LINE"
);
},
{
closed = 1;
nodes = (
"422 1037 LINE",
"112 1037 LINE",
"112 0 LINE",
"422 0 LINE"
);
},
{
closed = 1;
nodes = (
"656 1168 LINE",
"422 1457 LINE",
"130 1457 LINE",
"-104 1168 LINE",
"110 1168 LINE SMOOTH",
"122 1168 OFFCURVE",
"134 1170.33 OFFCURVE",
"146 1175 CURVE SMOOTH",
"158 1179.67 OFFCURVE",
"169 1186.67 OFFCURVE",
"179 1196 CURVE",
"256 1279 LINE",
"260 1282.33 OFFCURVE",
"264.167 1286.33 OFFCURVE",
"268.5 1291 CURVE SMOOTH",
"272.833 1295.67 OFFCURVE",
"277 1300.67 OFFCURVE",
"281 1306 CURVE",
"285 1300.67 OFFCURVE",
"289.167 1295.83 OFFCURVE",
"293.5 1291.5 CURVE SMOOTH",
"306 1279 LINE",
"381 1196 LINE",
"392.333 1184.67 OFFCURVE",
"403.667 1177.17 OFFCURVE",
"415 1173.5 CURVE SMOOTH",
"426.333 1169.83 OFFCURVE",
"438 1168 OFFCURVE",
"450 1168 CURVE SMOOTH"
);
}
);
width = 534;
}
);
leftKerningGroup = i;
rightKerningGroup = i;
unicode = 00EE;
},
